<svg width="18" height="18" viewBox="0 0 18 18" fill="none" xmlns="http://www.w3.org/2000/svg">
<g clip-path="url(#clip0_9198_8816)">
<path d="M9 18C4.03724 18 0 13.9626 0 9C0 4.03745 4.03724 0 9 0C13.9628 0 18 4.03745 18 9C18 13.9626 13.9628 18 9 18Z" fill="#FFE14D"/>
<g clip-path="url(#clip1_9198_8816)">
<g clip-path="url(#clip2_9198_8816)">
<path d="M8.04329 13.5674C9.10481 13.5674 10.0548 12.6876 10.0548 11.6137V9.85828C10.0548 8.78851 9.10481 7.90459 8.04329 7.90459C6.93635 7.90459 5.99048 8.80503 5.99048 9.90373C5.99048 10.9239 6.73395 11.9152 7.77482 11.9152C8.04329 11.9152 8.38611 11.8822 8.39438 11.5352V10.197C8.32003 10.2919 8.18786 10.3498 8.04329 10.3498C7.79134 10.3498 7.59308 10.1598 7.59308 9.8913C7.6096 9.66002 7.77482 9.46176 8.04329 9.46176C8.30764 9.46176 8.49764 9.66002 8.49764 9.92024V11.5435C8.49764 11.8119 8.30764 12.0102 8.04329 12.0102V13.5674ZM14.1687 10.3622H12.3678C12.1117 10.3704 11.897 10.1639 11.897 9.90781C11.897 9.66002 12.1035 9.45351 12.3513 9.45351C12.847 9.45351 12.9007 10.102 12.3678 10.0937V10.2672H12.628L14.0035 10.2631C14.2059 10.0235 14.2554 9.71371 14.2348 9.4122C14.1687 8.33829 13.2724 7.90459 12.3513 7.90459C11.2444 7.90459 10.3481 8.80089 10.3481 9.90781C10.3481 11.0148 11.2444 11.9111 12.3513 11.9111H12.3678H14.1687V10.3622ZM16.1637 11.9111V9.87479C16.1637 9.62284 16.3743 9.40807 16.6345 9.40807C16.8782 9.40807 17.1096 9.63111 17.1096 9.87479V11.9111H18.613V9.88304C18.613 8.77612 17.7332 7.88807 16.6345 7.88807C16.1967 7.88807 15.763 8.03264 15.4161 8.30112C15.2013 8.11938 14.9328 7.99134 14.6478 7.92938V11.9111H16.1637ZM20.9261 10.4076C20.6658 10.4076 20.4676 10.1929 20.4676 9.94501V9.3585H20.9054V7.94177H20.4263C20.4263 6.63243 19.7117 6.01287 18.9393 5.84766V9.93267C18.9393 11.0313 19.8273 11.94 20.9261 11.94V10.4076ZM22.9004 11.9111V7.93351H21.3515V11.9111H22.9004ZM21.2688 6.90917C21.2688 7.39242 21.653 7.77655 22.1363 7.77655C22.6195 7.77655 23.0078 7.39242 23.0078 6.90917C23.0078 6.42591 22.6195 6.03765 22.1363 6.03765C21.653 6.03765 21.2688 6.42591 21.2688 6.90917Z" fill="#FF9F19"/>
</g>
<path d="M8.75098 5.64651V6.44386C8.75098 6.517 8.78675 6.58719 8.85255 6.6191C9.13869 6.75779 9.41474 6.69823 10.0635 7.21719C10.5409 7.59917 10.6015 7.98115 10.682 8.36313C10.7027 8.46135 10.7901 8.52971 10.8905 8.52971H11.6395C11.7413 8.52971 11.8314 8.45928 11.8429 8.35807C11.9651 7.28697 10.9466 6.32091 10.8291 6.23279C10.4351 5.93731 9.50898 5.46444 8.9292 5.45316C8.82495 5.45112 8.75098 5.54224 8.75098 5.64651Z" fill="#FF9F19"/>
<path d="M14.1275 8.51568C14.1838 8.51568 14.2311 8.47283 14.2353 8.41667C14.2856 7.74199 14.1697 7.17699 13.9323 6.52845C13.6834 5.84843 13.2846 5.23034 12.7642 4.71803C12.2437 4.20571 11.6144 3.81174 10.9207 3.56406C10.2586 3.3276 9.55343 3.23001 8.85097 3.27718C8.79434 3.28098 8.75098 3.32843 8.75098 3.38517V4.23027C8.75098 4.29785 8.81169 4.34907 8.87891 4.34229C9.48187 4.2815 10.0127 4.50423 10.5044 4.67982C11.0306 4.86773 11.508 5.16663 11.9029 5.55531C12.2978 5.94399 12.6004 6.41292 12.7892 6.92884C12.9626 7.40262 13.039 7.95457 13.0285 8.39963C13.027 8.46263 13.0769 8.51568 13.1399 8.51568H14.1275Z" fill="#FF9F19"/>
</g>
<path d="M18 9C18 4.03745 13.9628 0 9 0V18C13.9628 18 18 13.9626 18 9Z" fill="#FFCC33"/>
<g clip-path="url(#clip3_9198_8816)">
<g clip-path="url(#clip4_9198_8816)">
<path d="M8.04354 13.5674C9.10505 13.5674 10.055 12.6876 10.055 11.6137V9.85828C10.055 8.78851 9.10505 7.90459 8.04354 7.90459C6.93659 7.90459 5.99072 8.80503 5.99072 9.90373C5.99072 10.9239 6.7342 11.9152 7.77506 11.9152C8.04354 11.9152 8.38636 11.8822 8.39462 11.5352V10.197C8.32027 10.2919 8.18811 10.3498 8.04354 10.3498C7.79158 10.3498 7.59332 10.1598 7.59332 9.8913C7.60984 9.66002 7.77506 9.46176 8.04354 9.46176C8.30788 9.46176 8.49789 9.66002 8.49789 9.92024V11.5435C8.49789 11.8119 8.30788 12.0102 8.04354 12.0102V13.5674ZM14.1689 10.3622H12.3681C12.112 10.3704 11.8972 10.1639 11.8972 9.90781C11.8972 9.66002 12.1037 9.45351 12.3516 9.45351C12.8472 9.45351 12.9009 10.102 12.3681 10.0937V10.2672H12.6283L14.0037 10.2631C14.2061 10.0235 14.2557 9.71371 14.235 9.4122C14.1689 8.33829 13.2726 7.90459 12.3516 7.90459C11.2446 7.90459 10.3483 8.80089 10.3483 9.90781C10.3483 11.0148 11.2446 11.9111 12.3516 11.9111H12.3681H14.1689V10.3622ZM16.1639 11.9111V9.87479C16.1639 9.62284 16.3746 9.40807 16.6348 9.40807C16.8785 9.40807 17.1098 9.63111 17.1098 9.87479V11.9111H18.6133V9.88304C18.6133 8.77612 17.7334 7.88807 16.6348 7.88807C16.1969 7.88807 15.7633 8.03264 15.4163 8.30112C15.2016 8.11938 14.933 7.99134 14.6481 7.92938V11.9111H16.1639ZM20.9263 10.4076C20.666 10.4076 20.4678 10.1929 20.4678 9.94501V9.3585H20.9056V7.94177H20.4265C20.4265 6.63243 19.712 6.01287 18.9395 5.84766V9.93267C18.9395 11.0313 19.8276 11.94 20.9263 11.94V10.4076ZM22.9006 11.9111V7.93351H21.3517V11.9111H22.9006ZM21.2691 6.90917C21.2691 7.39242 21.6532 7.77655 22.1365 7.77655C22.6197 7.77655 23.008 7.39242 23.008 6.90917C23.008 6.42591 22.6197 6.03765 22.1365 6.03765C21.6532 6.03765 21.2691 6.42591 21.2691 6.90917Z" fill="#F28618"/>
</g>
<path d="M8.75122 5.64651V6.44386C8.75122 6.517 8.787 6.58719 8.8528 6.6191C9.13894 6.75779 9.41498 6.69823 10.0637 7.21719C10.5412 7.59917 10.6017 7.98115 10.6823 8.36313C10.703 8.46135 10.7904 8.52971 10.8908 8.52971H11.6397C11.7415 8.52971 11.8317 8.45928 11.8432 8.35807C11.9654 7.28697 10.9468 6.32091 10.8293 6.23279C10.4354 5.93731 9.50922 5.46444 8.92944 5.45316C8.82519 5.45112 8.75122 5.54224 8.75122 5.64651Z" fill="#F28618"/>
<path d="M14.1278 8.51568C14.1841 8.51568 14.2314 8.47283 14.2355 8.41667C14.2858 7.74199 14.1699 7.17699 13.9326 6.52845C13.6837 5.84843 13.2848 5.23034 12.7644 4.71803C12.2439 4.20571 11.6146 3.81174 10.921 3.56406C10.2589 3.3276 9.55367 3.23001 8.85121 3.27718C8.79459 3.28098 8.75122 3.32843 8.75122 3.38517V4.23027C8.75122 4.29785 8.81193 4.34907 8.87915 4.34229C9.48212 4.2815 10.0129 4.50423 10.5047 4.67982C11.0308 4.86773 11.5083 5.16663 11.9032 5.55531C12.298 5.94399 12.6006 6.41292 12.7894 6.92884C12.9628 7.40262 13.0393 7.95457 13.0288 8.39963C13.0273 8.46263 13.0771 8.51568 13.1401 8.51568H14.1278Z" fill="#F28618"/>
</g>
<path d="M8.99993 1.17188C4.6845 1.17188 1.17383 4.68275 1.17383 8.99797C1.17383 13.3132 4.6845 16.8241 8.99993 16.8241C13.3154 16.8241 16.826 13.3132 16.826 8.99797C16.826 4.68275 13.3154 1.17188 8.99993 1.17188ZM8.99993 15.6501C5.33183 15.6501 2.34777 12.666 2.34777 8.99797C2.34777 5.32991 5.33183 2.34581 8.99993 2.34581C12.668 2.34581 15.6521 5.32988 15.6521 8.99797C15.6521 12.6661 12.668 15.6501 8.99993 15.6501Z" fill="#FF9F19"/>
<path d="M15.6522 8.99797C15.6522 12.6661 12.6681 15.6501 9 15.6501V16.824C13.3154 16.824 16.8261 13.3132 16.8261 8.99794C16.8261 4.68268 13.3154 1.17188 9 1.17188V2.34578C12.6681 2.34581 15.6522 5.32987 15.6522 8.99797Z" fill="#F28618"/>
</g>
<defs>
<clipPath id="clip0_9198_8816">
<rect width="18" height="18" fill="white"/>
</clipPath>
<clipPath id="clip1_9198_8816">
<rect width="8.33977" height="12.5097" fill="white" transform="translate(5.90747 1.59766)"/>
</clipPath>
<clipPath id="clip2_9198_8816">
<rect width="4.25328" height="7.67259" fill="white" transform="translate(5.99048 6.01562)"/>
</clipPath>
<clipPath id="clip3_9198_8816">
<rect width="5.28185" height="12.5097" fill="white" transform="translate(8.96533 1.59766)"/>
</clipPath>
<clipPath id="clip4_9198_8816">
<rect width="4.25328" height="7.67259" fill="white" transform="translate(5.99097 6.01562)"/>
</clipPath>
</defs>
</svg>
