<svg width="14" height="14" viewBox="0 0 14 14" fill="none" xmlns="http://www.w3.org/2000/svg">
<path d="M5.3335 5.21666V8.78333C5.3335 9.03888 5.45016 9.23333 5.6835 9.36666C5.91683 9.49999 6.14461 9.48888 6.36683 9.33333L9.1335 7.56666C9.34461 7.43333 9.45016 7.24444 9.45016 6.99999C9.45016 6.75555 9.34461 6.56666 9.1335 6.43333L6.36683 4.66666C6.14461 4.51111 5.91683 4.49999 5.6835 4.63333C5.45016 4.76666 5.3335 4.96111 5.3335 5.21666ZM7.00016 13.6667C6.07794 13.6667 5.21127 13.4915 4.40016 13.1413C3.58905 12.7915 2.8835 12.3167 2.2835 11.7167C1.6835 11.1167 1.20861 10.4111 0.858829 9.59999C0.508607 8.78888 0.333496 7.92222 0.333496 6.99999C0.333496 6.07777 0.508607 5.21111 0.858829 4.39999C1.20861 3.58888 1.6835 2.88333 2.2835 2.28333C2.8835 1.68333 3.58905 1.20822 4.40016 0.857995C5.21127 0.508217 6.07794 0.333328 7.00016 0.333328C7.92238 0.333328 8.78905 0.508217 9.60016 0.857995C10.4113 1.20822 11.1168 1.68333 11.7168 2.28333C12.3168 2.88333 12.7917 3.58888 13.1415 4.39999C13.4917 5.21111 13.6668 6.07777 13.6668 6.99999C13.6668 7.92222 13.4917 8.78888 13.1415 9.59999C12.7917 10.4111 12.3168 11.1167 11.7168 11.7167C11.1168 12.3167 10.4113 12.7915 9.60016 13.1413C8.78905 13.4915 7.92238 13.6667 7.00016 13.6667Z" fill="url(#paint0_linear_128_2867)"/>
<defs>
<linearGradient id="paint0_linear_128_2867" x1="1.7237" y1="9.73809" x2="18.5401" y2="8.74726" gradientUnits="userSpaceOnUse">
<stop stop-color="#5F42E2"/>
<stop offset="1" stop-color="#9B42C0"/>
</linearGradient>
</defs>
</svg>
