<svg width="16" height="16" viewBox="0 0 16 16" fill="none" xmlns="http://www.w3.org/2000/svg">
<path d="M6.92306 1.37965C7.61627 1.11303 8.38373 1.11303 9.07694 1.37965L14.0385 3.28793C14.6178 3.51073 15 4.06729 15 4.68795V11.3144C15 11.935 14.6178 12.4916 14.0385 12.7144L9.07694 14.6227C8.38373 14.8893 7.61627 14.8893 6.92306 14.6227L1.96153 12.7144C1.38224 12.4916 1 11.935 1 11.3144V4.68795C1 4.06729 1.38224 3.51073 1.96153 3.28793L6.92306 1.37965ZM8.71796 2.313C8.25582 2.13525 7.74418 2.13525 7.28204 2.313L5.89757 2.84548L11.4885 4.96205L13.4357 4.12753L8.71796 2.313ZM14 4.97367L8.5 7.33082V13.7591C8.5736 13.7401 8.64637 13.7168 8.71796 13.6893L13.6795 11.781C13.8726 11.7068 14 11.5212 14 11.3144V4.97367ZM7.5 13.7591V7.33082L2 4.97367V11.3144C2 11.5212 2.12741 11.7068 2.32051 11.781L7.28204 13.6893C7.35363 13.7168 7.4264 13.7401 7.5 13.7591ZM2.56425 4.12753L8 6.45714L10.1638 5.5298L4.49652 3.38435L2.56425 4.12753Z" fill="#888888"/>
</svg>
