<svg width="16" height="11" viewBox="0 0 16 11" fill="none" xmlns="http://www.w3.org/2000/svg">
<mask id="path-1-inside-1_5755_19613" fill="white">
<path d="M10.4767 7.23828C10.3252 7.23828 10.1798 7.29849 10.0726 7.40565C9.96548 7.51282 9.90527 7.65817 9.90527 7.80973C9.90527 7.96128 9.96548 8.10663 10.0726 8.2138C10.1798 8.32097 10.3252 8.38117 10.4767 8.38117H12.3815C12.5331 8.38117 12.6784 8.32097 12.7856 8.2138C12.8928 8.10663 12.953 7.96128 12.953 7.80973C12.953 7.65817 12.8928 7.51282 12.7856 7.40565C12.6784 7.29849 12.5331 7.23828 12.3815 7.23828H10.4767Z"/>
</mask>
<path d="M10.4767 7.23828C10.3252 7.23828 10.1798 7.29849 10.0726 7.40565C9.96548 7.51282 9.90527 7.65817 9.90527 7.80973C9.90527 7.96128 9.96548 8.10663 10.0726 8.2138C10.1798 8.32097 10.3252 8.38117 10.4767 8.38117H12.3815C12.5331 8.38117 12.6784 8.32097 12.7856 8.2138C12.8928 8.10663 12.953 7.96128 12.953 7.80973C12.953 7.65817 12.8928 7.51282 12.7856 7.40565C12.6784 7.29849 12.5331 7.23828 12.3815 7.23828H10.4767Z" fill="#FDFDFD"/>
<path d="M10.4767 5.73828C9.92734 5.73828 9.40046 5.95652 9.01199 6.34499L11.1333 8.46631C10.9592 8.64045 10.723 8.73828 10.4767 8.73828V5.73828ZM9.01199 6.34499C8.62352 6.73346 8.40527 7.26034 8.40527 7.80973H11.4053C11.4053 8.056 11.3074 8.29218 11.1333 8.46631L9.01199 6.34499ZM8.40527 7.80973C8.40527 8.35911 8.62352 8.88599 9.01199 9.27446L11.1333 7.15314C11.3074 7.32728 11.4053 7.56346 11.4053 7.80973H8.40527ZM9.01199 9.27446C9.40046 9.66293 9.92734 9.88117 10.4767 9.88117V6.88117C10.723 6.88117 10.9592 6.979 11.1333 7.15314L9.01199 9.27446ZM10.4767 9.88117H12.3815V6.88117H10.4767V9.88117ZM12.3815 9.88117C12.9309 9.88117 13.4578 9.66293 13.8463 9.27446L11.725 7.15314C11.8991 6.979 12.1353 6.88117 12.3815 6.88117V9.88117ZM13.8463 9.27446C14.2347 8.88599 14.453 8.35911 14.453 7.80973H11.453C11.453 7.56346 11.5508 7.32728 11.725 7.15314L13.8463 9.27446ZM14.453 7.80973C14.453 7.26035 14.2347 6.73347 13.8463 6.34499L11.725 8.46631C11.5508 8.29218 11.453 8.05599 11.453 7.80973H14.453ZM13.8463 6.34499C13.4578 5.95652 12.9309 5.73828 12.3815 5.73828V8.73828C12.1353 8.73828 11.8991 8.64045 11.725 8.46631L13.8463 6.34499ZM12.3815 5.73828H10.4767V8.73828H12.3815V5.73828Z" fill="#FDFDFD" mask="url(#path-1-inside-1_5755_19613)"/>
<mask id="path-3-inside-2_5755_19613" fill="white">
<path d="M2.0953 0C1.53959 0 1.00665 0.220754 0.6137 0.6137C0.220754 1.00664 0 1.53959 0 2.0953V8.57169C0 9.1274 0.220754 9.66035 0.6137 10.0533C1.00665 10.4462 1.53959 10.667 2.0953 10.667H13.1433C13.699 10.667 14.2319 10.4462 14.6249 10.0533C15.0178 9.66035 15.2386 9.1274 15.2386 8.57169V2.0953C15.2386 1.53959 15.0178 1.00664 14.6249 0.6137C14.2319 0.220754 13.699 0 13.1433 0H2.0953ZM1.14289 8.57169V4.57157H14.0957V8.57169C14.0957 9.09742 13.669 9.5241 13.1433 9.5241H2.0953C1.56957 9.5241 1.14289 9.09742 1.14289 8.57169ZM1.14289 3.42868V2.0953C1.14289 1.56957 1.56957 1.14289 2.0953 1.14289H13.1433C13.669 1.14289 14.0957 1.56957 14.0957 2.0953V3.42868H1.14289Z"/>
</mask>
<path d="M2.0953 0C1.53959 0 1.00665 0.220754 0.6137 0.6137C0.220754 1.00664 0 1.53959 0 2.0953V8.57169C0 9.1274 0.220754 9.66035 0.6137 10.0533C1.00665 10.4462 1.53959 10.667 2.0953 10.667H13.1433C13.699 10.667 14.2319 10.4462 14.6249 10.0533C15.0178 9.66035 15.2386 9.1274 15.2386 8.57169V2.0953C15.2386 1.53959 15.0178 1.00664 14.6249 0.6137C14.2319 0.220754 13.699 0 13.1433 0H2.0953ZM1.14289 8.57169V4.57157H14.0957V8.57169C14.0957 9.09742 13.669 9.5241 13.1433 9.5241H2.0953C1.56957 9.5241 1.14289 9.09742 1.14289 8.57169ZM1.14289 3.42868V2.0953C1.14289 1.56957 1.56957 1.14289 2.0953 1.14289H13.1433C13.669 1.14289 14.0957 1.56957 14.0957 2.0953V3.42868H1.14289Z" fill="#FDFDFD"/>
<path d="M0 2.0953H-1.5H0ZM0 8.57169H-1.5H0ZM1.14289 4.57157V3.07157H-0.357108V4.57157H1.14289ZM14.0957 4.57157H15.5957V3.07157H14.0957V4.57157ZM1.14289 3.42868H-0.357108V4.92868H1.14289V3.42868ZM14.0957 3.42868V4.92868H15.5957V3.42868H14.0957ZM2.0953 -1.5C1.14177 -1.5 0.22729 -1.12121 -0.44696 -0.446961L1.67436 1.67436C1.786 1.56272 1.93742 1.5 2.0953 1.5V-1.5ZM-0.44696 -0.446961C-1.12121 0.227289 -1.5 1.14177 -1.5 2.0953H1.5C1.5 1.93742 1.56272 1.786 1.67436 1.67436L-0.44696 -0.446961ZM-1.5 2.0953V8.57169H1.5V2.0953H-1.5ZM-1.5 8.57169C-1.5 9.52522 -1.12121 10.4397 -0.44696 11.114L1.67436 8.99263C1.56272 8.88099 1.5 8.72957 1.5 8.57169H-1.5ZM-0.44696 11.114C0.22729 11.7882 1.14177 12.167 2.0953 12.167V9.16699C1.93742 9.16699 1.786 9.10427 1.67436 8.99263L-0.44696 11.114ZM2.0953 12.167H13.1433V9.16699H2.0953V12.167ZM13.1433 12.167C14.0968 12.167 15.0113 11.7882 15.6855 11.114L13.5642 8.99263C13.4526 9.10427 13.3011 9.16699 13.1433 9.16699V12.167ZM15.6855 11.114C16.3598 10.4397 16.7386 9.52522 16.7386 8.57169H13.7386C13.7386 8.72957 13.6758 8.88099 13.5642 8.99263L15.6855 11.114ZM16.7386 8.57169V2.0953H13.7386V8.57169H16.7386ZM16.7386 2.0953C16.7386 1.14177 16.3598 0.22729 15.6855 -0.446961L13.5642 1.67436C13.6758 1.786 13.7386 1.93742 13.7386 2.0953H16.7386ZM15.6855 -0.446961C15.0113 -1.12121 14.0968 -1.5 13.1433 -1.5V1.5C13.3011 1.5 13.4526 1.56272 13.5642 1.67436L15.6855 -0.446961ZM13.1433 -1.5H2.0953V1.5H13.1433V-1.5ZM2.64289 8.57169V4.57157H-0.357108V8.57169H2.64289ZM1.14289 6.07157H14.0957V3.07157H1.14289V6.07157ZM12.5957 4.57157V8.57169H15.5957V4.57157H12.5957ZM12.5957 8.57169C12.5957 8.26899 12.8406 8.0241 13.1433 8.0241V11.0241C14.4974 11.0241 15.5957 9.92585 15.5957 8.57169H12.5957ZM13.1433 8.0241H2.0953V11.0241H13.1433V8.0241ZM2.0953 8.0241C2.398 8.0241 2.64289 8.26899 2.64289 8.57169H-0.357108C-0.357108 9.92585 0.741144 11.0241 2.0953 11.0241V8.0241ZM2.64289 3.42868V2.0953H-0.357108V3.42868H2.64289ZM2.64289 2.0953C2.64289 2.398 2.398 2.64289 2.0953 2.64289V-0.357108C0.741144 -0.357108 -0.357108 0.741145 -0.357108 2.0953H2.64289ZM2.0953 2.64289H13.1433V-0.357108H2.0953V2.64289ZM13.1433 2.64289C12.8406 2.64289 12.5957 2.398 12.5957 2.0953H15.5957C15.5957 0.741145 14.4974 -0.357108 13.1433 -0.357108V2.64289ZM12.5957 2.0953V3.42868H15.5957V2.0953H12.5957ZM14.0957 1.92868H1.14289V4.92868H14.0957V1.92868Z" fill="#FDFDFD" mask="url(#path-3-inside-2_5755_19613)"/>
</svg>
