<svg width="14" height="16" viewBox="0 0 14 16" fill="none" xmlns="http://www.w3.org/2000/svg">
<path d="M10.9158 8.47786C10.8977 6.60625 12.5594 5.69571 12.6354 5.65332C11.6943 4.37403 10.2357 4.19924 9.72316 4.18531C8.49808 4.0651 7.30974 4.86879 6.68568 4.86879C6.04916 4.86879 5.08815 4.19692 4.0524 4.21667C2.71957 4.23583 1.47274 4.95532 0.788839 6.07259C-0.622414 8.35068 0.430095 11.6984 1.78228 13.5398C2.45861 14.4422 3.24902 15.4486 4.28347 15.4132C5.29555 15.3749 5.6736 14.8122 6.89495 14.8122C8.10503 14.8122 8.46009 15.4132 9.51509 15.3905C10.6013 15.3749 11.2851 14.4846 11.9379 13.5747C12.7195 12.5416 13.0334 11.5231 13.0459 11.4708C13.0209 11.4627 10.937 10.7205 10.9158 8.47786ZM8.92279 2.97396C9.46708 2.33926 9.83958 1.47575 9.73619 0.599472C8.94827 0.631991 7.96303 1.10759 7.39559 1.72836C6.8936 2.27538 6.44517 3.17198 6.56101 4.01516C7.44609 4.07672 8.35478 3.5988 8.92279 2.97396Z" fill="white"/>
</svg>
