<svg width="15" height="14" viewBox="0 0 15 14" fill="none" xmlns="http://www.w3.org/2000/svg">
<path d="M13.6249 6.12508L3.85112 6.12508L8.12112 1.85508C8.46237 1.51383 8.46237 0.953828 8.12112 0.612578C8.04017 0.531462 7.94402 0.467108 7.83817 0.423199C7.73232 0.37929 7.61885 0.356689 7.50425 0.356689C7.38965 0.356689 7.27618 0.37929 7.17033 0.423199C7.06448 0.467108 6.96832 0.531462 6.88737 0.612578L1.12112 6.37883C1.04001 6.45978 0.975653 6.55593 0.931745 6.66178C0.887836 6.76763 0.865234 6.88111 0.865234 6.9957C0.865234 7.1103 0.887836 7.22377 0.931745 7.32962C0.975653 7.43548 1.04001 7.53163 1.12112 7.61258L6.88737 13.3788C6.96838 13.4598 7.06455 13.5241 7.1704 13.5679C7.27624 13.6118 7.38968 13.6343 7.50425 13.6343C7.61881 13.6343 7.73226 13.6118 7.8381 13.5679C7.94394 13.5241 8.04011 13.4598 8.12112 13.3788C8.20213 13.2978 8.26639 13.2016 8.31023 13.0958C8.35408 12.99 8.37664 12.8765 8.37664 12.762C8.37664 12.6474 8.35408 12.5339 8.31023 12.4281C8.26639 12.3223 8.20213 12.2261 8.12112 12.1451L3.85112 7.87508L13.6249 7.87508C14.1061 7.87508 14.4999 7.48133 14.4999 7.00008C14.4999 6.51883 14.1061 6.12508 13.6249 6.12508Z" fill="#C4C4C4"/>
</svg>
