<svg width="26" height="15" viewBox="0 0 26 15" fill="none" xmlns="http://www.w3.org/2000/svg">
<g clip-path="url(#clip0_389_150)">
<path d="M2.02235 13.3455C2.10405 13.8618 1.7517 14.3469 1.23546 14.4286C0.719225 14.5103 0.234061 14.1585 0.152365 13.6422C0.049619 12.9982 0 12.3722 0 11.7682C0 8.89835 1.04952 6.22043 2.81124 4.14696C4.57247 2.07399 7.0489 0.603961 9.90225 0.150374C10.5247 0.0511355 11.1517 -0.000488281 11.7777 -0.000488281C15.03 -0.000488281 17.9741 1.31767 20.1052 3.44878C22.1211 5.46412 23.4091 8.2077 23.543 11.2505L24.0276 10.7428C24.388 10.3639 24.9879 10.3488 25.3673 10.7097C25.7462 11.0701 25.7613 11.67 25.4004 12.0489L23.2728 14.2773C23.2083 14.3452 23.1339 14.4031 23.0523 14.4492C22.6659 14.7409 22.113 14.6953 21.7807 14.3299L19.7027 12.0549C19.3504 11.6675 19.3785 11.0676 19.7659 10.7152C20.1528 10.3629 20.7533 10.3909 21.1056 10.7784L21.6464 11.3703C21.5427 8.80413 20.4601 6.49008 18.762 4.79201C16.9747 3.00522 14.5053 1.89957 11.7777 1.89957C11.2249 1.89957 10.6977 1.94117 10.199 2.02036C7.81073 2.40027 5.73626 3.63273 4.25821 5.3719C2.78067 7.11107 1.90006 9.35896 1.90006 11.7682C1.90006 12.3005 1.94015 12.8283 2.02235 13.3455ZM12.308 13.8823C12.106 13.5655 11.9652 13.2002 11.8875 12.7862C11.8098 12.3722 11.7707 11.8504 11.7707 11.2214C11.7707 10.5924 11.8098 9.97093 11.8875 9.55693C11.9652 9.14294 12.106 8.77706 12.308 8.4613C12.5105 8.14505 12.8012 7.91399 13.1811 7.76864C13.561 7.62329 14.0417 7.55062 14.6236 7.55062C15.2055 7.55062 15.6846 7.62329 16.0605 7.76864C16.4369 7.91399 16.7281 8.14505 16.9336 8.4613C17.1396 8.77706 17.2804 9.14244 17.3546 9.55693C17.4288 9.97093 17.4659 10.5944 17.4659 11.2269C17.4659 11.8595 17.4283 12.3812 17.3546 12.7917C17.2799 13.2022 17.1391 13.566 16.9336 13.8823C16.7281 14.1981 16.4364 14.4296 16.0605 14.5745C15.6846 14.7193 15.2055 14.7925 14.6236 14.7925C14.0417 14.7925 13.5605 14.7193 13.1811 14.5745C12.8017 14.4296 12.5105 14.1986 12.308 13.8823ZM13.8663 9.88372V13.0373H14.3133C14.6326 13.0373 15.0516 13.0022 15.1789 12.9335C15.3062 12.8649 15.3709 12.7065 15.3709 12.4594V9.30633H14.8702C14.5584 9.30633 14.1494 9.33941 14.0367 9.40407C13.9234 9.46922 13.8663 9.63061 13.8663 9.88372ZM10.9643 14.7288H6.0886V12.8533L7.01482 11.9376C7.2133 11.7487 7.40526 11.5597 7.5897 11.3703L8.03677 10.9127C8.15756 10.7889 8.26733 10.6511 8.36656 10.4982C8.4663 10.3453 8.52494 10.231 8.54249 10.1549C8.56003 10.0782 8.56905 10.0005 8.56905 9.9203C8.56905 9.73135 8.51592 9.61156 8.40917 9.56044C8.30291 9.50982 8.11496 9.48426 7.84481 9.48426C7.33409 9.48426 6.86546 9.52385 6.43994 9.60404L6.21641 9.64765L6.11015 7.78318C6.84792 7.51453 7.61977 7.37971 8.42571 7.37971C9.23064 7.37971 9.86265 7.56716 10.3202 7.94106C10.7778 8.31596 11.0069 8.8352 11.0069 9.5003C11.0069 10.1654 10.9001 10.6871 10.6876 11.065C10.4746 11.443 10.0772 11.8394 9.49527 12.2539L8.78156 12.7661H10.9643V14.7288Z" fill="#CECECE"/>
</g>
<defs>
<clipPath id="clip0_389_150">
<rect width="25.6615" height="14.793" fill="white"/>
</clipPath>
</defs>
</svg>
