<svg width="64" height="64" viewBox="0 0 64 64" fill="none" xmlns="http://www.w3.org/2000/svg">
<path d="M32 0C49.6731 0 64 14.3269 64 32C64 49.6731 49.6731 64 32 64C14.3269 64 0 49.6731 0 32C0 14.3269 14.3269 0 32 0ZM22.2142 19.3858L22.0518 19.24C21.3226 18.6533 20.2774 18.6533 19.5482 19.24L19.3858 19.3858L19.24 19.5482C18.6533 20.2774 18.6533 21.3226 19.24 22.0518L19.3858 22.2142L29.1728 32L19.3858 41.7858L19.24 41.9482C18.6533 42.6774 18.6533 43.7226 19.24 44.4518L19.3858 44.6142L19.5482 44.76C20.2774 45.3467 21.3226 45.3467 22.0518 44.76L22.2142 44.6142L32 34.8272L41.7858 44.6142L41.9482 44.76C42.6774 45.3467 43.7226 45.3467 44.4518 44.76L44.6142 44.6142L44.76 44.4518C45.3467 43.7226 45.3467 42.6774 44.76 41.9482L44.6142 41.7858L34.8272 32L44.6142 22.2142L44.76 22.0518C45.3467 21.3226 45.3467 20.2774 44.76 19.5482L44.6142 19.3858L44.4518 19.24C43.7226 18.6533 42.6774 18.6533 41.9482 19.24L41.7858 19.3858L32 29.1728L22.2142 19.3858L22.0518 19.24L22.2142 19.3858Z" fill="#A61A1A"/>
</svg>
