<svg width="371" height="287" viewBox="0 0 371 287" fill="none" xmlns="http://www.w3.org/2000/svg">
<path fill-rule="evenodd" clip-rule="evenodd" d="M276.668 200.632L274.217 217.251C274.217 217.251 262.831 219.26 255.072 214.013C247.32 208.767 237.427 193.354 237.427 193.354C237.427 193.354 239.498 181.024 240.505 180.892C241.505 180.76 263.569 174.859 263.569 174.859L276.668 200.632Z" fill="#2B2B2B"/>
<path fill-rule="evenodd" clip-rule="evenodd" d="M245.448 204.386C240.958 198.844 237.435 193.348 237.435 193.348C237.435 193.348 239.506 181.018 240.513 180.886C241.18 180.8 251.129 178.169 257.738 176.41C262.498 179.01 266.116 181.773 267.052 182.925C267.489 183.463 268.044 184.015 268.512 184.56L269.536 186.568C269.425 187.845 267.124 188.872 259.237 189.223C248.574 189.698 246.035 199.147 245.448 204.386Z" fill="#4B4B4B"/>
<path fill-rule="evenodd" clip-rule="evenodd" d="M139.632 202.199L137.156 234.713C137.156 234.713 121.177 237.889 119.844 234.48C118.504 231.07 115.433 194.081 115.433 194.081L130.809 187.262L139.632 202.199Z" fill="#2B2B2B"/>
<path fill-rule="evenodd" clip-rule="evenodd" d="M139.632 202.199L139.402 205.219C129.119 198.603 122.415 202.051 122.415 202.051L117.266 198.183L120.757 191.714L130.801 187.254L139.632 202.199Z" fill="#4B4B4B"/>
<path fill-rule="evenodd" clip-rule="evenodd" d="M227.755 134.039C227.755 134.039 238.339 135.58 245.448 143.582C252.556 151.584 267.385 181.506 267.385 181.506C267.385 181.506 267.933 182.588 267.171 183.655C267.171 183.655 249.922 185.297 241.449 196.779C241.449 196.779 240.013 197.393 238.609 196.164C237.204 194.934 237.204 194.934 237.204 194.934C237.204 194.934 215.378 166.888 215.314 164.467C215.283 163.12 213.458 150.86 216.893 142.897C219.607 136.569 227.755 134.039 227.755 134.039Z" fill="#5D5D5D"/>
<path fill-rule="evenodd" clip-rule="evenodd" d="M137.594 138.074C137.594 138.074 127.7 142.06 122.749 151.502C117.798 160.944 110.713 193.473 110.713 193.473C110.713 193.473 110.443 194.656 111.451 195.505C111.451 195.505 128.596 193.045 139.625 202.191C139.625 202.191 141.172 202.448 142.235 200.923C143.298 199.405 143.298 199.405 143.298 199.405C143.298 199.405 157.635 167.039 157.103 164.68C156.802 163.365 155.58 151.042 150.296 144.107C146.115 138.619 137.594 138.074 137.594 138.074Z" fill="#5D5D5D"/>
<path fill-rule="evenodd" clip-rule="evenodd" d="M122.668 175.598C124.041 175.598 125.152 176.687 125.152 178.034C125.152 179.381 124.041 180.47 122.668 180.47C121.296 180.47 120.185 179.381 120.185 178.034C120.177 176.687 121.296 175.598 122.668 175.598Z" fill="black"/>
<path fill-rule="evenodd" clip-rule="evenodd" d="M83.1097 158.817L67.7416 145.561C67.7416 145.561 64.695 142.992 64.8933 139.887C65.0917 136.781 66.7181 129.152 66.7181 129.152L85.0615 147.414L83.1097 158.817Z" fill="#4B4B4B"/>
<path fill-rule="evenodd" clip-rule="evenodd" d="M59.6737 115.594H48.4551C47.7014 115.594 47.7252 116.201 48.5106 116.948L111.975 176.691C112.768 177.438 114.029 178.045 114.791 178.045H126.01C126.771 178.045 126.74 177.438 125.954 176.691L62.4903 116.948C61.6969 116.201 60.4275 115.594 59.6737 115.594Z" fill="black"/>
<path fill-rule="evenodd" clip-rule="evenodd" d="M62.0389 115.594H58.8018C58.0084 115.594 58.0401 116.232 58.8653 117.003L122.202 176.629C123.027 177.407 124.344 178.037 125.138 178.037H128.375C129.168 178.037 129.137 177.407 128.311 176.629L64.9665 117.003C64.1493 116.232 62.8243 115.594 62.0389 115.594Z" fill="#7E7E7E"/>
<path fill-rule="evenodd" clip-rule="evenodd" d="M119.885 176.605C119.131 182.28 119.441 185.798 120.393 189.379C124.098 203.367 134.349 222.025 136.967 233.484C139.442 244.296 120.94 263.6 105.961 243.315C99.2012 234.161 106.413 190.251 99.8359 182.07L119.885 176.605Z" fill="#2B2B2B"/>
<path fill-rule="evenodd" clip-rule="evenodd" d="M192.321 123.702C140.401 114.509 153.008 76.9821 162.751 48.0721C175.501 10.2572 225.104 13.7523 239.623 43.2927C254.143 72.841 246.296 131.797 192.321 123.702Z" fill="black"/>
<path fill-rule="evenodd" clip-rule="evenodd" d="M201.708 74.5078H177.779C174.273 74.5078 171.408 77.3256 171.408 80.7584V121.383C171.377 121.835 170.734 129.845 159.515 132.569L189.744 181.11L219.972 132.569C208.436 129.767 208.079 121.36 208.079 121.36V80.7584C208.079 77.3179 205.207 74.5078 201.708 74.5078Z" fill="#2B2B2B"/>
<path fill-rule="evenodd" clip-rule="evenodd" d="M201.708 74.5078H177.779C174.272 74.5078 171.408 77.3256 171.408 80.7584V117.772C180.985 129.736 197.011 133.293 210.554 127.105C208.206 124.186 208.087 121.36 208.087 121.36V80.7584C208.079 77.3179 205.207 74.5078 201.708 74.5078Z" fill="#030303"/>
<path fill-rule="evenodd" clip-rule="evenodd" d="M141.616 279.795C144.012 267.909 149.081 248.604 149.081 248.604C143.742 241.848 150.494 235.839 150.494 235.839L142.242 200.927C163.378 155.375 137.593 138.071 137.593 138.071C140.671 136.615 150.2 134.389 158.086 132.139C159.158 131.999 159.515 132.568 159.515 132.568C166.457 141.293 178.064 145.824 189.743 145.824C201.43 145.824 213.029 141.293 219.972 132.568C219.972 132.568 220.947 132.007 222.288 132.388C227.644 133.914 227.215 134 232.039 135.183C232.753 163.634 241.901 173.099 244.154 193.68C244.829 199.861 242.456 211.342 237.775 213.568L235.006 240.011C235.371 244.782 239.664 264.359 241.489 276.401C224.415 282.807 205.889 286.326 186.514 286.326C170.9 286.334 155.825 284.037 141.616 279.795Z" fill="#5D5D5D"/>
<path fill-rule="evenodd" clip-rule="evenodd" d="M146.765 135.2C147.788 134.928 148.843 134.64 149.922 134.359C154.445 140.026 161.458 152.185 163.267 174.541C163.331 175.358 162.712 176.074 161.879 176.136C161.046 176.199 160.316 175.591 160.252 174.774C158.356 151.43 150.835 139.855 146.765 135.2Z" fill="#808080"/>
<path fill-rule="evenodd" clip-rule="evenodd" d="M221.663 132.273C221.861 132.289 222.067 132.328 222.29 132.39C223.646 132.772 224.622 133.067 225.416 133.309C228.232 139.793 232.183 151.975 235.222 173.498C235.333 174.307 234.762 175.055 233.929 175.171C233.104 175.28 232.342 174.72 232.223 173.903C228.772 149.429 224.281 137.504 221.663 132.273Z" fill="#808080"/>
<path fill-rule="evenodd" clip-rule="evenodd" d="M141.616 279.795C144.012 267.909 149.082 248.604 149.082 248.604C143.742 241.848 150.494 235.838 150.494 235.838L143.171 206.648C143.036 206.096 143.052 205.87 143.322 205.504C143.322 205.504 148.987 201.153 154.207 187.64C159.42 174.126 179.874 180.424 198.328 184.098C216.775 187.772 229.215 179.505 233.087 178.197C236.895 176.905 241.187 179.093 242.076 182.331C242.965 185.826 243.703 189.531 244.163 193.688C244.837 199.868 242.465 211.35 237.784 213.576L235.015 240.018C235.38 244.79 239.672 264.367 241.497 276.409C224.423 282.815 205.897 286.334 186.522 286.334C170.9 286.334 155.826 284.037 141.616 279.795Z" fill="url(#paint0_linear_9165_9631)"/>
<path fill-rule="evenodd" clip-rule="evenodd" d="M247.7 129.573C244.352 124.692 243.892 117.858 248.914 115.554C248.637 110.323 251.096 106.306 255.095 103.504C255.246 103.356 255.412 103.208 255.579 103.052L253.873 96.3036C253.873 96.3036 246.463 97.5335 244.614 97.0665C242.765 96.5994 241.774 94.0385 242.147 93.1667C242.408 92.5517 244.892 91.8356 247.835 91.1584C247.502 90.4345 247.407 89.7184 247.573 89.3291C247.811 88.7843 249.779 88.1615 252.27 87.5544C252.128 86.6904 252.596 85.8497 254.19 85.3593C256.142 84.7521 259.379 84.1683 262.656 83.6312C268.241 82.7127 268.559 83.6079 270.05 87.9124C271.217 91.2752 275.12 101.27 275.327 102.679C275.533 104.088 275.533 105.971 274.644 108.26C273.756 110.541 270.423 115.927 269.138 118.309C264.679 126.576 252.151 136.049 247.7 129.573Z" fill="#2B2B2B"/>
<path fill-rule="evenodd" clip-rule="evenodd" d="M110.903 169.098C131.754 172.944 113.625 200.678 83.9119 171.722C80.1115 168.016 77.2314 160.435 77.2314 155.336C77.2314 151.125 80.8176 145.015 82.5155 140.998C83.2216 139.659 85.943 136.079 87.7281 134.312C90.9731 131.112 93.4247 138.569 92.3457 141.123C90.6954 145.007 87.6646 151.865 87.6646 151.865L87.4663 153.608L89.8385 155.873C91.2984 153.266 94.1546 147.996 95.3368 146.283C96.9077 144.018 98.7484 141.963 100.557 139.862C102.604 137.48 106.77 139.145 105.349 144.096C103.921 149.093 100.288 155.866 98.0344 160.777C97.9867 160.886 97.8519 160.995 97.8836 161.112C97.9947 161.486 98.1058 161.867 98.2168 162.241L101.549 164.249L108.079 156.286C112.435 150.144 117.417 152.402 114.585 159.618C113.164 163.292 111.736 165.674 110.903 169.098Z" fill="#2B2B2B"/>
<path fill-rule="evenodd" clip-rule="evenodd" d="M165.568 130.086C166.917 130.989 168.496 132.398 170.21 134.593C172.725 137.815 175.565 141.163 178.755 143.864C181.904 146.526 185.387 148.557 189.228 149.188C193.06 149.811 196.551 149.336 199.716 147.655C202.914 145.958 205.81 143.031 208.444 138.765C211.506 133.799 213.172 131.363 214.045 130.172C214.378 130.382 214.735 130.584 215.108 130.779C214.362 131.791 212.768 134.118 209.515 139.396C206.77 143.848 203.715 146.931 200.311 148.729C196.884 150.542 193.131 151.064 189.021 150.395C184.927 149.725 181.238 147.584 177.937 144.79C174.669 142.027 171.773 138.609 169.218 135.34C167.346 132.943 165.703 131.557 164.402 130.763C164.815 130.545 165.203 130.319 165.568 130.086Z" fill="black"/>
<path fill-rule="evenodd" clip-rule="evenodd" d="M192.164 151.875C193.346 151.875 194.314 150.926 194.314 149.766C194.314 148.606 193.346 147.656 192.164 147.656C190.982 147.656 190.014 148.606 190.014 149.766C190.006 150.926 190.974 151.875 192.164 151.875Z" fill="black"/>
<path fill-rule="evenodd" clip-rule="evenodd" d="M188.902 151.429C189.846 151.429 190.615 150.674 190.615 149.748C190.615 148.821 189.846 148.074 188.902 148.074C187.958 148.074 187.188 148.829 187.188 149.748C187.196 150.674 187.966 151.429 188.902 151.429Z" fill="black"/>
<path fill-rule="evenodd" clip-rule="evenodd" d="M186.443 150.611C187.189 150.611 187.8 150.012 187.8 149.28C187.8 148.549 187.189 147.949 186.443 147.949C185.697 147.949 185.086 148.549 185.086 149.28C185.078 150.012 185.689 150.611 186.443 150.611Z" fill="black"/>
<path d="M195.607 151.46C196.554 151.46 197.321 150.708 197.321 149.779C197.321 148.85 196.554 148.098 195.607 148.098C194.661 148.098 193.894 148.85 193.894 149.779C193.894 150.708 194.661 151.46 195.607 151.46Z" fill="black"/>
<path fill-rule="evenodd" clip-rule="evenodd" d="M198.296 150.506C199.042 150.506 199.653 149.907 199.653 149.175C199.653 148.443 199.042 147.844 198.296 147.844C197.55 147.844 196.94 148.443 196.94 149.175C196.932 149.907 197.543 150.506 198.296 150.506Z" fill="black"/>
<path fill-rule="evenodd" clip-rule="evenodd" d="M186.72 148.339C187.045 148.339 187.307 148.596 187.307 148.915C187.307 149.235 187.045 149.491 186.72 149.491C186.394 149.491 186.133 149.235 186.133 148.915C186.141 148.596 186.402 148.339 186.72 148.339ZM198.581 148.23C198.906 148.23 199.168 148.487 199.168 148.806C199.168 149.126 198.906 149.383 198.581 149.383C198.256 149.383 197.994 149.126 197.994 148.806C197.994 148.487 198.256 148.23 198.581 148.23ZM195.963 148.596C196.367 148.596 196.701 148.923 196.701 149.32C196.701 149.717 196.375 150.044 195.963 150.044C195.558 150.044 195.225 149.717 195.225 149.32C195.225 148.923 195.558 148.596 195.963 148.596ZM192.615 148.277C193.13 148.277 193.543 148.682 193.543 149.188C193.543 149.694 193.13 150.099 192.615 150.099C192.099 150.099 191.686 149.694 191.686 149.188C191.686 148.69 192.099 148.277 192.615 148.277ZM189.266 148.573C189.671 148.573 190.004 148.9 190.004 149.297C190.004 149.694 189.671 150.021 189.266 150.021C188.862 150.021 188.529 149.694 188.529 149.297C188.529 148.892 188.854 148.573 189.266 148.573Z" fill="#4B4B4B"/>
<path d="M109.714 173.886C109.682 173.886 109.651 173.878 109.619 173.87C109.42 173.816 109.294 173.613 109.349 173.419L110.547 169.005C110.603 168.803 110.801 168.686 111.007 168.741C111.206 168.795 111.333 168.997 111.277 169.2L110.079 173.613C110.031 173.777 109.881 173.886 109.714 173.886ZM99.138 167.705C99.0587 167.705 98.9794 167.682 98.908 167.627C98.7413 167.503 98.7096 167.269 98.8366 167.106L101.256 164.039C101.383 163.876 101.621 163.844 101.788 163.969C101.955 164.093 101.986 164.327 101.859 164.49L99.4395 167.557C99.3681 167.659 99.2571 167.705 99.138 167.705ZM87.967 159.999L87.3005 159.641L89.53 155.694C89.6331 155.515 89.8632 155.445 90.0457 155.547C90.2282 155.648 90.2917 155.874 90.1964 156.053L87.967 159.999Z" fill="#4B4B4B"/>
<path fill-rule="evenodd" clip-rule="evenodd" d="M89.8471 155.882L87.9192 154.045L87.5066 153.656C87.7446 153.936 89.2759 155.921 87.8001 159.518L89.8471 155.882ZM101.558 164.266L98.4951 162.421C98.9553 162.74 99.8439 163.573 99.7487 165.177C99.717 165.784 99.5345 166.5 99.1457 167.341L100.376 165.776L101.558 164.266Z" fill="#4B4B4B"/>
<path d="M251.097 121.018C250.994 121.018 250.898 120.979 250.827 120.901C248.812 118.862 248.558 115.709 248.55 115.577V115.569C248.185 108.758 252.35 103.41 259.943 100.546L257.626 93.9604C256.413 93.976 251.636 94.0227 249.962 93.5946C249.764 93.5401 249.637 93.3377 249.692 93.1431C249.748 92.9407 249.954 92.8239 250.153 92.8784C251.93 93.3299 257.825 93.2131 257.88 93.2131C258.055 93.2054 258.19 93.3143 258.245 93.4622L260.649 100.289C262.252 99.7284 264.005 99.2769 265.886 98.9422L262.228 89.7882C260.99 90.1229 256.706 91.2049 255.032 90.7767C253.771 90.4576 252.176 89.0565 251.922 87.6631C251.89 87.4607 252.025 87.2661 252.231 87.235C252.438 87.2039 252.636 87.3362 252.668 87.5386C252.866 88.6283 254.223 89.8037 255.222 90.0606C256.658 90.4187 260.856 89.4068 262.355 88.9864C262.545 88.9319 262.744 89.0331 262.815 89.2121L266.766 99.1057C266.806 99.2069 266.798 99.3314 266.743 99.4248C266.687 99.526 266.592 99.5883 266.473 99.6116C264.362 99.9619 262.419 100.46 260.665 101.091C260.633 101.114 260.594 101.137 260.554 101.153C260.514 101.168 260.483 101.176 260.443 101.176C253.033 103.908 248.963 109.03 249.304 115.546C249.312 115.662 249.581 118.589 251.374 120.411C251.517 120.559 251.517 120.792 251.367 120.932C251.287 120.979 251.192 121.018 251.097 121.018Z" fill="#4B4B4B"/>
<path fill-rule="evenodd" clip-rule="evenodd" d="M231.944 84.1978C231.944 84.1978 235.649 81.6447 237.57 82.2985C239.497 82.9602 240.862 87.9497 239.767 91.219C238.672 94.4883 232.095 105.191 226.684 99.2522C221.281 93.313 231.944 84.1978 231.944 84.1978Z" fill="#2B2B2B"/>
<path fill-rule="evenodd" clip-rule="evenodd" d="M228.858 87.1798C228.581 87.3588 228.414 87.7325 228.501 88.0205C228.573 88.2773 228.827 88.3785 229.073 88.2696C229.073 88.2696 228.311 98.9493 230.16 97.6961C232.008 96.4428 233.92 95.2596 235.174 92.7999C236.427 90.3401 234.793 87.4289 235.761 86.9385C236.681 86.4714 237.252 87.678 237.308 87.7869V87.7947C237.736 88.83 237.784 89.9354 237.784 89.9431C237.8 90.2623 238.054 90.4335 238.347 90.3323C238.641 90.2311 238.863 89.8809 238.847 89.5617C238.847 89.5461 238.681 85.3895 235.912 84.8679C233.254 84.3698 228.866 87.172 228.858 87.1798Z" fill="#4B4B4B"/>
<path fill-rule="evenodd" clip-rule="evenodd" d="M164.038 73.8316C164.038 73.8316 161.595 70.0952 159.556 69.994C157.516 69.8928 154.335 74.0028 154.089 77.4356C153.843 80.8683 155.819 93.2138 163.11 89.7188C170.401 86.2238 164.038 73.8316 164.038 73.8316Z" fill="#2B2B2B"/>
<path fill-rule="evenodd" clip-rule="evenodd" d="M165.744 77.7392C165.934 78.0039 165.942 78.4164 165.752 78.6499C165.585 78.8601 165.315 78.8601 165.125 78.6655C165.125 78.6655 161.721 88.8392 160.492 86.9866C159.262 85.134 157.945 83.3359 157.731 80.5959C157.516 77.856 160.15 75.762 159.444 74.9525C158.77 74.1819 157.778 75.0848 157.683 75.1705C156.89 75.9722 156.421 76.9764 156.421 76.9841C156.287 77.2722 155.985 77.3422 155.755 77.1398C155.525 76.9374 155.454 76.5327 155.588 76.2369C155.596 76.2291 157.35 72.4305 160.119 72.9753C162.753 73.5047 165.736 77.7236 165.744 77.7392Z" fill="#4B4B4B"/>
<path fill-rule="evenodd" clip-rule="evenodd" d="M206.055 22.8441C160.704 16.6947 161.585 54.4784 160.918 84.7273C159.887 131.829 216.655 140.407 230.111 95.1812C238.759 66.1389 251.191 30.3712 206.055 22.8441Z" fill="#484848"/>
<path fill-rule="evenodd" clip-rule="evenodd" d="M187.22 63.0675C187.22 63.0675 172.812 75.2029 163.966 73.7239C155.119 72.2449 173.867 58.0312 173.867 58.0312L187.22 63.0675ZM233.317 84.3958C233.951 82.1929 234.562 79.9667 235.133 77.7482C232.222 72.494 226.351 66.0488 226.351 66.0488C225.557 65.9243 221.098 62.5382 221.098 62.5382C221.098 62.5382 216.187 80.2703 231.143 83.9988C231.976 84.2168 232.69 84.3413 233.317 84.3958Z" fill="#4B4B4B"/>
<path fill-rule="evenodd" clip-rule="evenodd" d="M231.04 92.1089C232.222 88.1702 233.523 83.7878 234.61 79.74C241.933 52.5893 243.782 27.7737 206.262 21.5154C174.28 17.9269 163.125 35.8302 161.578 62.9732C161.538 63.6738 161.403 67.9628 161.371 68.6633C161.173 72.8434 161.07 77.4126 160.983 81.5148C160.983 81.5148 166.1 77.8018 166.497 68.9903C166.497 68.9903 176.819 64.3121 175.319 48.6739C173.82 33.0357 193.758 34.9195 203.906 36.4529C214.061 37.9864 233.65 42.073 227.422 56.5436C221.194 71.0141 229.604 78.5257 229.604 78.5257C227.303 87.0571 231.04 92.1089 231.04 92.1089Z" fill="black"/>
<path fill-rule="evenodd" clip-rule="evenodd" d="M196.209 86.9015C196.185 86.9716 196.154 87.0339 196.106 87.0961L195.852 87.4386L195.844 87.4464C194.543 89.1901 190.394 94.7556 190.322 95.4095C190.306 95.8843 191.909 97.4723 192.258 97.7914C193.075 98.5153 195.289 97.9315 196.082 97.7214C199.526 96.8262 193.694 100.368 192.401 99.8542C191.369 99.4494 190.751 98.8812 190.036 98.0794C189.433 97.4022 188.64 96.1957 188.672 95.3005C188.704 94.3742 192.972 88.4895 194.432 86.5902C195.812 84.7064 195.963 83.3987 195.789 82.6047C195.67 82.0599 195.757 81.2815 196.368 82.3479C196.876 83.2275 197.415 84.8777 196.209 86.9015Z" fill="#1B1A1A"/>
<path fill-rule="evenodd" clip-rule="evenodd" d="M233.015 97.3087C233.483 97.4176 233.769 97.8769 233.658 98.3361C233.547 98.7954 233.079 99.0756 232.611 98.9666C232.143 98.8577 231.857 98.3984 231.968 97.9392C232.079 97.4799 232.555 97.1997 233.015 97.3087Z" fill="#5D5D5D"/>
<path fill-rule="evenodd" clip-rule="evenodd" d="M157.532 84.5583C158.008 84.6284 158.333 85.0643 158.262 85.5314C158.19 85.9984 157.746 86.3175 157.27 86.2475C156.794 86.1774 156.469 85.7415 156.54 85.2745C156.612 84.8074 157.056 84.4805 157.532 84.5583Z" fill="#5D5D5D"/>
<path fill-rule="evenodd" clip-rule="evenodd" d="M216.332 91.9217C216.038 91.9373 215.784 91.7193 215.768 91.4235C215.752 91.1355 215.983 90.8864 216.276 90.8709C216.276 90.8709 217.006 90.8164 217.189 90.1469C217.268 89.8667 217.561 89.7033 217.847 89.7811C218.133 89.859 218.299 90.147 218.22 90.4272C217.831 91.7972 216.332 91.9217 216.332 91.9217Z" fill="black"/>
<path fill-rule="evenodd" clip-rule="evenodd" d="M217.481 92.1403C217.195 92.0858 216.909 92.0158 216.965 91.7356C217.021 91.4553 217.298 91.2685 217.592 91.323C217.592 91.323 218.338 91.4865 218.718 90.9027C218.877 90.6613 219.21 90.5913 219.456 90.747C219.702 90.9027 219.774 91.2296 219.615 91.4709C219.147 92.187 218.441 92.3661 217.957 92.3816C217.631 92.3972 217.481 92.1403 217.481 92.1403Z" fill="black"/>
<path fill-rule="evenodd" clip-rule="evenodd" d="M236.943 79.0156C236.943 79.0156 234.991 98.8338 234.745 102.64C234.396 108.151 234.222 116.76 235.483 125.852C237.617 141.218 232.325 143.133 230.112 144.472C230.112 144.472 226.724 153.82 219.758 154.365C219.758 154.365 218.965 154.435 219.099 153.618C219.234 152.801 221.226 150.029 220.456 144.106C218.338 127.713 228.406 110.728 229.207 86.9631L236.943 79.0156Z" fill="black"/>
<path fill-rule="evenodd" clip-rule="evenodd" d="M159.388 65.2695C159.388 65.2695 156.793 93.4711 151.335 109.39C145.876 125.308 146.154 128.943 148.415 131.154C148.415 131.154 147.614 142.884 156.182 144.97C156.182 144.97 157.15 145.219 157.309 144.114C157.46 143.009 156.047 138.946 159.348 131.247C168.488 109.934 155.857 104.416 164.219 72.7656L159.388 65.2695Z" fill="black"/>
<path fill-rule="evenodd" clip-rule="evenodd" d="M221.098 62.5446C205.96 74.4387 179.072 75.8943 190.473 60.8399C186.324 64.2571 163.569 77.1397 162.419 65.7439C161.697 58.6137 172.55 42.4696 172.55 42.4696L189.053 36.2812L217.243 37.8614L225.121 43.9797L233.015 50.9931C233.015 50.9931 234.237 58.7305 233.483 59.0652C232.73 59.3999 230.461 67.0672 230.461 67.0672L230.143 72.4537L231.325 80.7671C231.333 80.7671 221.217 79.6384 221.098 62.5446Z" fill="black"/>
<path fill-rule="evenodd" clip-rule="evenodd" d="M181.556 37.8906C180.294 44.1879 181.318 56.1287 208.111 54.2838L208.777 54.2371C209.261 54.206 209.523 54.1749 209.484 54.3305C209.468 54.3772 209.412 54.4084 209.357 54.3928C209.206 54.4317 208.912 54.4784 208.452 54.5485L208.103 54.603C206.072 54.8988 202.121 55.4125 197.797 55.5526C195.012 55.646 192.068 55.5838 189.387 55.2179C186.11 54.7742 183.579 53.8791 181.619 52.836C179.652 51.7929 178.255 50.5942 177.248 49.5433C177.049 49.3332 176.899 49.1775 176.756 49.0218C175.169 47.356 174.36 46.4998 172.464 46.492C174.931 43.3706 177.978 40.4049 181.556 37.8906ZM212.189 53.9569C212.221 53.9491 222.043 51.6295 226.962 54.6185C227.01 54.6497 227.026 54.712 226.994 54.7587C226.962 54.8054 226.907 54.8209 226.859 54.7976C226.851 54.7976 224.836 53.8324 223.217 54.8131C221.829 55.6538 220.782 55.3035 219.409 54.8365C219.084 54.7275 218.75 54.6108 218.386 54.5096C217.402 54.2216 216.346 54.0347 215.267 53.9725C214.268 53.918 213.244 53.9725 212.245 54.1593H212.237H212.229C212.173 54.1671 212.118 54.1359 212.11 54.0815C212.102 54.0192 212.134 53.9647 212.189 53.9569Z" fill="#141414"/>
<path fill-rule="evenodd" clip-rule="evenodd" d="M203.018 41.3808C231.699 46.1602 237.372 61.7905 235.19 81.0093C239.99 57.9063 237.372 38.1348 204.454 32.647C172.004 28.2491 163.158 45.5608 160.46 68.3603C164.475 50.0911 174.868 37.5666 203.018 41.3808Z" fill="#808080"/>
<path fill-rule="evenodd" clip-rule="evenodd" d="M181.31 34.0547C177.327 35.4636 174.082 37.5497 171.432 40.1729C172.321 40.7567 173.035 41.7064 173.281 42.9986C173.765 45.4817 172.797 46.5092 172.797 46.5092C175.201 44.7344 178.01 43.3177 181.271 42.3291C180.16 36.0318 181.294 34.078 181.31 34.0547Z" fill="#5D5D5D"/>
<path fill-rule="evenodd" clip-rule="evenodd" d="M207.762 79.98C207.706 80.4704 207.801 80.7351 207.881 80.8596C208.055 80.2058 208.603 79.8166 209.372 79.6142C214.371 78.6334 221.448 81.3422 224.304 84.4559C224.328 84.487 224.336 84.5259 224.32 84.5648C224.296 84.6115 224.248 84.6271 224.209 84.596C221.924 83.2182 219.48 82.541 217.227 82.2608C213.617 81.8171 210.507 82.3931 209.404 82.7589C209.015 82.8913 208.555 83.0158 208.126 82.9458C207.69 82.8757 207.293 82.611 207.063 81.965C206.984 81.7548 206.936 81.5446 206.921 81.3578C206.873 80.9063 206.952 80.5171 207.071 80.2447C207.19 79.9567 207.357 79.7699 207.452 79.731C207.468 79.7232 207.476 79.7232 207.484 79.7232C207.746 79.6842 207.754 79.9645 207.754 79.9645L207.762 79.98Z" fill="#191919"/>
<path d="M222.224 94.8167C222.168 94.8167 222.12 94.8089 222.065 94.7855C221.549 94.552 221.303 94.2251 221.279 94.1862C221.16 94.0149 221.2 93.7892 221.375 93.6724C221.541 93.5557 221.779 93.5946 221.898 93.7658C221.906 93.7736 222.057 93.9682 222.374 94.1161C222.565 94.2017 222.652 94.4197 222.565 94.6065C222.501 94.7388 222.366 94.8167 222.224 94.8167Z" fill="#3C3C3C"/>
<path d="M220.621 95.6893C220.526 95.6893 220.422 95.6503 220.351 95.5803C220.018 95.2456 219.93 94.9186 219.923 94.8797C219.875 94.6851 219.994 94.4827 220.2 94.4282C220.399 94.3815 220.605 94.4983 220.66 94.6929C220.66 94.7007 220.716 94.8719 220.898 95.051C221.049 95.1989 221.041 95.4324 220.891 95.5803C220.811 95.6503 220.716 95.6893 220.621 95.6893Z" fill="#3C3C3C"/>
<path fill-rule="evenodd" clip-rule="evenodd" d="M206.221 89.7168L204.357 90.9856C205.357 82.1663 224.47 82.1818 221.161 90.97C221.161 90.97 219.876 92.4412 218.511 92.1454C217.139 91.8496 207.618 89.1719 207.618 89.1719L206.221 89.7168Z" fill="#3C3C3C"/>
<path fill-rule="evenodd" clip-rule="evenodd" d="M213.187 91.8662C210.093 90.504 206.681 89.4609 204.111 91.0956C204.079 91.1189 204.039 91.1267 204 91.1111C203.952 91.0878 203.936 91.0333 203.96 90.9866C205.967 87.149 211.735 87.8496 215.718 89.6633C216.662 90.0914 217.535 90.5429 218.281 90.9243L218.677 91.1267C220.756 92.1853 221.081 91.7338 221.081 91.7338C221.105 91.6949 221.153 91.6794 221.2 91.6949C221.248 91.7105 221.272 91.765 221.256 91.8117C221.2 91.944 220.939 92.4422 220.082 92.8314C219.606 93.0494 218.947 93.2284 218.027 93.2984C216.662 93.3996 214.988 92.6602 213.187 91.8662Z" fill="#191919"/>
<path fill-rule="evenodd" clip-rule="evenodd" d="M187.149 76.7192C187.038 77.2018 186.871 77.4198 186.752 77.521C186.8 76.8438 186.403 76.3067 185.729 75.8786C181.302 73.4032 173.709 73.7924 170.004 75.8708C169.972 75.8863 169.948 75.9253 169.956 75.972C169.964 76.0187 170.004 76.0498 170.051 76.042C172.662 75.4427 175.2 75.5516 177.43 75.9798C181 76.6725 183.761 78.1749 184.697 78.8676C185.023 79.1089 185.427 79.3736 185.848 79.4437C186.284 79.5137 186.744 79.3892 187.173 78.8443C187.316 78.6653 187.427 78.4862 187.506 78.3072C187.697 77.8946 187.744 77.5054 187.72 77.2019C187.697 76.8905 187.601 76.6648 187.522 76.5947C187.514 76.5869 187.498 76.5791 187.49 76.5713C187.252 76.4546 187.157 76.7192 187.157 76.7192H187.149Z" fill="#191919"/>
<path d="M168.783 86.3636C168.593 86.3636 168.426 86.2235 168.41 86.0289C168.387 85.8265 168.537 85.6397 168.744 85.6163C169.101 85.5774 169.307 85.4373 169.307 85.4373C169.474 85.3206 169.712 85.3517 169.831 85.5151C169.95 85.6786 169.918 85.9044 169.751 86.0289C169.712 86.0522 169.378 86.2936 168.815 86.3558C168.807 86.3636 168.799 86.3636 168.783 86.3636Z" fill="#3C3C3C"/>
<path d="M170.02 87.6777C169.885 87.6777 169.75 87.6077 169.679 87.4753C169.583 87.2885 169.655 87.0706 169.845 86.9771C170.083 86.8604 170.186 86.7047 170.186 86.7047C170.305 86.5334 170.536 86.4868 170.71 86.6035C170.885 86.7125 170.932 86.9382 170.821 87.1095C170.797 87.1406 170.607 87.4286 170.186 87.6388C170.139 87.6699 170.083 87.6777 170.02 87.6777Z" fill="#3C3C3C"/>
<path fill-rule="evenodd" clip-rule="evenodd" d="M185.491 86.4328L186.856 88.2154C188.736 79.5362 170.583 73.6514 170.909 83.0156C170.909 83.0156 171.654 84.806 173.051 84.9461C174.447 85.0862 184.349 85.4832 184.349 85.4832L185.491 86.4328Z" fill="#3C3C3C"/>
<path fill-rule="evenodd" clip-rule="evenodd" d="M178.184 86.324C181.556 85.9815 185.126 86.0438 187.046 88.3946C187.07 88.4257 187.102 88.4491 187.149 88.4491C187.205 88.4413 187.237 88.3946 187.229 88.3401C186.554 84.0744 180.85 82.9691 176.494 83.4595C175.463 83.5762 174.495 83.7319 173.662 83.8642L173.225 83.9343C170.909 84.3002 170.75 83.7708 170.75 83.7631C170.734 83.7241 170.694 83.693 170.655 83.6852C170.599 83.6852 170.559 83.7241 170.567 83.7786C170.575 83.9187 170.663 84.4714 171.353 85.1097C171.734 85.46 172.305 85.8414 173.154 86.1917C174.392 86.7132 176.224 86.5264 178.184 86.324Z" fill="#191919"/>
<path fill-rule="evenodd" clip-rule="evenodd" d="M195.424 109.086C195.924 109.055 196.329 108.588 196.321 108.035C196.313 107.483 195.908 107.062 195.409 107.094C195.401 107.094 192.568 107.693 189.339 106.751C188.197 106.424 187.855 107.864 188.99 108.199C192.481 109.219 195.416 109.086 195.424 109.086Z" fill="#1B1A1A"/>
<path fill-rule="evenodd" clip-rule="evenodd" d="M202.168 104.564C202.7 104.424 203.025 103.879 202.906 103.342C202.787 102.805 202.247 102.486 201.716 102.626C201.692 102.633 193.528 104.899 183.769 101.287C182.563 100.843 182.214 102.065 183.428 102.517C192.243 106.541 202.144 104.572 202.168 104.564Z" fill="#1B1A1A"/>
<path d="M176.726 96.8788C175.869 96.8788 175.005 96.8088 174.156 96.6764C169.99 96.007 166.341 93.7886 163.873 90.4259C161.414 87.0631 160.43 82.961 161.104 78.8743C162.358 71.3394 168.911 65.8672 176.679 65.8672C177.536 65.8672 178.392 65.9372 179.241 66.0696C187.842 67.4473 193.689 75.4338 192.285 83.8639C191.047 91.4144 184.494 96.8788 176.726 96.8788ZM176.687 66.918C169.443 66.918 163.334 72.0166 162.159 79.0456C161.525 82.8598 162.437 86.6817 164.738 89.8187C167.039 92.9557 170.443 95.0262 174.33 95.649C175.124 95.7735 175.925 95.8436 176.726 95.8436C183.97 95.8436 190.087 90.745 191.253 83.716C192.562 75.8463 187.104 68.397 179.083 67.1126C178.289 66.9803 177.488 66.918 176.687 66.918Z" fill="#5D5D5D"/>
<path d="M214.903 103.752C214.007 103.752 213.102 103.682 212.214 103.534C203.201 102.094 197.068 93.7265 198.543 84.8838C199.86 76.9907 206.723 71.2539 214.864 71.2539C215.76 71.2539 216.665 71.324 217.553 71.4719C221.917 72.1724 225.741 74.4921 228.328 78.0182C230.906 81.5444 231.938 85.8412 231.223 90.1224C229.906 98.0155 223.044 103.752 214.903 103.752ZM214.856 72.297C207.239 72.297 200.813 77.6602 199.583 85.055C198.202 93.3295 203.946 101.16 212.38 102.515C213.213 102.647 214.062 102.717 214.895 102.717C222.512 102.717 228.938 97.3538 230.168 89.959C230.835 85.9502 229.875 81.9258 227.455 78.6332C225.035 75.3327 221.457 73.161 217.371 72.5071C216.546 72.367 215.697 72.297 214.856 72.297Z" fill="#5D5D5D"/>
<path d="M200.226 81.6215C200.138 81.6215 200.059 81.5982 199.98 81.5592C198.766 80.9287 197.457 80.4928 196.084 80.2749C194.72 80.0569 193.331 80.0569 191.974 80.2749C191.689 80.3216 191.411 80.127 191.364 79.8468C191.316 79.5665 191.514 79.2941 191.8 79.2474C193.276 79.0061 194.767 79.0061 196.251 79.2474C197.734 79.4887 199.155 79.9557 200.472 80.6407C200.734 80.7731 200.829 81.0922 200.694 81.3413C200.599 81.5203 200.416 81.6215 200.226 81.6215Z" fill="#5D5D5D"/>
<path d="M203.106 92.84C202.963 92.84 202.82 92.7544 202.757 92.6143C201.765 90.3491 201.447 87.8582 201.86 85.414C202.13 83.7794 202.709 82.2381 203.574 80.8292C203.677 80.6502 203.915 80.5957 204.097 80.7047C204.28 80.8136 204.335 81.0394 204.224 81.2184C203.415 82.5417 202.868 83.9973 202.614 85.5386C202.233 87.8426 202.519 90.1856 203.463 92.3262C203.542 92.5131 203.455 92.731 203.264 92.8166C203.209 92.8322 203.153 92.84 203.106 92.84ZM204.732 80.1909C204.653 80.1909 204.566 80.1676 204.502 80.1131C204.335 79.9885 204.304 79.755 204.439 79.5915C204.724 79.2335 205.026 78.8832 205.351 78.5485C205.494 78.4006 205.74 78.3928 205.883 78.5407C206.033 78.6808 206.041 78.9221 205.89 79.07C205.581 79.3814 205.295 79.7161 205.026 80.0508C204.962 80.1364 204.851 80.1909 204.732 80.1909Z" fill="#5D5D5D"/>
<path d="M164.61 83.4276C164.427 83.4276 164.261 83.2953 164.237 83.1085C164.189 82.7815 164.157 82.4546 164.134 82.1199C164.118 81.9175 164.276 81.7385 164.491 81.7307C164.689 81.7073 164.879 81.8708 164.887 82.081C164.903 82.3923 164.935 82.7037 164.983 83.0073C165.014 83.2097 164.864 83.3965 164.657 83.4276C164.649 83.4276 164.633 83.4276 164.61 83.4276ZM164.514 81.0613C164.507 81.0613 164.499 81.0613 164.491 81.0613C164.284 81.0457 164.126 80.8744 164.134 80.6721C164.157 80.2517 164.205 79.8236 164.276 79.3955C164.792 76.2896 166.482 73.5185 169.021 71.6036C169.188 71.4791 169.426 71.5102 169.553 71.6737C169.68 71.8372 169.648 72.0707 169.481 72.1952C167.093 74.0011 165.514 76.601 165.022 79.52C164.959 79.917 164.911 80.3218 164.887 80.7188C164.879 80.9056 164.713 81.0613 164.514 81.0613Z" fill="#5D5D5D"/>
<path fill-rule="evenodd" clip-rule="evenodd" d="M245.616 94.6603C246.465 94.7927 247.266 94.2244 247.401 93.3915L248.282 88.0205C248.416 87.1876 247.837 86.4015 246.988 86.2691C246.139 86.1368 245.338 86.705 245.203 87.5379L244.322 92.9089C244.188 93.7418 244.767 94.528 245.616 94.6603Z" fill="#5D5D5D"/>
<path fill-rule="evenodd" clip-rule="evenodd" d="M240.704 77.2109C240.704 77.2109 241.91 77.8414 242.465 78.4252C243.02 79.0091 245.623 82.6286 245.988 83.2124C246.353 83.7962 247.17 85.1351 246.884 86.8709C246.599 88.599 246.289 90.475 246.289 90.475C246.289 90.475 245.98 92.3509 245.694 94.079C245.409 95.807 244.203 96.8267 243.671 97.2704C243.139 97.7141 239.506 100.353 238.792 100.727C238.078 101.108 236.729 101.334 236.729 101.334L237.998 89.1595L240.704 77.2109Z" fill="#808080"/>
<path fill-rule="evenodd" clip-rule="evenodd" d="M238.38 75.9331L239.951 76.1822C240.451 76.2601 240.784 76.7193 240.704 77.2097L236.738 101.332C236.658 101.823 236.19 102.15 235.69 102.072L234.111 101.823C233.611 101.745 233.278 101.286 233.358 100.795L237.325 76.6726C237.412 76.19 237.88 75.8553 238.38 75.9331Z" fill="#AEADAC"/>
<path fill-rule="evenodd" clip-rule="evenodd" d="M236.958 73.7691L238.537 74.0182C239.037 74.096 239.37 74.5552 239.291 75.0456L234.705 102.944C234.626 103.434 234.158 103.761 233.658 103.683L232.079 103.434C231.587 103.356 231.246 102.897 231.325 102.407L235.911 74.5085C235.998 74.0259 236.466 73.6912 236.958 73.7691Z" fill="#808080"/>
<path fill-rule="evenodd" clip-rule="evenodd" d="M145.917 79.1135C145.068 78.9811 144.488 78.1872 144.623 77.362L145.504 71.9911C145.639 71.1582 146.448 70.5899 147.289 70.7223C148.138 70.8546 148.717 71.6486 148.582 72.4737L147.702 77.8447C147.567 78.6776 146.765 79.2458 145.917 79.1135Z" fill="#5D5D5D"/>
<path fill-rule="evenodd" clip-rule="evenodd" d="M156.167 64.0547C156.167 64.0547 154.818 64.2804 154.104 64.6618C153.39 65.0433 149.756 67.6743 149.225 68.118C148.693 68.5617 147.479 69.5814 147.201 71.3094C146.916 73.0375 146.606 74.9134 146.606 74.9134C146.606 74.9134 146.297 76.7894 146.011 78.5175C145.726 80.2455 146.543 81.5844 146.908 82.1682C147.273 82.752 149.875 86.3793 150.431 86.9554C150.986 87.5392 152.192 88.1697 152.192 88.1697L154.889 76.2211L156.167 64.0547Z" fill="#808080"/>
<path fill-rule="evenodd" clip-rule="evenodd" d="M158.793 63.565L157.214 63.3159C156.723 63.2381 156.247 63.5728 156.167 64.0554L152.2 88.1782C152.121 88.6608 152.462 89.1278 152.954 89.2057L154.533 89.4548C155.025 89.5326 155.501 89.1979 155.58 88.7153L159.547 64.5925C159.626 64.1021 159.285 63.6429 158.793 63.565Z" fill="#AEADAC"/>
<path fill-rule="evenodd" clip-rule="evenodd" d="M160.825 61.9439L159.246 61.6948C158.754 61.617 158.278 61.9517 158.199 62.4343L153.613 90.3324C153.534 90.815 153.875 91.282 154.367 91.3599L155.946 91.6089C156.438 91.6868 156.914 91.3521 156.993 90.8695L161.579 62.9714C161.666 62.4888 161.325 62.0218 160.825 61.9439Z" fill="#808080"/>
<path fill-rule="evenodd" clip-rule="evenodd" d="M267.925 120.309C267.084 123.827 268.068 132.895 269.377 137.005C274.478 153.064 284.166 175.365 287.926 188.544C291.481 200.99 278.064 232.049 261.094 209.561C253.437 199.41 255.532 139.177 248.153 130.155L267.925 120.309Z" fill="#2B2B2B"/>
<path d="M142.242 201.302C142.187 201.302 142.139 201.295 142.084 201.271C141.893 201.186 141.806 200.968 141.893 200.781C148.598 186.334 151.255 173.249 149.796 161.907C149.772 161.705 149.915 161.518 150.121 161.495C150.335 161.471 150.518 161.611 150.541 161.814C152.025 173.295 149.343 186.513 142.576 201.092C142.52 201.217 142.385 201.302 142.242 201.302Z" fill="#BFE1FF"/>
<path d="M244.154 194.057C243.964 194.057 243.797 193.917 243.774 193.722C242.837 185.144 240.711 178.559 238.458 171.592C237.204 167.716 235.911 163.707 234.8 159.247C234.753 159.044 234.872 158.842 235.078 158.795C235.276 158.749 235.483 158.865 235.538 159.068C236.641 163.505 237.934 167.506 239.18 171.367C241.441 178.372 243.575 184.997 244.527 193.645C244.551 193.847 244.4 194.034 244.194 194.057C244.178 194.057 244.17 194.057 244.154 194.057Z" fill="#BFE1FF"/>
<path d="M189.743 155.719C177.303 155.719 165.894 150.706 159.213 142.315C159.086 142.152 159.11 141.918 159.277 141.793C159.443 141.669 159.681 141.692 159.808 141.856C166.346 150.068 177.533 154.972 189.743 154.972C201.954 154.972 213.141 150.068 219.67 141.856C219.797 141.692 220.035 141.661 220.202 141.793C220.368 141.918 220.4 142.152 220.265 142.315C213.593 150.698 202.184 155.711 189.743 155.719Z" fill="#BFE1FF"/>
<path d="M192.551 257.643C165.528 257.643 149.105 249.05 148.899 248.933C148.716 248.832 148.645 248.606 148.748 248.427C148.851 248.248 149.081 248.178 149.264 248.279C149.525 248.419 175.668 262.08 216.353 254.716C216.56 254.678 216.758 254.81 216.798 255.012C216.837 255.215 216.702 255.409 216.496 255.448C207.824 257.021 199.803 257.643 192.551 257.643ZM207.547 226.546H201.787C194.098 226.546 187.847 220.412 187.847 212.869V201.715C187.847 200.321 188.997 199.193 190.417 199.193H218.924C220.344 199.193 221.495 200.321 221.495 201.715V212.869C221.487 220.412 215.235 226.546 207.547 226.546ZM188.6 205.373V212.869C188.6 220 194.519 225.806 201.787 225.806H207.547C214.814 225.806 220.733 220 220.733 212.869V205.373H188.6ZM188.6 204.626H220.733V201.715C220.733 200.734 219.916 199.94 218.916 199.94H190.409C189.409 199.94 188.592 200.734 188.592 201.715V204.626H188.6ZM227.667 215.36C227.477 215.36 227.31 215.22 227.294 215.026C227.27 214.823 227.421 214.636 227.627 214.613C233.626 213.967 237.672 213.204 237.712 213.196C237.918 213.157 238.116 213.29 238.156 213.492C238.196 213.694 238.061 213.889 237.854 213.928C237.815 213.936 233.737 214.706 227.707 215.353C227.691 215.36 227.675 215.36 227.667 215.36ZM143.868 209.787C143.765 209.787 143.67 209.748 143.591 209.67C143.448 209.522 143.448 209.289 143.599 209.149L143.987 208.791C145.836 207.117 150.16 203.186 154.516 191.899C159.046 180.153 177.175 183.827 194.709 187.384C195.947 187.633 197.177 187.883 198.399 188.132C213.64 191.167 224.866 185.929 230.269 183.415C231.404 182.885 232.293 182.473 232.959 182.247C234.943 181.577 237.18 181.764 239.1 182.761C240.79 183.64 242.004 185.049 242.432 186.629C242.488 186.824 242.369 187.034 242.163 187.089C241.956 187.143 241.75 187.026 241.702 186.824C241.322 185.446 240.25 184.201 238.743 183.415C237.013 182.512 234.99 182.34 233.205 182.948C232.578 183.158 231.698 183.57 230.587 184.084C225.112 186.637 213.727 191.946 198.24 188.863C197.018 188.622 195.78 188.373 194.551 188.116C177.326 184.629 159.522 181.017 155.222 192.172C150.803 203.622 146.384 207.631 144.503 209.343L144.122 209.693C144.051 209.756 143.956 209.787 143.868 209.787Z" fill="#353332"/>
<path d="M130.571 216.241C130.42 216.241 130.277 216.156 130.222 216.016C129.73 214.863 129.23 213.696 128.73 212.521C126.294 206.823 123.779 200.93 121.875 195.45C121.812 195.255 121.915 195.045 122.113 194.975C122.311 194.913 122.526 195.014 122.597 195.209C124.493 200.665 127.008 206.55 129.436 212.232C129.936 213.408 130.436 214.575 130.928 215.728C131.007 215.914 130.92 216.132 130.722 216.21C130.666 216.233 130.618 216.241 130.571 216.241ZM261.101 209.928C260.982 209.928 260.871 209.874 260.799 209.781C258.562 206.823 256.975 199.755 255.65 186.88C255.626 186.677 255.785 186.491 255.991 186.475C256.197 186.452 256.388 186.6 256.404 186.81C257.221 194.711 258.625 205.647 261.41 209.345C261.537 209.508 261.497 209.742 261.331 209.866C261.251 209.905 261.18 209.928 261.101 209.928Z" fill="#4B4B4B"/>
<path fill-rule="evenodd" clip-rule="evenodd" d="M122.543 178.673C122.44 178.494 122.496 178.269 122.678 178.168C122.861 178.066 123.091 178.121 123.194 178.3C140.442 207.085 161.65 204.439 183.175 192.015C194.155 185.679 205.239 176.805 215.934 168.235C224.551 161.331 232.921 154.629 240.791 149.608C239.768 147.436 238.975 145.116 238.443 142.696C236.269 132.786 241.252 120.589 245.401 110.431C247.734 104.725 249.797 99.6654 250.146 96.1003C250.392 93.6172 249.773 91.8657 247.765 91.1574L247.892 90.4023C250.415 91.1807 251.193 93.228 250.907 96.1703C250.542 99.8444 248.464 104.951 246.107 110.703C241.997 120.76 237.062 132.849 239.189 142.532C239.704 144.867 240.458 147.101 241.442 149.195C245.084 146.907 248.622 144.992 252.034 143.591L252.145 144.354C248.813 145.739 245.346 147.631 241.775 149.88C243.489 153.336 245.814 156.411 248.63 158.949C253.216 163.09 259.095 165.838 265.752 166.554C277.915 167.861 285.087 165.752 288.372 162.265C290.434 160.085 290.95 157.345 290.212 154.582C289.458 151.772 287.419 148.938 284.373 146.595C280.977 143.988 276.336 142.011 270.837 141.396L270.576 140.625C276.375 141.217 281.271 143.279 284.841 146.012C288.022 148.448 290.157 151.437 290.95 154.395C291.751 157.4 291.18 160.381 288.927 162.763C285.492 166.406 278.105 168.624 265.672 167.285C258.849 166.554 252.819 163.744 248.122 159.494C245.258 156.909 242.894 153.788 241.141 150.277C233.326 155.275 225.003 161.938 216.426 168.803C205.715 177.381 194.608 186.278 183.572 192.646C161.666 205.279 140.101 207.973 122.543 178.673Z" fill="black"/>
<path fill-rule="evenodd" clip-rule="evenodd" d="M66.4248 112.952C65.687 112.586 65.2744 111.815 65.3061 111.006C65.4728 105.822 66.8533 95.5855 73.8114 99.0417C80.7695 102.498 72.9704 109.55 68.7098 112.695C68.0434 113.201 67.1627 113.325 66.4248 112.952Z" fill="#5D5D5D"/>
<path fill-rule="evenodd" clip-rule="evenodd" d="M71.7967 116.168C71.6697 115.803 71.7888 115.413 72.0744 115.149C73.8754 113.46 77.7789 110.463 78.9531 113.872C80.1353 117.289 75.1369 117.141 72.6456 116.822C72.2648 116.776 71.9236 116.534 71.7967 116.168Z" fill="#5D5D5D"/>
<path fill-rule="evenodd" clip-rule="evenodd" d="M59.7299 110.881C60.2615 110.656 60.5788 110.142 60.5947 109.574C60.7058 105.962 60.1901 98.7694 55.1916 100.887C50.1932 103.004 55.3186 108.243 58.1431 110.609C58.5874 110.983 59.1983 111.107 59.7299 110.881Z" fill="#5D5D5D"/>
<path d="M104.968 184.754C104.945 184.754 104.921 184.754 104.897 184.746C98.2324 183.454 90.8855 179.048 83.6497 171.996C79.9683 168.407 76.8582 160.779 76.8582 155.346C76.8582 152.107 78.8655 147.896 80.6427 144.191C81.214 142.992 81.7535 141.864 82.174 140.867C82.6421 139.98 83.8957 138.221 85.2206 136.594L64.7034 117.282C63.9496 116.573 62.7278 115.974 62.0296 115.974H48.4546C48.2483 115.974 48.0737 115.81 48.0737 115.6C48.0737 115.398 48.2403 115.227 48.4546 115.227H62.0375C62.9261 115.227 64.3384 115.888 65.2349 116.745L85.7046 136.01C86.3235 135.271 86.9423 134.586 87.4739 134.056C87.6246 133.908 87.8627 133.908 88.0134 134.056C88.1641 134.204 88.1641 134.438 88.0134 134.586C86.2759 136.298 83.5545 139.863 82.8722 141.179C82.4596 142.159 81.9122 143.296 81.3409 144.502C79.6034 148.145 77.6278 152.271 77.6278 155.346C77.6278 160.615 80.6348 168.002 84.1892 171.474C91.3219 178.425 98.5339 182.761 105.048 184.03C105.254 184.069 105.389 184.263 105.349 184.466C105.309 184.629 105.151 184.754 104.968 184.754ZM277.318 159.432C277.167 159.432 277.017 159.339 276.961 159.191C274.248 152.092 271.177 143.942 269.011 137.115C267.67 132.896 266.703 123.766 267.551 120.224C267.559 120.185 267.583 120.138 267.607 120.099C268.059 119.43 268.464 118.768 268.805 118.13C269.218 117.367 269.836 116.293 270.527 115.118C271.939 112.681 273.7 109.653 274.295 108.12C275.001 106.298 275.224 104.531 274.962 102.725C274.835 101.846 273.058 97.0976 271.637 93.2912C270.852 91.1817 270.106 89.1968 269.702 88.0292C268.234 83.7791 268.004 83.133 262.728 83.997C259.887 84.4641 256.357 85.079 254.318 85.7095C253.088 86.0909 252.525 86.6903 252.651 87.4921C252.683 87.6867 252.556 87.8657 252.366 87.9124C248.494 88.8543 247.986 89.3447 247.923 89.4692C247.835 89.6482 247.605 89.7417 247.423 89.656C247.233 89.5704 247.145 89.368 247.225 89.1812C247.415 88.7375 248.121 88.2004 251.866 87.2663C251.866 86.558 252.239 85.5694 254.08 85.0012C256.166 84.3551 259.729 83.7324 262.593 83.2653C268.305 82.3312 268.837 83.2575 270.408 87.7878C270.812 88.9477 271.55 90.9326 272.336 93.0343C273.922 97.2766 275.557 101.659 275.7 102.624C275.985 104.562 275.747 106.446 274.994 108.392C274.375 109.972 272.677 112.907 271.177 115.491C270.495 116.667 269.876 117.725 269.471 118.488C269.122 119.134 268.718 119.796 268.273 120.465C267.472 123.96 268.424 132.787 269.733 136.905C271.899 143.716 274.962 151.851 277.675 158.942C277.747 159.136 277.651 159.347 277.453 159.424C277.413 159.424 277.366 159.432 277.318 159.432ZM89.8461 156.256C89.7827 156.256 89.7192 156.241 89.6637 156.21C89.4812 156.108 89.4098 155.883 89.5129 155.704L90.5126 153.906C92.0121 151.189 94.075 147.476 95.035 146.083C96.3837 144.129 97.9626 142.307 99.4859 140.548L100.279 139.63C100.414 139.474 100.652 139.451 100.811 139.583C100.97 139.715 100.993 139.949 100.859 140.104L100.065 141.023C98.5577 142.767 96.9947 144.572 95.6618 146.495C94.7176 147.857 92.6706 151.555 91.179 154.256L90.1794 156.054C90.1159 156.186 89.981 156.256 89.8461 156.256ZM183.316 123.166C183.269 123.166 183.221 123.159 183.182 123.143C165.933 116.534 159.078 98.2263 161.379 84.3551C161.411 84.1527 161.609 84.0126 161.815 84.0515C162.022 84.0827 162.164 84.2772 162.125 84.4796C159.871 98.0628 166.576 115.997 183.451 122.458C183.65 122.536 183.745 122.746 183.665 122.941C183.61 123.081 183.467 123.166 183.316 123.166ZM162.752 48.4473C162.712 48.4473 162.672 48.4395 162.632 48.4317C162.434 48.3694 162.323 48.1593 162.394 47.9647C163.458 44.8121 164.822 41.8386 166.457 39.1142C170.566 30.3961 178.437 24.0988 188.616 21.4211C201.215 18.105 216.211 20.7049 226.818 28.0453C226.985 28.162 227.033 28.3956 226.906 28.5668C226.787 28.7381 226.549 28.777 226.382 28.6602C215.949 21.4444 201.2 18.8835 188.807 22.145C181.761 23.9976 172.28 28.5045 167.123 39.4645C165.497 42.1733 164.156 45.1079 163.109 48.206C163.061 48.3539 162.91 48.4473 162.752 48.4473Z" fill="black"/>
<path fill-rule="evenodd" clip-rule="evenodd" d="M84.2956 20.2774C85.3112 20.2774 86.2871 20.4565 87.1836 20.7834C87.5882 20.3475 88.1754 20.0673 88.8339 20.0673C89.1354 20.0673 89.4289 20.1296 89.6908 20.2385C89.8336 18.3548 91.4362 16.8758 93.388 16.8758C94.2369 16.8758 95.0145 17.156 95.6412 17.6231C95.7761 17.4363 95.9427 17.2806 96.1252 17.1483C95.7682 16.5255 95.5698 15.8094 95.5698 15.0466C95.5698 13.8634 96.0617 12.7892 96.8472 12.0108C97.6406 11.2324 98.7355 10.7576 99.9415 10.7576H99.9573C100.624 10.4151 101.378 10.2204 102.187 10.2204C102.679 10.2204 103.155 10.2905 103.599 10.4306C103.805 10.0025 104.146 9.65221 104.575 9.44204C104.456 8.91273 104.392 8.36006 104.392 7.79183C104.392 5.64343 105.281 3.68963 106.717 2.28072C108.153 0.871808 110.137 0 112.334 0C113.033 0 113.707 0.0856141 114.35 0.256863C119.039 0.32692 122.823 4.07884 122.823 8.69478C122.823 8.75705 122.823 8.82711 122.823 8.88938C123.236 8.78819 123.672 8.73369 124.124 8.73369C125.013 8.73369 125.854 8.95165 126.592 9.33307C127.845 7.65171 129.868 6.56195 132.153 6.56195C135.962 6.56195 139.048 9.58994 139.048 13.3263C139.048 14.058 138.929 14.7663 138.707 15.428C138.778 15.4202 138.842 15.4202 138.913 15.4202C140.786 15.4202 142.309 16.907 142.309 18.7518C142.309 18.9697 142.285 19.1799 142.245 19.3823C142.269 19.3823 142.293 19.3823 142.317 19.3823C143.38 19.3823 144.237 20.2074 144.277 21.2349C144.57 21.1804 144.872 21.1493 145.181 21.1493C146.403 21.1493 147.553 21.5696 148.378 22.3324C150.584 24.3796 148.18 24.909 145.855 24.909H142.833H140.46H91.7933H87.9929H81.7488C79.329 24.909 75.8777 25.2982 78.2737 22.815C79.7891 21.2582 81.9313 20.2774 84.2956 20.2774ZM105.21 9.23187C105.329 9.20852 105.456 9.20074 105.575 9.20074H105.638C105.63 9.02949 105.622 8.85824 105.622 8.68699C105.622 4.974 108.066 1.82147 111.462 0.69278C109.803 0.887381 108.312 1.63465 107.193 2.7322C105.876 4.02435 105.059 5.8069 105.059 7.78405C105.059 8.28223 105.114 8.76483 105.21 9.23187ZM96.7202 16.8525C96.9424 16.7746 97.1804 16.7357 97.4264 16.7357C97.5454 16.7357 97.6644 16.7435 97.7834 16.7668C97.5375 16.1986 97.4026 15.5759 97.4026 14.922C97.4026 13.6143 97.95 12.4311 98.8307 11.5827C98.2594 11.7617 97.7437 12.0731 97.3232 12.4778C96.6488 13.1395 96.2363 14.0502 96.2363 15.0543C96.2363 15.7082 96.4108 16.3231 96.7202 16.8525Z" fill="#5D5D5D"/>
<path fill-rule="evenodd" clip-rule="evenodd" d="M6.24703 183.495C7.17531 183.495 8.06392 183.658 8.88112 183.954C9.25401 183.557 9.78559 183.3 10.3806 183.3C10.6583 183.3 10.9202 183.355 11.1661 183.456C11.301 181.743 12.7608 180.389 14.538 180.389C15.3076 180.389 16.0217 180.646 16.5929 181.074C16.712 180.911 16.8627 180.763 17.0373 180.638C16.712 180.07 16.5295 179.416 16.5295 178.723C16.5295 177.641 16.9738 176.66 17.6958 175.96C18.4178 175.252 19.4174 174.816 20.5123 174.816H20.5282C21.1312 174.504 21.8214 174.325 22.5593 174.325C23.0115 174.325 23.44 174.388 23.8525 174.512C24.035 174.123 24.3524 173.804 24.7411 173.609C24.638 173.127 24.5745 172.621 24.5745 172.099C24.5745 170.137 25.3838 168.363 26.6929 167.078C28.002 165.794 29.811 165 31.8103 165C32.445 165 33.0639 165.078 33.651 165.234C37.9274 165.296 41.3787 168.713 41.3787 172.932C41.3787 172.994 41.3787 173.049 41.3787 173.111C41.7595 173.018 42.1562 172.963 42.5609 172.963C43.3701 172.963 44.1397 173.158 44.8062 173.508C45.9487 171.975 47.7973 170.986 49.876 170.986C53.3511 170.986 56.1597 173.749 56.1597 177.151C56.1597 177.82 56.0486 178.466 55.8503 179.066C55.9138 179.066 55.9772 179.058 56.0407 179.058C57.7465 179.058 59.135 180.42 59.135 182.094C59.135 182.288 59.1191 182.483 59.0794 182.67C59.1032 182.67 59.1191 182.67 59.1429 182.67C60.1108 182.67 60.8963 183.425 60.928 184.359C61.1978 184.312 61.4755 184.281 61.7532 184.281C62.8719 184.281 63.9112 184.663 64.6649 185.355C66.6722 187.223 64.4825 187.706 62.3641 187.706H59.6031H57.4371H13.0623H9.59518H3.90651C1.70086 187.706 -1.44892 188.064 0.740854 185.799C2.13724 184.382 4.08899 183.495 6.24703 183.495ZM25.3124 173.422C25.4235 173.407 25.5345 173.391 25.6456 173.391H25.7012C25.6932 173.236 25.6853 173.08 25.6853 172.924C25.6853 169.538 27.9147 166.666 31.009 165.631C29.4936 165.81 28.1369 166.487 27.1134 167.491C25.9154 168.666 25.1696 170.301 25.1696 172.099C25.1775 172.551 25.2251 172.994 25.3124 173.422ZM17.5768 180.366C17.783 180.296 17.9973 180.265 18.2273 180.265C18.3384 180.265 18.4495 180.272 18.5526 180.288C18.3305 179.774 18.2035 179.206 18.2035 178.607C18.2035 177.416 18.6954 176.334 19.5047 175.563C18.9811 175.726 18.513 176.007 18.1321 176.38C17.5212 176.98 17.1404 177.813 17.1404 178.731C17.1325 179.323 17.2911 179.883 17.5768 180.366Z" fill="#5D5D5D"/>
<path fill-rule="evenodd" clip-rule="evenodd" d="M305.483 238.293C306.499 238.293 307.475 238.472 308.371 238.799C308.776 238.363 309.363 238.083 310.021 238.083C310.323 238.083 310.617 238.145 310.878 238.254C311.021 236.37 312.624 234.891 314.576 234.891C315.425 234.891 316.202 235.172 316.829 235.639C316.964 235.452 317.13 235.296 317.313 235.164C316.956 234.541 316.757 233.825 316.757 233.062C316.757 231.879 317.249 230.805 318.035 230.026C318.82 229.248 319.923 228.765 321.129 228.765H321.145C321.811 228.423 322.565 228.228 323.374 228.228C323.866 228.228 324.342 228.298 324.787 228.438C324.993 228.01 325.334 227.66 325.755 227.45C325.636 226.921 325.572 226.36 325.572 225.792C325.572 223.643 326.461 221.69 327.897 220.281C329.333 218.872 331.316 218 333.514 218C334.212 218 334.887 218.086 335.529 218.257C340.218 218.327 344.003 222.079 344.003 226.695C344.003 226.757 344.003 226.827 344.003 226.889C344.415 226.788 344.852 226.734 345.304 226.734C346.193 226.734 347.034 226.952 347.771 227.333C349.025 225.652 351.048 224.562 353.333 224.562C357.141 224.562 360.228 227.59 360.228 231.326C360.228 232.058 360.109 232.766 359.887 233.428C359.958 233.428 360.021 233.42 360.093 233.42C361.965 233.42 363.489 234.915 363.489 236.752C363.489 236.97 363.465 237.18 363.425 237.382C363.449 237.382 363.473 237.382 363.497 237.382C364.552 237.382 365.417 238.207 365.456 239.235C365.75 239.18 366.051 239.149 366.361 239.149C367.583 239.149 368.733 239.57 369.55 240.332C371.756 242.38 369.344 242.909 367.027 242.909H364.012H361.64H312.973H309.173H302.929C300.509 242.909 297.057 243.298 299.453 240.815C300.969 239.266 303.111 238.293 305.483 238.293ZM326.389 227.247C326.508 227.224 326.635 227.216 326.754 227.216H326.818C326.81 227.045 326.802 226.874 326.802 226.703C326.802 222.99 329.246 219.837 332.641 218.708C330.983 218.903 329.491 219.65 328.373 220.748C327.056 222.04 326.239 223.822 326.239 225.8C326.246 226.298 326.294 226.78 326.389 227.247ZM317.908 234.868C318.13 234.79 318.368 234.751 318.614 234.751C318.733 234.751 318.86 234.759 318.971 234.782C318.725 234.214 318.59 233.591 318.59 232.938C318.59 231.63 319.138 230.447 320.018 229.598C319.447 229.777 318.931 230.089 318.511 230.493C317.836 231.155 317.424 232.066 317.424 233.07C317.424 233.716 317.598 234.331 317.908 234.868Z" fill="#5D5D5D"/>
<defs>
<linearGradient id="paint0_linear_9165_9631" x1="192.946" y1="177.82" x2="192.946" y2="286.334" gradientUnits="userSpaceOnUse">
<stop stop-color="#808080"/>
<stop offset="0.677083" stop-color="#191711"/>
<stop offset="1" stop-color="#121212"/>
</linearGradient>
</defs>
</svg>
