<svg width="28" height="15" viewBox="0 0 28 15" fill="none" xmlns="http://www.w3.org/2000/svg">
<path d="M14.308 14.0161C14.106 13.6993 13.9652 13.334 13.8875 12.92C13.8098 12.506 13.7707 11.9842 13.7707 11.3552C13.7707 10.7262 13.8098 10.1047 13.8875 9.69072C13.9652 9.27673 14.106 8.91085 14.308 8.59509C14.5105 8.27883 14.8012 8.04778 15.1811 7.90243C15.561 7.75708 16.0417 7.68441 16.6236 7.68441C17.2055 7.68441 17.6846 7.75708 18.0605 7.90243C18.4369 8.04778 18.7281 8.27883 18.9336 8.59509C19.1396 8.91085 19.2804 9.27623 19.3546 9.69072C19.4288 10.1047 19.4659 10.7282 19.4659 11.3607C19.4659 11.9932 19.4283 12.515 19.3546 12.9255C19.2799 13.336 19.1391 13.6998 18.9336 14.0161C18.7281 14.3319 18.4364 14.5634 18.0605 14.7083C17.6846 14.8531 17.2055 14.9263 16.6236 14.9263C16.0417 14.9263 15.5605 14.8531 15.1811 14.7083C14.8017 14.5634 14.5105 14.3324 14.308 14.0161ZM15.8663 10.0175V13.1711H16.3133C16.6326 13.1711 17.0516 13.136 17.1789 13.0673C17.3062 12.9987 17.3709 12.8403 17.3709 12.5932V9.44012H16.8702C16.5584 9.44012 16.1494 9.4732 16.0367 9.53785C15.9234 9.60301 15.8663 9.7644 15.8663 10.0175ZM12.9643 14.8626H8.0886V12.9871L9.01482 12.0714C9.2133 11.8825 9.40526 11.6935 9.5897 11.5041L10.0368 11.0465C10.1576 10.9227 10.2673 10.7848 10.3666 10.632C10.4663 10.4791 10.5249 10.3648 10.5425 10.2887C10.56 10.212 10.569 10.1343 10.569 10.0541C10.569 9.86514 10.5159 9.74535 10.4092 9.69423C10.3029 9.64361 10.115 9.61805 9.84481 9.61805C9.33409 9.61805 8.86546 9.65764 8.43994 9.73783L8.21641 9.78144L8.11015 7.91697C8.84792 7.64832 9.61977 7.5135 10.4257 7.5135C11.2306 7.5135 11.8627 7.70095 12.3202 8.07485C12.7778 8.44974 13.0069 8.96899 13.0069 9.63408C13.0069 10.2992 12.9001 10.8209 12.6876 11.1988C12.4746 11.5767 12.0772 11.9732 11.4953 12.3877L10.7816 12.8999H12.9643V14.8626Z" fill="#CECECE"/>
<path d="M23.6393 13.346C23.5576 13.8622 23.9099 14.3474 24.4262 14.4291C24.9424 14.5108 25.4276 14.159 25.5093 13.6427C25.612 12.9987 25.6616 12.3727 25.6616 11.7687C25.6616 8.89884 24.6121 6.22092 22.8504 4.14745C21.0892 2.07447 18.6127 0.60445 15.7594 0.150862C15.1369 0.0516238 14.5099 0 13.8839 0C10.6316 0 7.68752 1.31816 5.55641 3.44927C3.54057 5.4646 2.25248 8.20818 2.11866 11.251L1.634 10.7433C1.27364 10.3644 0.673697 10.3493 0.294287 10.7102C-0.0846214 11.0705 -0.099659 11.6705 0.261208 12.0494L2.38881 14.2777C2.45337 14.3457 2.5277 14.4036 2.60934 14.4497C2.99577 14.7414 3.54859 14.6957 3.88089 14.3304L5.95887 12.0554C6.31122 11.668 6.28315 11.068 5.89572 10.7157C5.50879 10.3634 4.90835 10.3914 4.55601 10.7788L4.01521 11.3708C4.11896 8.80461 5.20156 6.49057 6.89963 4.79249C8.68691 3.00571 11.1563 1.90006 13.8839 1.90006C14.4367 1.90006 14.964 1.94166 15.4627 2.02085C17.8509 2.40076 19.9254 3.63321 21.4034 5.37238C22.881 7.11155 23.7616 9.35944 23.7616 11.7687C23.7616 12.301 23.7215 12.8288 23.6393 13.346ZM11.7954 9.8842V13.0378H11.3483C11.029 13.0378 10.61 13.0027 10.4827 12.934C10.3554 12.8654 10.2908 12.707 10.2908 12.4599V9.30682H10.7915C11.1032 9.30682 11.5122 9.3399 11.625 9.40455C11.7382 9.46971 11.7954 9.6311 11.7954 9.8842Z" fill="#CECECE"/>
</svg>
