<svg width="334" height="91" viewBox="0 0 334 91" fill="none" xmlns="http://www.w3.org/2000/svg">
<path opacity="0.25" d="M330.027 92.3533C331.326 92.8213 332.759 92.1476 333.227 90.8486C333.695 89.5496 333.021 88.1172 331.722 87.6493L330.027 92.3533ZM169.303 31.7924L170.15 29.4403L170.136 29.435L170.121 29.4299L169.303 31.7924ZM49.4367 3.3876L49.3859 0.888115L49.4367 3.3876ZM168.456 34.1444L330.027 92.3533L331.722 87.6493L170.15 29.4403L168.456 34.1444ZM0.108148 6.88993L49.4875 5.88708L49.3859 0.888115L0.00662394 1.89096L0.108148 6.88993ZM118.111 16.7148L168.485 34.1548L170.121 29.4299L119.747 11.99L118.111 16.7148ZM49.4875 5.88708C72.8221 5.41318 96.0562 9.07914 118.111 16.7148L119.747 11.99C97.1336 4.16098 73.3114 0.402212 49.3859 0.888115L49.4875 5.88708Z" fill="url(#paint0_linear_5770_18228)"/>
<defs>
<linearGradient id="paint0_linear_5770_18228" x1="36.2476" y1="6.75748" x2="326.941" y2="-139.42" gradientUnits="userSpaceOnUse">
<stop stop-color="#5F42E2"/>
<stop offset="1" stop-color="#9B42C0"/>
</linearGradient>
</defs>
</svg>
