<svg width="3" height="12" viewBox="0 0 3 12" fill="none" xmlns="http://www.w3.org/2000/svg">
<path d="M1.60465 9.2093C0.834022 9.2093 0.209303 9.83402 0.209303 10.6047C0.209302 11.3753 0.834021 12 1.60465 12C2.37528 12 3 11.3753 3 10.6047C3 9.83402 2.37528 9.2093 1.60465 9.2093Z" fill="#888888"/>
<path d="M1.60465 4.74446C0.834022 4.74446 0.209303 5.36918 0.209303 6.13981C0.209302 6.91044 0.834021 7.53516 1.60465 7.53516C2.37528 7.53516 3 6.91044 3 6.13981C3 5.36918 2.37528 4.74446 1.60465 4.74446Z" fill="#888888"/>
<path d="M1.60465 -0.0016352C0.834022 -0.00163526 0.209303 0.623084 0.209303 1.39371C0.209302 2.16434 0.834021 2.78906 1.60465 2.78906C2.37528 2.78906 3 2.16434 3 1.39371C3 0.623084 2.37528 -0.00163513 1.60465 -0.0016352Z" fill="#888888"/>
</svg>
