<svg width="14" height="14" viewBox="0 0 14 14" fill="none" xmlns="http://www.w3.org/2000/svg">
<path d="M5.33325 5.21671V8.78337C5.33325 9.03893 5.44992 9.23337 5.68325 9.36671C5.91658 9.50004 6.14436 9.48893 6.36659 9.33337L9.13325 7.56671C9.34436 7.43337 9.44992 7.24448 9.44992 7.00004C9.44992 6.7556 9.34436 6.56671 9.13325 6.43337L6.36659 4.66671C6.14436 4.51115 5.91658 4.50004 5.68325 4.63337C5.44992 4.76671 5.33325 4.96115 5.33325 5.21671ZM6.99992 13.6667C6.0777 13.6667 5.21103 13.4916 4.39992 13.1414C3.58881 12.7916 2.88325 12.3167 2.28325 11.7167C1.68325 11.1167 1.20836 10.4112 0.858585 9.60004C0.508363 8.78893 0.333252 7.92226 0.333252 7.00004C0.333252 6.07782 0.508363 5.21115 0.858585 4.40004C1.20836 3.58893 1.68325 2.88337 2.28325 2.28337C2.88325 1.68337 3.58881 1.20826 4.39992 0.858041C5.21103 0.508263 6.0777 0.333374 6.99992 0.333374C7.92214 0.333374 8.78881 0.508263 9.59992 0.858041C10.411 1.20826 11.1166 1.68337 11.7166 2.28337C12.3166 2.88337 12.7915 3.58893 13.1413 4.40004C13.4915 5.21115 13.6666 6.07782 13.6666 7.00004C13.6666 7.92226 13.4915 8.78893 13.1413 9.60004C12.7915 10.4112 12.3166 11.1167 11.7166 11.7167C11.1166 12.3167 10.411 12.7916 9.59992 13.1414C8.78881 13.4916 7.92214 13.6667 6.99992 13.6667Z" fill="white"/>
</svg>
