<svg width="83" height="47" viewBox="0 0 83 47" fill="none" xmlns="http://www.w3.org/2000/svg">
<g clip-path="url(#clip0_5932_18652)">
<path d="M8.18982 45.5389C12.2531 45.5389 15.8895 42.2336 15.8895 38.1988V31.6034C15.8895 27.5842 12.2531 24.2633 8.18982 24.2633C3.95263 24.2633 0.332031 27.6463 0.332031 31.7742C0.332031 35.6072 3.17791 39.3315 7.16215 39.3315C8.18982 39.3315 9.50208 39.2074 9.53372 37.904V32.8759C9.24912 33.2328 8.74321 33.4502 8.18982 33.4502C7.22539 33.4502 6.46648 32.7365 6.46648 31.7275C6.52972 30.8586 7.16215 30.1137 8.18982 30.1137C9.20168 30.1137 9.92899 30.8586 9.92899 31.8363V37.935C9.92899 38.9436 9.20168 39.6884 8.18982 39.6884V45.5389ZM31.6367 33.4966H24.7434C23.7631 33.5276 22.941 32.7518 22.941 31.7896C22.941 30.8586 23.7315 30.0827 24.6801 30.0827C26.5774 30.0827 26.7829 32.519 24.7434 32.488V33.1397H25.7394L31.0043 33.1244C31.779 32.2242 31.9688 31.0603 31.8897 29.9275C31.6367 25.8927 28.2059 24.2633 24.6801 24.2633C20.4429 24.2633 17.0121 27.6308 17.0121 31.7896C17.0121 35.9488 20.4429 39.3161 24.6801 39.3161H24.7434H31.6367V33.4966ZM39.2731 39.3161V31.6655C39.2731 30.7189 40.0795 29.912 41.0755 29.912C42.0082 29.912 42.8938 30.75 42.8938 31.6655V39.3161H48.6489V31.6965C48.6489 27.5377 45.281 24.2012 41.0755 24.2012C39.3995 24.2012 37.7395 24.7444 36.4115 25.753C35.5895 25.0702 34.5616 24.5892 33.4707 24.3564V39.3161H39.2731ZM57.5028 33.6674C56.5064 33.6674 55.7476 32.8605 55.7476 31.9293V29.7257H57.4236V24.403H55.5896C55.5896 19.4836 52.8544 17.1559 49.8977 16.5352V31.8829C49.8977 36.0108 53.2969 39.4249 57.5028 39.4249V33.6674ZM65.0599 39.3161V24.3719H59.1312V39.3161H65.0599ZM58.8148 20.5234C58.8148 22.339 60.2852 23.7822 62.1351 23.7822C63.9847 23.7822 65.4711 22.339 65.4711 20.5234C65.4711 18.7077 63.9847 17.249 62.1351 17.249C60.2852 17.249 58.8148 18.7077 58.8148 20.5234Z" fill="url(#paint0_linear_5932_18652)"/>
<path d="M61.9629 8.94531V11.9411C61.9629 12.2158 62.0998 12.4795 62.3517 12.5994C63.447 13.1205 64.5036 12.8967 66.9869 14.8465C68.8145 16.2817 69.0463 17.7168 69.3547 19.1519C69.4338 19.5209 69.7684 19.7778 70.1528 19.7778H73.0194C73.4092 19.7778 73.7543 19.5132 73.7984 19.1329C74.266 15.1087 70.3673 11.4791 69.9175 11.148C68.4094 10.0379 64.8644 8.26127 62.6451 8.21888C62.246 8.21123 61.9629 8.55355 61.9629 8.94531Z" fill="url(#paint1_linear_5932_18652)"/>
<path d="M82.5434 19.725C82.7589 19.725 82.9399 19.564 82.9558 19.353C83.1483 16.8181 82.7046 14.6954 81.7961 12.2588C80.8435 9.70387 79.3166 7.38163 77.3246 5.45682C75.3323 3.53199 72.9234 2.05179 70.2683 1.12123C67.7339 0.232836 65.0345 -0.13381 62.3456 0.0434046C62.1289 0.0576869 61.9629 0.235956 61.9629 0.449141V3.62426C61.9629 3.87819 62.1953 4.07061 62.4526 4.04513C64.7606 3.81674 66.7925 4.65356 68.6747 5.31329C70.6887 6.01926 72.5163 7.14227 74.0279 8.60256C75.5394 10.0629 76.6976 11.8247 77.4204 13.763C78.084 15.5431 78.3768 17.6168 78.3366 19.289C78.3308 19.5256 78.5217 19.725 78.7627 19.725H82.5434Z" fill="#5F42E2"/>
</g>
<defs>
<linearGradient id="paint0_linear_5932_18652" x1="74.1066" y1="47.0367" x2="0.48582" y2="12.6522" gradientUnits="userSpaceOnUse">
<stop stop-color="#5F42E2"/>
<stop offset="0.897878" stop-color="#9B42C0"/>
</linearGradient>
<linearGradient id="paint1_linear_5932_18652" x1="75.1838" y1="19.8075" x2="60.251" y2="15.8164" gradientUnits="userSpaceOnUse">
<stop stop-color="#5F42E2"/>
<stop offset="0.897878" stop-color="#9B42C0"/>
</linearGradient>
<clipPath id="clip0_5932_18652">
<rect width="83" height="47" fill="white"/>
</clipPath>
</defs>
</svg>
