<svg width="40" height="40" viewBox="0 0 40 40" fill="none" xmlns="http://www.w3.org/2000/svg">
<circle cx="20" cy="20" r="20" fill="white"/>
<path d="M14.5363 28.6878V11.3126C14.5363 10.5621 15.3649 10.1099 15.9956 10.5132L29.577 19.2008C30.1613 19.5748 30.1613 20.4255 29.577 20.7995L15.9956 29.4871C15.3649 29.8905 14.5363 29.4382 14.5363 28.6878Z" fill="#393939"/>
<path d="M14.9024 28.6879C14.9024 28.3457 14.9024 28.0011 14.9024 27.6588C14.9024 26.7862 14.9024 25.9135 14.9024 25.0408C14.9024 23.8552 14.9024 22.6697 14.9024 21.4866C14.9024 20.2154 14.9024 18.9443 14.9024 17.6708C14.9024 16.5365 14.9024 15.4023 14.9024 14.2656C14.9024 13.4907 14.9024 12.7183 14.9024 11.9434C14.9024 11.7625 14.9024 11.5791 14.9024 11.3983C14.9024 11.3714 14.9024 11.342 14.9024 11.3151C14.9024 11.3029 14.9024 11.298 14.9024 11.2809C14.9024 11.2589 14.9049 11.2394 14.9073 11.2174C14.9024 11.2956 14.9049 11.2296 14.9097 11.2076C14.922 11.1636 14.9342 11.1196 14.9464 11.078C14.922 11.1514 14.9391 11.0903 14.9513 11.0707C14.9684 11.0414 14.9831 11.012 15.0026 10.9827C15.0124 10.9656 15.0246 10.9509 15.0344 10.9363C14.9904 10.9974 15.0197 10.9558 15.032 10.9436C15.0662 10.9094 15.098 10.8776 15.1346 10.8458C15.076 10.8971 15.12 10.8556 15.1395 10.8434C15.1591 10.8311 15.1786 10.8189 15.2006 10.8067C15.2177 10.7969 15.2349 10.7896 15.252 10.7798C15.3229 10.7407 15.1982 10.7945 15.2691 10.7725C15.3155 10.7603 15.3595 10.7456 15.406 10.7358C15.4891 10.7138 15.3571 10.7285 15.4084 10.7358C15.4304 10.7383 15.4573 10.7334 15.4793 10.7334C15.4989 10.7334 15.5184 10.7334 15.538 10.7358C15.5429 10.7358 15.6333 10.7529 15.5771 10.7383C15.5184 10.7236 15.6137 10.748 15.6162 10.748C15.6455 10.7554 15.6749 10.7651 15.7017 10.7749C15.7653 10.7945 15.714 10.7798 15.6993 10.7725C15.7286 10.7871 15.7555 10.8018 15.7824 10.8165C15.7922 10.8214 15.802 10.8287 15.8093 10.8336C15.8117 10.836 15.8142 10.836 15.8166 10.8385C15.8509 10.8605 15.8875 10.8825 15.9218 10.9045C16.1051 11.0218 16.286 11.1367 16.4693 11.254C17.1806 11.7087 17.8944 12.1658 18.6058 12.6205C19.608 13.2634 20.6127 13.9038 21.6149 14.5467C22.6782 15.2263 23.7416 15.9083 24.8074 16.5879C25.724 17.1745 26.6383 17.7588 27.555 18.3454C28.1001 18.695 28.6452 19.0445 29.1927 19.3917C29.2465 19.4259 29.2979 19.4601 29.3516 19.4919C29.3639 19.4992 29.3761 19.5065 29.3883 19.5139C29.3907 19.5139 29.3932 19.5163 29.3932 19.5163C29.4103 19.5285 29.4299 19.5408 29.447 19.553C29.3907 19.509 29.4445 19.553 29.4567 19.5652C29.4812 19.5921 29.5056 19.6165 29.5301 19.641C29.5447 19.6557 29.5594 19.6948 29.5276 19.6385C29.5374 19.6557 29.5496 19.6703 29.5594 19.6874C29.5741 19.7119 29.5863 19.7388 29.601 19.7657C29.6107 19.7852 29.6181 19.8268 29.5985 19.7583C29.6132 19.8048 29.6279 19.8488 29.6401 19.8977C29.645 19.9172 29.6474 19.9343 29.6499 19.9539C29.6352 19.861 29.6474 19.949 29.6474 19.971C29.6474 19.9979 29.6352 20.1421 29.6499 20.0443C29.6425 20.0908 29.6327 20.1397 29.6181 20.1837C29.6132 20.2032 29.6059 20.2203 29.5985 20.2374C29.623 20.1617 29.6059 20.2228 29.5936 20.2423C29.5814 20.2643 29.5716 20.2863 29.557 20.3059C29.5496 20.3157 29.4934 20.3939 29.5447 20.3279C29.513 20.367 29.4763 20.4012 29.4396 20.4379C29.4299 20.4477 29.3859 20.4819 29.4396 20.4403C29.4201 20.455 29.4079 20.4623 29.3859 20.477C29.3834 20.477 29.3834 20.4794 29.381 20.4794C29.3712 20.4868 29.359 20.4941 29.3492 20.499C28.9336 20.7654 28.5181 21.0294 28.1025 21.2959C27.2641 21.8312 26.4256 22.369 25.5872 22.9043C24.5336 23.5766 23.4825 24.2512 22.4289 24.9235C21.3949 25.5859 20.3585 26.2484 19.3244 26.9108C18.5153 27.429 17.7062 27.9473 16.8971 28.4631C16.5353 28.6953 16.176 28.9299 15.8118 29.1573C15.7726 29.1817 15.7335 29.2037 15.692 29.2257C15.7531 29.194 15.7091 29.2184 15.6944 29.2233C15.67 29.2306 15.6455 29.238 15.6211 29.2453C15.5966 29.2526 15.5722 29.2551 15.5477 29.2624C15.6137 29.2428 15.5844 29.26 15.5575 29.26C15.5086 29.2624 15.4622 29.2624 15.4133 29.26C15.3449 29.2575 15.4109 29.26 15.4255 29.2624C15.3986 29.2575 15.3693 29.2526 15.3424 29.2453C15.318 29.2404 15.2129 29.2013 15.252 29.2184C15.2911 29.2355 15.1884 29.1842 15.1689 29.1719C15.1493 29.1597 15.1297 29.1426 15.1102 29.1328C15.0637 29.1108 15.1664 29.1891 15.1053 29.128C15.0711 29.0937 15.0369 29.0619 15.0051 29.0253C15.0564 29.0815 14.9953 29.0082 14.9782 28.9837C14.9635 28.9593 14.9513 28.9324 14.9366 28.9079C14.9269 28.8884 14.922 28.8493 14.9391 28.9153C14.9269 28.8664 14.9097 28.8199 14.8975 28.7711C14.8926 28.7515 14.8951 28.7051 14.8975 28.7759C14.9049 28.7515 14.9024 28.7197 14.9024 28.6879C14.9 28.4973 14.7362 28.3115 14.5357 28.3213C14.3402 28.3311 14.1666 28.4826 14.1691 28.6879C14.1764 29.172 14.4404 29.6388 14.8829 29.8564C15.3009 30.0617 15.7849 30.0495 16.1833 29.8026C16.2738 29.7464 16.3642 29.6877 16.4522 29.6291C17.0462 29.2502 17.6402 28.8688 18.2342 28.4899C19.19 27.8788 20.1458 27.2677 21.1016 26.6566C22.1845 25.9624 23.2698 25.2706 24.3527 24.5764C25.3403 23.9457 26.3278 23.3126 27.3154 22.6819C27.9803 22.2566 28.6476 21.8312 29.3125 21.4034C29.4519 21.3154 29.5912 21.225 29.7305 21.137C29.8625 21.0514 29.9872 20.9537 30.085 20.829C30.4052 20.4257 30.4639 19.8903 30.2463 19.4234C30.1119 19.1374 29.8723 18.9565 29.6181 18.7928C29.4225 18.6681 29.2245 18.541 29.029 18.4163C28.2834 17.9396 27.5378 17.463 26.7947 16.9863C25.7681 16.3287 24.7389 15.6712 23.7123 15.0136C22.6318 14.3243 21.5538 13.6325 20.4733 12.9432C19.5713 12.3663 18.6693 11.7894 17.7673 11.2125C17.2735 10.8971 16.7822 10.5818 16.2884 10.2665C15.9535 10.0514 15.582 9.94136 15.1811 10.0318C14.5626 10.1711 14.1691 10.7407 14.1666 11.3567C14.1666 11.8334 14.1666 12.3076 14.1666 12.7843C14.1666 13.7621 14.1666 14.7398 14.1666 15.7176C14.1666 16.9594 14.1666 18.1988 14.1666 19.4405C14.1666 20.7141 14.1666 21.9901 14.1666 23.2637C14.1666 24.3417 14.1666 25.4197 14.1666 26.5002C14.1666 27.1455 14.1666 27.7884 14.1666 28.4337C14.1666 28.5193 14.1666 28.6048 14.1666 28.6928C14.1666 28.8835 14.3353 29.0693 14.5333 29.0595C14.7337 29.0448 14.9024 28.8933 14.9024 28.6879Z" fill="#393939"/>
<path d="M14.9024 28.6879C14.9024 28.3457 14.9024 28.0011 14.9024 27.6588C14.9024 26.7862 14.9024 25.9135 14.9024 25.0408C14.9024 23.8552 14.9024 22.6697 14.9024 21.4866C14.9024 20.2154 14.9024 18.9443 14.9024 17.6708C14.9024 16.5365 14.9024 15.4023 14.9024 14.2656C14.9024 13.4907 14.9024 12.7183 14.9024 11.9434C14.9024 11.7625 14.9024 11.5791 14.9024 11.3983C14.9024 11.3714 14.9024 11.342 14.9024 11.3151C14.9024 11.3029 14.9024 11.298 14.9024 11.2809C14.9024 11.2589 14.9049 11.2394 14.9073 11.2174C14.9024 11.2956 14.9049 11.2296 14.9097 11.2076C14.922 11.1636 14.9342 11.1196 14.9464 11.078C14.922 11.1514 14.9391 11.0903 14.9513 11.0707C14.9684 11.0414 14.9831 11.012 15.0026 10.9827C15.0124 10.9656 15.0246 10.9509 15.0344 10.9363C14.9904 10.9974 15.0197 10.9558 15.032 10.9436C15.0662 10.9094 15.098 10.8776 15.1346 10.8458C15.076 10.8971 15.12 10.8556 15.1395 10.8434C15.1591 10.8311 15.1786 10.8189 15.2006 10.8067C15.2177 10.7969 15.2349 10.7896 15.252 10.7798C15.3229 10.7407 15.1982 10.7945 15.2691 10.7725C15.3155 10.7603 15.3595 10.7456 15.406 10.7358C15.4891 10.7138 15.3571 10.7285 15.4084 10.7358C15.4304 10.7383 15.4573 10.7334 15.4793 10.7334C15.4989 10.7334 15.5184 10.7334 15.538 10.7358C15.5429 10.7358 15.6333 10.7529 15.5771 10.7383C15.5184 10.7236 15.6137 10.748 15.6162 10.748C15.6455 10.7554 15.6749 10.7651 15.7017 10.7749C15.7653 10.7945 15.714 10.7798 15.6993 10.7725C15.7286 10.7871 15.7555 10.8018 15.7824 10.8165C15.7922 10.8214 15.802 10.8287 15.8093 10.8336C15.8117 10.836 15.8142 10.836 15.8166 10.8385C15.8509 10.8605 15.8875 10.8825 15.9218 10.9045C16.1051 11.0218 16.286 11.1367 16.4693 11.254C17.1806 11.7087 17.8944 12.1658 18.6058 12.6205C19.608 13.2634 20.6127 13.9038 21.6149 14.5467C22.6782 15.2263 23.7416 15.9083 24.8074 16.5879C25.724 17.1745 26.6383 17.7588 27.555 18.3454C28.1001 18.695 28.6452 19.0445 29.1927 19.3917C29.2465 19.4259 29.2979 19.4601 29.3516 19.4919C29.3639 19.4992 29.3761 19.5065 29.3883 19.5139C29.3907 19.5139 29.3932 19.5163 29.3932 19.5163C29.4103 19.5285 29.4299 19.5408 29.447 19.553C29.3907 19.509 29.4445 19.553 29.4567 19.5652C29.4812 19.5921 29.5056 19.6165 29.5301 19.641C29.5447 19.6557 29.5594 19.6948 29.5276 19.6385C29.5374 19.6557 29.5496 19.6703 29.5594 19.6874C29.5741 19.7119 29.5863 19.7388 29.601 19.7657C29.6107 19.7852 29.6181 19.8268 29.5985 19.7583C29.6132 19.8048 29.6279 19.8488 29.6401 19.8977C29.645 19.9172 29.6474 19.9343 29.6499 19.9539C29.6352 19.861 29.6474 19.949 29.6474 19.971C29.6474 19.9979 29.6352 20.1421 29.6499 20.0443C29.6425 20.0908 29.6327 20.1397 29.6181 20.1837C29.6132 20.2032 29.6059 20.2203 29.5985 20.2374C29.623 20.1617 29.6059 20.2228 29.5936 20.2423C29.5814 20.2643 29.5716 20.2863 29.557 20.3059C29.5496 20.3157 29.4934 20.3939 29.5447 20.3279C29.513 20.367 29.4763 20.4012 29.4396 20.4379C29.4299 20.4477 29.3859 20.4819 29.4396 20.4403C29.4201 20.455 29.4079 20.4623 29.3859 20.477C29.3834 20.477 29.3834 20.4794 29.381 20.4794C29.3712 20.4868 29.359 20.4941 29.3492 20.499C28.9336 20.7654 28.5181 21.0294 28.1025 21.2959C27.2641 21.8312 26.4256 22.369 25.5872 22.9043C24.5336 23.5766 23.4825 24.2512 22.4289 24.9235C21.3949 25.5859 20.3585 26.2484 19.3244 26.9108C18.5153 27.429 17.7062 27.9473 16.8971 28.4631C16.5353 28.6953 16.176 28.9299 15.8118 29.1573C15.7726 29.1817 15.7335 29.2037 15.692 29.2257C15.7531 29.194 15.7091 29.2184 15.6944 29.2233C15.67 29.2306 15.6455 29.238 15.6211 29.2453C15.5966 29.2526 15.5722 29.2551 15.5477 29.2624C15.6137 29.2428 15.5844 29.26 15.5575 29.26C15.5086 29.2624 15.4622 29.2624 15.4133 29.26C15.3449 29.2575 15.4109 29.26 15.4255 29.2624C15.3986 29.2575 15.3693 29.2526 15.3424 29.2453C15.318 29.2404 15.2129 29.2013 15.252 29.2184C15.2911 29.2355 15.1884 29.1842 15.1689 29.1719C15.1493 29.1597 15.1297 29.1426 15.1102 29.1328C15.0637 29.1108 15.1664 29.1891 15.1053 29.128C15.0711 29.0937 15.0369 29.0619 15.0051 29.0253C15.0564 29.0815 14.9953 29.0082 14.9782 28.9837C14.9635 28.9593 14.9513 28.9324 14.9366 28.9079C14.9269 28.8884 14.922 28.8493 14.9391 28.9153C14.9269 28.8664 14.9097 28.8199 14.8975 28.7711C14.8926 28.7515 14.8951 28.7051 14.8975 28.7759C14.9049 28.7515 14.9024 28.7197 14.9024 28.6879C14.9 28.4973 14.7362 28.3115 14.5357 28.3213C14.3402 28.3311 14.1666 28.4826 14.1691 28.6879C14.1764 29.172 14.4404 29.6388 14.8829 29.8564C15.3009 30.0617 15.7849 30.0495 16.1833 29.8026C16.2738 29.7464 16.3642 29.6877 16.4522 29.6291C17.0462 29.2502 17.6402 28.8688 18.2342 28.4899C19.19 27.8788 20.1458 27.2677 21.1016 26.6566C22.1845 25.9624 23.2698 25.2706 24.3527 24.5764C25.3403 23.9457 26.3278 23.3126 27.3154 22.6819C27.9803 22.2566 28.6476 21.8312 29.3125 21.4034C29.4519 21.3154 29.5912 21.225 29.7305 21.137C29.8625 21.0514 29.9872 20.9537 30.085 20.829C30.4052 20.4257 30.4639 19.8903 30.2463 19.4234C30.1119 19.1374 29.8723 18.9565 29.6181 18.7928C29.4225 18.6681 29.2245 18.541 29.029 18.4163C28.2834 17.9396 27.5378 17.463 26.7947 16.9863C25.7681 16.3287 24.7389 15.6712 23.7123 15.0136C22.6318 14.3243 21.5538 13.6325 20.4733 12.9432C19.5713 12.3663 18.6693 11.7894 17.7673 11.2125C17.2735 10.8971 16.7822 10.5818 16.2884 10.2665C15.9535 10.0514 15.582 9.94136 15.1811 10.0318C14.5626 10.1711 14.1691 10.7407 14.1666 11.3567C14.1666 11.8334 14.1666 12.3076 14.1666 12.7843C14.1666 13.7621 14.1666 14.7398 14.1666 15.7176C14.1666 16.9594 14.1666 18.1988 14.1666 19.4405C14.1666 20.7141 14.1666 21.9901 14.1666 23.2637C14.1666 24.3417 14.1666 25.4197 14.1666 26.5002C14.1666 27.1455 14.1666 27.7884 14.1666 28.4337C14.1666 28.5193 14.1666 28.6048 14.1666 28.6928C14.1666 28.8835 14.3353 29.0693 14.5333 29.0595C14.7337 29.0448 14.9024 28.8933 14.9024 28.6879Z" fill="#393939"/>
</svg>
