<svg width="49" height="49" viewBox="0 0 49 49" fill="none" xmlns="http://www.w3.org/2000/svg">
<path d="M19.75 34C20.4229 34 20.9874 33.772 21.4434 33.316C21.8978 32.8616 22.125 32.2979 22.125 31.625V17.3156C22.125 16.6427 21.8978 16.0885 21.4434 15.6531C20.9874 15.2177 20.4229 15 19.75 15C19.0771 15 18.5134 15.2272 18.059 15.6816C17.603 16.1376 17.375 16.7021 17.375 17.375V31.6844C17.375 32.3573 17.603 32.9115 18.059 33.3469C18.5134 33.7823 19.0771 34 19.75 34ZM29.25 34C29.9229 34 30.4874 33.772 30.9434 33.316C31.3978 32.8616 31.625 32.2979 31.625 31.625V17.3156C31.625 16.6427 31.3978 16.0885 30.9434 15.6531C30.4874 15.2177 29.9229 15 29.25 15C28.5771 15 28.0134 15.2272 27.559 15.6816C27.103 16.1376 26.875 16.7021 26.875 17.375V31.6844C26.875 32.3573 27.103 32.9115 27.559 33.3469C28.0134 33.7823 28.5771 34 29.25 34ZM24.5 48.25C21.2146 48.25 18.1271 47.6262 15.2375 46.3785C12.3479 45.1324 9.83438 43.4406 7.69688 41.3031C5.55938 39.1656 3.86758 36.6521 2.6215 33.7625C1.37383 30.8729 0.75 27.7854 0.75 24.5C0.75 21.2146 1.37383 18.1271 2.6215 15.2375C3.86758 12.3479 5.55938 9.83438 7.69688 7.69688C9.83438 5.55938 12.3479 3.86679 15.2375 2.61913C18.1271 1.37304 21.2146 0.75 24.5 0.75C27.7854 0.75 30.8729 1.37304 33.7625 2.61913C36.6521 3.86679 39.1656 5.55938 41.3031 7.69688C43.4406 9.83438 45.1324 12.3479 46.3785 15.2375C47.6262 18.1271 48.25 21.2146 48.25 24.5C48.25 27.7854 47.6262 30.8729 46.3785 33.7625C45.1324 36.6521 43.4406 39.1656 41.3031 41.3031C39.1656 43.4406 36.6521 45.1324 33.7625 46.3785C30.8729 47.6262 27.7854 48.25 24.5 48.25Z" fill="url(#paint0_linear_128_2871)"/>
<defs>
<linearGradient id="paint0_linear_128_2871" x1="5.70261" y1="34.2545" x2="65.611" y2="30.7246" gradientUnits="userSpaceOnUse">
<stop stop-color="#5F42E2"/>
<stop offset="1" stop-color="#9B42C0"/>
</linearGradient>
</defs>
</svg>
