<svg width="16" height="16" viewBox="0 0 16 16" fill="none" xmlns="http://www.w3.org/2000/svg">
<path d="M14.3377 0H0.831163C0.374013 0 0 0.380944 0 0.846565V2.37037C0 2.83599 0.374013 3.21693 0.831163 3.21693H14.2961C14.7533 3.21693 15.1273 2.83599 15.1273 2.37037V0.846565C15.1688 0.380944 14.7948 0 14.3377 0ZM14.3377 8.50793H0.831163C0.374013 8.50793 0 8.88888 0 9.3545V10.8783C0 11.3439 0.374013 11.7249 0.831163 11.7249H14.2961C14.7533 11.7249 15.1273 11.3439 15.1273 10.8783V9.3545C15.1688 8.88888 14.7948 8.50793 14.3377 8.50793ZM8.43637 12.7831H0.831163C0.374013 12.7831 0 13.164 0 13.6296V15.1534C0 15.6191 0.374013 16 0.831163 16H8.43637C8.89352 16 9.26753 15.6191 9.26753 15.1534V13.6296C9.26753 13.164 8.89352 12.7831 8.43637 12.7831ZM15.1688 4.27514H0.831163C0.374013 4.27514 0 4.65608 0 5.12167V6.6455C0 7.1111 0.374013 7.49207 0.831163 7.49207H15.1688C15.626 7.49207 16 7.1111 16 6.6455V5.12167C16 4.65608 15.626 4.27514 15.1688 4.27514Z" fill="#0BA4DB"/>
</svg>
