<svg width="101" height="24" viewBox="0 0 101 24" fill="none" xmlns="http://www.w3.org/2000/svg">
<path d="M34.3824 8.16797H32.7764V16.4137H34.3824V8.16797Z" fill="#FDFDFD"/>
<path d="M40.5991 13.4863C40.5991 14.6244 39.8653 15.1357 38.8883 15.1357C37.9114 15.1357 37.2584 14.6244 37.2584 13.544V10.6055H35.6523V13.9161C35.6523 15.5644 36.6881 16.5284 38.4108 16.5284C39.4935 16.5284 40.0986 16.1305 40.5044 15.6808H40.5981L40.7376 16.413H42.2151V10.6055H40.5991V13.4863Z" fill="#FDFDFD"/>
<path d="M56.3527 15.2622C55.1773 15.2622 54.5144 14.728 54.4097 13.9501H59.5069C59.5305 13.7884 59.5421 13.6251 59.5418 13.4617C59.5309 11.3726 57.9468 10.4883 56.252 10.4883C54.2851 10.4883 52.8066 11.6621 52.8066 13.5552C52.8066 15.3547 54.2273 16.5276 56.3567 16.5276C58.1382 16.5276 59.3245 15.7387 59.5697 14.5301H57.9826C57.7843 15.0066 57.214 15.2622 56.3527 15.2622ZM56.253 11.7546C57.2778 11.7546 57.871 12.2073 57.9647 12.8489H54.4446C54.5951 12.2341 55.1893 11.7546 56.248 11.7546H56.253Z" fill="#FDFDFD"/>
<path d="M62.2703 11.4382H62.1706L62.0191 10.6016H60.5596V16.4121H62.1656V13.9152C62.1656 12.7881 62.8166 12.1614 64.0279 12.1614C64.2479 12.1583 64.4677 12.1777 64.6838 12.2191V10.6045H64.4595C63.3888 10.6045 62.7239 10.8254 62.2703 11.4382Z" fill="#FDFDFD"/>
<path d="M72.5701 14.6005H72.4774L71.1036 10.9656H69.4507L68.1009 14.5896H67.9962L66.7162 10.6055H65.1211L67.088 16.413H68.8346L70.2313 12.7074H70.324L71.6978 16.413H73.4554L75.4223 10.6055H73.8272L72.5701 14.6005Z" fill="#FDFDFD"/>
<path d="M81.8146 14.724V12.7802C81.8146 11.2005 80.4757 10.4922 78.8109 10.4922C77.0424 10.4922 75.9368 11.3288 75.7852 12.5812H77.3913C77.5079 12.0351 77.9735 11.7337 78.8109 11.7337C79.6483 11.7337 80.2066 12.047 80.2066 12.6857V12.8339L77.5877 13.0328C76.3774 13.1264 75.4941 13.6606 75.4941 14.7986C75.4941 15.9714 76.507 16.5285 77.9964 16.5285C79.1987 16.5285 79.9314 16.1943 80.38 15.6899H80.4598C80.712 16.2569 81.2234 16.4131 81.7797 16.4131H82.4546V15.2303H82.3031C81.9651 15.2303 81.8146 15.0682 81.8146 14.724ZM80.2076 14.1082C80.2076 15.0264 79.111 15.3278 78.1709 15.3278C77.5308 15.3278 77.1121 15.1657 77.1121 14.724C77.1121 14.3261 77.473 14.1321 78.0094 14.0853L80.2086 13.9232L80.2076 14.1082Z" fill="#FDFDFD"/>
<path d="M87.7523 10.6055L85.8781 14.8104H85.7734L83.8762 10.6055H82.1416L84.8532 16.413H86.7743L89.4739 10.6055H87.7523Z" fill="#FDFDFD"/>
<path d="M94.6076 14.5301C94.4082 15.0066 93.839 15.2622 92.9777 15.2622C91.8023 15.2622 91.1393 14.728 91.0347 13.9501H96.1319C96.1554 13.7884 96.1671 13.6251 96.1668 13.4617C96.1558 11.3726 94.5717 10.4883 92.877 10.4883C90.9101 10.4883 89.4326 11.6621 89.4326 13.5552C89.4326 15.3547 90.8522 16.5276 92.9817 16.5276C94.7631 16.5276 95.9495 15.7387 96.1947 14.5301H94.6076ZM92.873 11.7546C93.8978 11.7546 94.491 12.2073 94.5847 12.8489H91.0656C91.2181 12.2341 91.8103 11.7546 92.869 11.7546H92.873Z" fill="#FDFDFD"/>
<path d="M30.1668 10.1774C30.1668 9.6661 30.5277 9.44626 30.9932 9.44626C31.2098 9.44826 31.425 9.47938 31.6333 9.53877L31.9014 8.37687C31.5127 8.2397 31.1035 8.16907 30.6912 8.16797C29.5038 8.16797 28.5498 8.79567 28.5498 10.0958V10.6052H27.1641V11.8775H28.5498V16.4127H30.1668V11.8765H31.9772V10.6052H30.1668V10.1774Z" fill="#FDFDFD"/>
<path d="M45.7583 8.96875H44.2629L44.1791 10.6062H42.915V11.8785H44.1492V14.7414C44.1492 15.7163 44.6477 16.532 46.1431 16.532C46.5307 16.532 46.9172 16.4893 47.2955 16.4047V15.1821C47.0774 15.2309 46.855 15.2582 46.6316 15.2637C45.829 15.2637 45.7593 14.8111 45.7593 14.4619V11.8755H47.3543V10.6062H45.7583V8.96875Z" fill="#FDFDFD"/>
<path d="M50.8022 8.96875H49.3118L49.228 10.6062H47.9609V11.8785H49.1951V14.7414C49.1951 15.7163 49.6936 16.532 51.189 16.532C51.5757 16.5308 51.9612 16.4871 52.3384 16.4017V15.1821C52.1203 15.2309 51.8979 15.2582 51.6745 15.2637C50.8719 15.2637 50.8022 14.8111 50.8022 14.4619V11.8755H52.4022V10.6062H50.8022V8.96875Z" fill="#FDFDFD"/>
<path d="M4.80859 7.94836C4.80859 7.01626 5.08175 6.22043 5.65498 5.64844L6.6519 6.64321C5.54233 7.74642 6.51133 11.1764 9.67058 14.3319C12.8298 17.4873 16.2692 18.4532 17.3778 17.348L18.3747 18.3428C16.5045 20.209 12.2446 18.8849 8.67864 15.3256C6.20528 12.8566 4.80859 10.0553 4.80859 7.94836Z" fill="#009A46"/>
<path d="M11.0949 19.2001C10.1608 19.2001 9.36329 18.9275 8.78906 18.3555L9.78598 17.3607C10.8936 18.4659 14.3309 17.499 17.4932 14.3446C20.6554 11.1901 21.6224 7.76013 20.5148 6.65493L21.5118 5.66016C23.383 7.52636 22.0551 11.777 18.4881 15.3354C16.0137 17.8074 13.2064 19.2001 11.0949 19.2001Z" fill="#FF5805"/>
<path d="M18.8174 13.9109C18.2123 12.172 16.9761 10.3138 15.3361 8.67838C11.7702 5.11906 7.51032 3.79402 5.64009 5.66122C5.5075 5.79452 5.62215 6.12379 5.8973 6.39835C6.17245 6.67291 6.50243 6.78631 6.63502 6.65401C7.7436 5.54881 11.181 6.51573 14.3422 9.67117C15.8376 11.1633 16.9521 12.8296 17.4895 14.3715C17.96 15.7234 17.9142 16.8137 17.3659 17.3608C17.2323 17.4931 17.3479 17.8234 17.6221 18.0969C17.8962 18.3705 18.2272 18.4859 18.3608 18.3526C19.3188 17.3966 19.4813 15.8169 18.8174 13.9109Z" fill="#F5AFCB"/>
<path d="M21.5091 5.66316C20.549 4.70519 18.9679 4.54304 17.0558 5.20655C15.3142 5.80939 13.451 7.04391 11.812 8.67932C8.24605 12.2376 6.91816 16.4883 8.78838 18.3555C8.92197 18.4878 9.25195 18.3734 9.5271 18.0999C9.80225 17.8263 9.91689 17.496 9.78331 17.3627C8.67274 16.2575 9.64473 12.8275 12.807 9.67211C14.3023 8.17994 15.9722 7.06778 17.5174 6.5316C18.8722 6.06306 19.9649 6.10782 20.5142 6.65495C20.6467 6.78725 20.9777 6.67286 21.2519 6.3983C21.526 6.12374 21.6417 5.79546 21.5091 5.66316Z" fill="#FF9B00"/>
</svg>
