<svg width="58" height="24" viewBox="0 0 58 24" fill="none" xmlns="http://www.w3.org/2000/svg">
<path d="M4.07611 9.36274C4.07611 8.74069 4.59167 8.50143 5.44556 8.50143C6.67 8.50143 8.21667 8.86829 9.44111 9.52224V5.77396C8.10389 5.2476 6.78278 5.04025 5.44556 5.04025C2.175 5.04025 0 6.73097 0 9.55414C0 13.9564 6.12222 13.2546 6.12222 15.1526C6.12222 15.8864 5.47778 16.1256 4.57556 16.1256C3.23833 16.1256 1.53056 15.5833 0.177222 14.8496V18.6457C1.67556 19.2837 3.19 19.5549 4.57556 19.5549C7.92667 19.5549 10.2306 17.912 10.2306 15.0569C10.2144 10.3038 4.07611 11.1492 4.07611 9.36274ZM14.9672 1.85022L11.0361 2.67963L11.02 15.4557C11.02 17.8163 12.8083 19.5549 15.1928 19.5549C16.5139 19.5549 17.4806 19.3156 18.0122 19.0285V15.7907C17.4967 15.998 14.9511 16.7317 14.9511 14.3711V8.70879H18.0122V5.3114H14.9511L14.9672 1.85022ZM23.0228 6.49171L22.765 5.3114H19.285V19.2678H23.3128V9.80935C24.2633 8.58118 25.8744 8.80449 26.3739 8.97994V5.3114C25.8583 5.12 23.9733 4.7691 23.0228 6.49171ZM27.3567 5.3114H31.4006V19.2678H27.3567V5.3114ZM27.3567 4.09919L31.4006 3.23788V0L27.3567 0.845358V4.09919ZM39.8106 5.04025C38.2317 5.04025 37.2167 5.77396 36.6528 6.28436L36.4433 5.29545H32.8989V23.8933L36.9267 23.048L36.9428 18.5341C37.5228 18.9488 38.3767 19.5389 39.7944 19.5389C42.6783 19.5389 45.3044 17.2421 45.3044 12.1859C45.2883 7.56037 42.63 5.04025 39.8106 5.04025ZM38.8439 16.0299C37.8933 16.0299 37.3294 15.695 36.9428 15.2802L36.9267 9.36274C37.3456 8.90019 37.9256 8.58118 38.8439 8.58118C40.31 8.58118 41.325 10.2081 41.325 12.2976C41.325 14.4349 40.3261 16.0299 38.8439 16.0299ZM58 12.3454C58 8.26218 56.0022 5.04025 52.1839 5.04025C48.3494 5.04025 46.0294 8.26218 46.0294 12.3135C46.0294 17.1145 48.7683 19.5389 52.6994 19.5389C54.6167 19.5389 56.0667 19.1083 57.1622 18.5022V15.3122C56.0667 15.8545 54.81 16.1894 53.215 16.1894C51.6522 16.1894 50.2667 15.6471 50.0894 13.765H57.9678C57.9678 13.5576 58 12.7282 58 12.3454ZM50.0411 10.8302C50.0411 9.02779 51.1528 8.27813 52.1678 8.27813C53.1506 8.27813 54.1978 9.02779 54.1978 10.8302H50.0411Z" fill="#6772E5"/>
</svg>
