<svg width="115" height="345" viewBox="0 0 115 345" fill="none" xmlns="http://www.w3.org/2000/svg">
<path fill-rule="evenodd" clip-rule="evenodd" d="M107.069 50.9977C130.293 38.6033 143.688 9.41772 169.443 3.97241C194.741 -1.37625 239.681 -3.45872 244.016 22.0434C251.509 66.1275 181.485 101.542 193.357 144.654C201.331 173.613 275.987 128.446 281.447 157.982C286.807 186.972 218.555 171.483 202.938 196.479C192.774 212.746 222.117 230.136 224.47 249.177C228.381 280.835 252.228 336.708 221.134 343.767C185.327 351.896 179.478 272.968 143.146 267.639C115.56 263.593 109.029 316.553 81.994 323.36C58.9202 329.17 30.599 318.141 15.4299 299.798C-0.0117181 281.127 -2.49114 252.232 3.82602 228.841C10.1917 205.27 34.2741 191.705 49.7261 172.807C57.6991 163.056 73.1301 156.429 73.3331 143.832C73.7671 116.895 42.2317 92.2691 51.4318 66.952C58.0959 48.6136 89.8593 60.1818 107.069 50.9977Z" fill="url(#paint0_linear_5770_18132)"/>
<defs>
<linearGradient id="paint0_linear_5770_18132" x1="38.2375" y1="286.35" x2="398.623" y2="174.565" gradientUnits="userSpaceOnUse">
<stop stop-color="#5F42E2"/>
<stop offset="1" stop-color="#9B42C0"/>
</linearGradient>
</defs>
</svg>
