<svg width="128" height="267" viewBox="0 0 128 267" fill="none" xmlns="http://www.w3.org/2000/svg">
<path fill-rule="evenodd" clip-rule="evenodd" d="M-5.57753 13.0692C11.8422 23.2081 15.0432 48.2319 31.2535 60.2127C43.1532 69.0075 67.0913 58.343 73.6408 71.6181C81.2623 87.0659 52.1276 106.701 61.3625 121.24C75.0229 142.747 124.927 131.742 127.905 157.051C130.494 179.051 79.2496 166.471 68.9951 186.102C58.0586 207.038 91.1383 237.436 76.312 255.82C63.747 271.399 37.1536 248.749 17.2101 250.311C0.244888 251.639 -14.3452 263.123 -31.3251 264.249C-50.7111 265.533 -76.5522 272.61 -88.5566 257.32C-102.338 239.768 -97.0768 211.8 -88.7706 191.083C-80.9282 171.523 -31.2955 163.618 -44.3616 147.089C-72.9734 110.895 -142.584 127.987 -168.712 89.9572C-182.164 70.3768 -132.679 60.2058 -114.769 44.6061C-98.7802 30.6793 -88.5084 8.24236 -68.1434 2.36052C-47.5903 -3.57565 -24.0699 2.30612 -5.57753 13.0692Z" fill="url(#paint0_linear_5770_18131)"/>
<defs>
<linearGradient id="paint0_linear_5770_18131" x1="-139.825" y1="188.33" x2="236.952" y2="163.47" gradientUnits="userSpaceOnUse">
<stop stop-color="#5F42E2"/>
<stop offset="1" stop-color="#9B42C0"/>
</linearGradient>
</defs>
</svg>
