<svg width="48" height="48" viewBox="0 0 48 48" fill="none" xmlns="http://www.w3.org/2000/svg">
<path d="M18.1361 17.8726V30.4215C18.1361 31.3207 18.5466 32.0048 19.3675 32.4739C20.1885 32.943 20.9899 32.9039 21.7718 32.3566L31.506 26.1408C32.2487 25.6717 32.6201 25.0071 32.6201 24.1471C32.6201 23.287 32.2487 22.6224 31.506 22.1533L21.7718 15.9375C20.9899 15.3902 20.1885 15.3511 19.3675 15.8202C18.5466 16.2893 18.1361 16.9735 18.1361 17.8726ZM24.0001 47.6029C20.7553 47.6029 17.7061 46.9868 14.8523 45.7546C11.9985 44.524 9.51606 42.8531 7.40504 40.7421C5.29401 38.6311 3.62317 36.1487 2.39251 33.2949C1.1603 30.4411 0.544189 27.3918 0.544189 24.1471C0.544189 20.9023 1.1603 17.8531 2.39251 14.9993C3.62317 12.1455 5.29401 9.66305 7.40504 7.55202C9.51606 5.44099 11.9985 3.76937 14.8523 2.53716C17.7061 1.3065 20.7553 0.691177 24.0001 0.691177C27.2448 0.691177 30.2941 1.3065 33.1479 2.53716C36.0017 3.76937 38.4841 5.44099 40.5951 7.55202C42.7061 9.66305 44.377 12.1455 45.6076 14.9993C46.8398 17.8531 47.456 20.9023 47.456 24.1471C47.456 27.3918 46.8398 30.4411 45.6076 33.2949C44.377 36.1487 42.7061 38.6311 40.5951 40.7421C38.4841 42.8531 36.0017 44.524 33.1479 45.7546C30.2941 46.9868 27.2448 47.6029 24.0001 47.6029Z" fill="url(#paint0_linear_7_14803)"/>
<defs>
<linearGradient id="paint0_linear_7_14803" x1="5.43546" y1="33.7807" x2="64.6019" y2="30.2946" gradientUnits="userSpaceOnUse">
<stop stop-color="#5F42E2"/>
<stop offset="1" stop-color="#9B42C0"/>
</linearGradient>
</defs>
</svg>
