<svg width="49" height="48" viewBox="0 0 49 48" fill="none" xmlns="http://www.w3.org/2000/svg">
<circle opacity="0.1" cx="24.5001" cy="23.8214" r="23.8214" fill="url(#paint0_linear_389_144)"/>
<circle opacity="0.3" cx="24.4998" cy="24.1839" r="21.7195" fill="url(#paint1_linear_389_144)"/>
<path d="M19.6829 18.7881V29.0961C19.6829 29.8347 20.0201 30.3967 20.6945 30.782C21.3688 31.1674 22.0271 31.1353 22.6694 30.6857L30.6653 25.5799C31.2754 25.1945 31.5805 24.6486 31.5805 23.9421C31.5805 23.2357 31.2754 22.6898 30.6653 22.3044L22.6694 17.1986C22.0271 16.749 21.3688 16.7169 20.6945 17.1022C20.0201 17.4876 19.6829 18.0495 19.6829 18.7881ZM24.4998 43.2095C21.8344 43.2095 19.3297 42.7034 16.9855 41.6912C14.6413 40.6803 12.6022 39.3078 10.8681 37.5738C9.13406 35.8397 7.76158 33.8006 6.75069 31.4564C5.73851 29.1122 5.23242 26.6075 5.23242 23.9421C5.23242 21.2768 5.73851 18.7721 6.75069 16.4279C7.76158 14.0837 9.13406 12.0446 10.8681 10.3105C12.6022 8.57644 14.6413 7.20332 16.9855 6.19114C19.3297 5.18025 21.8344 4.6748 24.4998 4.6748C27.1651 4.6748 29.6698 5.18025 32.014 6.19114C34.3582 7.20332 36.3973 8.57644 38.1314 10.3105C39.8655 12.0446 41.2379 14.0837 42.2488 16.4279C43.261 18.7721 43.7671 21.2768 43.7671 23.9421C43.7671 26.6075 43.261 29.1122 42.2488 31.4564C41.2379 33.8006 39.8655 35.8397 38.1314 37.5738C36.3973 39.3078 34.3582 40.6803 32.014 41.6912C29.6698 42.7034 27.1651 43.2095 24.4998 43.2095Z" fill="url(#paint2_linear_389_144)"/>
<defs>
<linearGradient id="paint0_linear_389_144" x1="5.64621" y1="33.6052" x2="65.7348" y2="30.0648" gradientUnits="userSpaceOnUse">
<stop stop-color="#5F42E2"/>
<stop offset="1" stop-color="#9B42C0"/>
</linearGradient>
<linearGradient id="paint1_linear_389_144" x1="7.30947" y1="33.1044" x2="62.0961" y2="29.8764" gradientUnits="userSpaceOnUse">
<stop stop-color="#5F42E2"/>
<stop offset="1" stop-color="#9B42C0"/>
</linearGradient>
<linearGradient id="paint2_linear_389_144" x1="9.25025" y1="31.8555" x2="57.8513" y2="28.9919" gradientUnits="userSpaceOnUse">
<stop stop-color="#5F42E2"/>
<stop offset="1" stop-color="#9B42C0"/>
</linearGradient>
</defs>
</svg>
