<svg width="56" height="57" viewBox="0 0 56 57" fill="none" xmlns="http://www.w3.org/2000/svg">
<path d="M12.2428 3.75733C12.8 4.31449 13.2419 4.97592 13.5435 5.70388C13.845 6.43184 14.0002 7.21206 14.0002 8C14.0002 8.78794 13.845 9.56816 13.5435 10.2961C13.2419 11.0241 12.8 11.6855 12.2428 12.2427M12.2428 12.2427L10.3568 10.3567M12.2428 12.2427L14.0001 14M10.3575 5.64267C10.6671 5.95221 10.9127 6.31971 11.0803 6.72419C11.2478 7.12866 11.3341 7.56219 11.3341 8C11.3341 8.43781 11.2478 8.87134 11.0803 9.27581C10.9127 9.68029 10.6671 10.0478 10.3575 10.3573L8.47148 8.47133M8.47148 8.47133C8.53515 8.40984 8.58594 8.33627 8.62088 8.25494C8.65582 8.1736 8.67421 8.08612 8.67498 7.9976C8.67575 7.90908 8.65888 7.8213 8.62536 7.73936C8.59184 7.65743 8.54233 7.583 8.47974 7.5204C8.41714 7.45781 8.34271 7.40831 8.26078 7.37479C8.17885 7.34127 8.09106 7.3244 8.00254 7.32517C7.91402 7.32594 7.82654 7.34433 7.74521 7.37927C7.66387 7.4142 7.59031 7.46499 7.52881 7.52867M8.47148 8.47133L7.52881 7.52867M5.64281 10.3573C5.1318 9.84768 4.80086 9.18533 4.70014 8.47067M3.75748 12.2427C2.96695 11.4526 2.41284 10.4573 2.15759 9.36919C1.90233 8.28104 1.9561 7.14323 2.31281 6.084M7.52881 7.52867L2.00014 2" stroke="url(#paint0_linear_5755_20924)" stroke-width="2" stroke-linecap="round" stroke-linejoin="round"/>
<path d="M32 13C20.98 13 12 21.98 12 33C12 44.02 20.98 53 32 53C43.02 53 52 44.02 52 33C52 21.98 43.02 13 32 13ZM30 29V23C30 21.9 30.9 21 32 21C33.1 21 34 21.9 34 23V29H37.58C38.48 29 38.92 30.08 38.28 30.7L32.7 36.28C32.3 36.68 31.68 36.68 31.28 36.28L25.7 30.7C25.5618 30.559 25.4684 30.3803 25.4316 30.1863C25.3948 29.9923 25.4163 29.7918 25.4933 29.61C25.5703 29.4282 25.6994 29.2732 25.8643 29.1647C26.0292 29.0561 26.2226 28.9988 26.42 29H30ZM40 43H24C22.9 43 22 42.1 22 41C22 39.9 22.9 39 24 39H40C41.1 39 42 39.9 42 41C42 42.1 41.1 43 40 43Z" fill="url(#paint1_linear_5755_20924)"/>
<defs>
<linearGradient id="paint0_linear_5755_20924" x1="3.25033" y1="10.4643" x2="18.3865" y2="9.57236" gradientUnits="userSpaceOnUse">
<stop stop-color="#5F42E2"/>
<stop offset="1" stop-color="#9B42C0"/>
</linearGradient>
<linearGradient id="paint1_linear_5755_20924" x1="16.1706" y1="41.2143" x2="66.6198" y2="38.2418" gradientUnits="userSpaceOnUse">
<stop stop-color="#5F42E2"/>
<stop offset="1" stop-color="#9B42C0"/>
</linearGradient>
</defs>
</svg>
