<svg width="44" height="43" viewBox="0 0 44 43" fill="none" xmlns="http://www.w3.org/2000/svg">
<path d="M22.4 14.9984L18.4 10.9984H24C26.2 10.9984 28 12.7984 28 14.9984V20.5984L24 16.5984V14.9984H22.4ZM44 14.9984V10.9984H36C33.8 10.9984 32 12.7984 32 14.9984V18.9984C32 21.1984 33.8 22.9984 36 22.9984H40V26.9984H34.4L38.4 30.9984H40C42.2 30.9984 44 29.1984 44 26.9984V22.9984C44 20.7984 42.2 18.9984 40 18.9984H36V14.9984H44ZM42.2 39.9984L39.6 42.5984L26.8 29.7984C26.2 30.3984 25.2 30.9984 24 30.9984H16V18.7984L12 14.7984V30.9984H8V22.9984H4V30.9984H0V14.9984C0 12.7984 1.8 10.9984 4 10.9984H8.2L0.2 2.99844L2.8 0.398438L42.2 39.9984ZM8 14.9984H4V18.9984H8V14.9984ZM24 26.7984L20 22.7984V26.9984H24V26.7984Z" fill="url(#paint0_linear_5755_19533)"/>
<defs>
<linearGradient id="paint0_linear_5755_19533" x1="4.58768" y1="30.1645" x2="60.0651" y2="26.7563" gradientUnits="userSpaceOnUse">
<stop stop-color="#5F42E2"/>
<stop offset="1" stop-color="#9B42C0"/>
</linearGradient>
</defs>
</svg>
