<svg width="40" height="42" viewBox="0 0 40 42" fill="none" xmlns="http://www.w3.org/2000/svg">
<path d="M3 20C3 15.4913 4.79107 11.1673 7.97919 7.97919C11.1673 4.79107 15.4913 3 20 3C24.5087 3 28.8327 4.79107 32.0208 7.97919C35.2089 11.1673 37 15.4913 37 20V24H32.5C32.1022 24 31.7206 24.158 31.4393 24.4393C31.158 24.7206 31 25.1022 31 25.5V38.5C31 39.328 31.672 40 32.5 40H34C35.5913 40 37.1174 39.3679 38.2426 38.2426C39.3679 37.1174 40 35.5913 40 34V20C40 8.954 31.046 0 20 0C8.954 0 0 8.954 0 20V34C0 35.5913 0.632141 37.1174 1.75736 38.2426C2.88258 39.3679 4.4087 40 6 40H7.5C7.89782 40 8.27936 39.842 8.56066 39.5607C8.84196 39.2794 9 38.8978 9 38.5V25.5C9 25.1022 8.84196 24.7206 8.56066 24.4393C8.27936 24.158 7.89782 24 7.5 24H3V20ZM21.5 19.5C21.5 19.1022 21.342 18.7206 21.0607 18.4393C20.7794 18.158 20.3978 18 20 18C19.6022 18 19.2206 18.158 18.9393 18.4393C18.658 18.7206 18.5 19.1022 18.5 19.5V40.5C18.5 40.8978 18.658 41.2794 18.9393 41.5607C19.2206 41.842 19.6022 42 20 42C20.3978 42 20.7794 41.842 21.0607 41.5607C21.342 41.2794 21.5 40.8978 21.5 40.5V19.5ZM13.5 24C13.8978 24 14.2794 24.158 14.5607 24.4393C14.842 24.7206 15 25.1022 15 25.5V34.5C15 34.8978 14.842 35.2794 14.5607 35.5607C14.2794 35.842 13.8978 36 13.5 36C13.1022 36 12.7206 35.842 12.4393 35.5607C12.158 35.2794 12 34.8978 12 34.5V25.5C12 25.1022 12.158 24.7206 12.4393 24.4393C12.7206 24.158 13.1022 24 13.5 24ZM28 25.5C28 25.1022 27.842 24.7206 27.5607 24.4393C27.2794 24.158 26.8978 24 26.5 24C26.1022 24 25.7206 24.158 25.4393 24.4393C25.158 24.7206 25 25.1022 25 25.5V34.5C25 34.8978 25.158 35.2794 25.4393 35.5607C25.7206 35.842 26.1022 36 26.5 36C26.8978 36 27.2794 35.842 27.5607 35.5607C27.842 35.2794 28 34.8978 28 34.5V25.5Z" fill="url(#paint0_linear_5755_20922)"/>
<defs>
<linearGradient id="paint0_linear_5755_20922" x1="4.17062" y1="29.625" x2="54.636" y2="26.7931" gradientUnits="userSpaceOnUse">
<stop stop-color="#5F42E2"/>
<stop offset="1" stop-color="#9B42C0"/>
</linearGradient>
</defs>
</svg>
