<svg width="24" height="24" viewBox="0 0 24 24" fill="none" xmlns="http://www.w3.org/2000/svg">
<g clip-path="url(#clip0_5672_18924)">
<path d="M23.4438 12.2242C23.4438 11.2409 23.364 10.5234 23.1913 9.7793H11.9634V14.2173H18.5539C18.4211 15.3202 17.7036 16.9811 16.1091 18.0972L16.0867 18.2458L19.6368 20.996L19.8827 21.0205C22.1416 18.9344 23.4438 15.8649 23.4438 12.2242Z" fill="#4285F4"/>
<path d="M11.9635 23.9178C15.1923 23.9178 17.9029 22.8548 19.8828 21.0211L16.1092 18.0978C15.0993 18.8021 13.744 19.2937 11.9635 19.2937C8.80107 19.2937 6.11701 17.2076 5.16021 14.3242L5.01997 14.3361L1.32855 17.193L1.28027 17.3271C3.24681 21.2337 7.28623 23.9178 11.9635 23.9178Z" fill="#34A853"/>
<path d="M5.16039 14.3248C4.90794 13.5807 4.76183 12.7834 4.76183 11.9596C4.76183 11.1357 4.90794 10.3385 5.14711 9.59439L5.14042 9.43592L1.40275 6.5332L1.28046 6.59137C0.469952 8.21247 0.00488281 10.0329 0.00488281 11.9596C0.00488281 13.8863 0.469952 15.7066 1.28046 17.3277L5.16039 14.3248Z" fill="#FBBC05"/>
<path d="M11.9635 4.62403C14.209 4.62403 15.7238 5.59402 16.5875 6.40461L19.9625 3.10928C17.8897 1.1826 15.1923 0 11.9635 0C7.28623 0 3.24681 2.68406 1.28027 6.59056L5.14693 9.59359C6.11701 6.7102 8.80107 4.62403 11.9635 4.62403Z" fill="#EB4335"/>
</g>
<defs>
<clipPath id="clip0_5672_18924">
<rect width="23.46" height="24" fill="white"/>
</clipPath>
</defs>
</svg>
