<svg width="64" height="64" viewBox="0 0 64 64" fill="none" xmlns="http://www.w3.org/2000/svg">
<path d="M25.791 27.7263L36.8806 27.8156L38.3462 36.5062H24.3087L25.791 27.7263ZM38.066 39.4598C36.6426 43.9195 38.066 39.4598 31.3278 63.3964C24.3596 39.3786 25.9708 43.7841 24.5635 39.3786L38.066 39.4598ZM21.816 39.122C22.7596 42.0769 27.7136 57.8195 29.6863 64.0008C25.0733 56.5013 16.2922 41.2917 12.092 34.4522L21.816 39.122ZM40.8386 39.122L50.563 34.4506C46.3641 41.2892 38.1319 55.8965 33.5179 63.3969C35.4956 57.203 39.8948 42.0814 40.8389 39.1224L40.8386 39.122ZM51.9159 30.6032L40.7946 35.9458L39.3278 27.2491L46.1733 23.8907L51.9159 30.6032ZM24.4517 17.1016H38.2071L43.8913 21.8018L37.6578 24.86H25.0009L18.7815 21.8099L24.4517 17.1016ZM16.4673 23.8826L23.3301 27.2483L21.862 35.9451L10.7383 30.6009L16.4673 23.8826Z" fill="url(#paint0_linear_5858_18351)"/>
<path d="M30.1074 0H32.6002V10.1742H30.1074V0Z" fill="url(#paint1_linear_5858_18351)"/>
<path d="M11.5723 11.6959L13.1259 9.37891L20.039 15.9394L18.4854 18.2563L11.5723 11.6959Z" fill="url(#paint2_linear_5858_18351)"/>
<path d="M44.2196 18.2588L42.666 15.9405L49.9684 9.01562L51.5226 11.3319L44.2196 18.2588Z" fill="url(#paint3_linear_5858_18351)"/>
<path d="M20.3037 4.68487L22.5497 3.39844L25.0302 9.52892L22.7841 10.8153L20.3037 4.68487Z" fill="url(#paint4_linear_5858_18351)"/>
<path d="M37.5479 9.89337L40.1883 3.39844L42.4306 4.68928L39.7902 11.1842L37.5479 9.89337Z" fill="url(#paint5_linear_5858_18351)"/>
<path d="M12.7003 18.5103C11.4393 18.1547 10.3054 17.2054 9.60364 15.8592C8.90061 14.5131 8.68301 12.9227 8.98679 11.3788L6.56095 10.7031C6.25593 12.244 5.46551 13.5534 4.33287 14.3876C3.20147 15.2226 1.86482 15.4808 0.567868 15.1194L0 18.0057C2.6404 18.8053 4.33968 21.9527 3.71104 25.1385L6.13687 25.8142C6.76675 22.6306 9.4548 20.6486 12.1323 21.3964L12.7003 18.5103ZM5.86656 20.7062C5.51692 19.588 4.98066 18.5641 4.29065 17.6938C4.75809 17.4872 5.21252 17.2276 5.64649 16.9082C6.07734 16.591 6.47349 16.2259 6.83493 15.8224C7.18581 16.9428 7.73324 17.9579 8.42263 18.8282C7.47287 19.2443 6.60296 19.8823 5.86656 20.7062Z" fill="url(#paint6_linear_5858_18351)"/>
<path d="M57.8552 25.0936L60.2569 24.2999C59.4621 20.8979 61.1422 17.361 63.9995 16.4161L63.3325 13.5585C61.9332 13.9627 60.4962 13.8056 59.2439 12.9669C57.9928 12.1253 57.092 10.7532 56.7058 9.10547L54.3041 9.89916C54.6903 11.547 54.5124 13.2761 53.8069 14.7639C53.1002 16.2539 51.947 17.3264 50.5615 17.7837L51.2286 20.6413C51.2335 20.6398 51.2385 20.6384 51.2435 20.6362C54.0989 19.7023 57.0617 21.6976 57.8552 25.0936ZM55.9755 16.2228C56.26 15.6238 56.4727 14.9946 56.6388 14.3529C57.0598 14.8006 57.5136 15.2085 58.017 15.5471C58.5241 15.8879 59.056 16.1409 59.5997 16.3386C58.8335 17.3565 58.2637 18.5581 57.9277 19.8645C57.0722 18.9513 56.0636 18.2734 54.965 17.8713C55.3444 17.3683 55.6897 16.8254 55.9755 16.2228Z" fill="url(#paint7_linear_5858_18351)"/>
<path d="M48.4346 42.4405L50.7326 38.8047L52.7246 40.5875L50.4265 44.2233L48.4346 42.4405Z" fill="url(#paint8_linear_5858_18351)"/>
<path d="M51.8281 26.6188L55.7685 30.8343L52.3544 36.2367L54.3463 38.0195L59.1305 30.4456L53.4933 24.4141L51.8281 26.6188Z" fill="url(#paint9_linear_5858_18351)"/>
<path d="M9.02633 39.3152L3.72949 30.8952L7.64383 25.8984L9.46579 27.921L6.97298 31.1017L11.0213 37.5368L9.02633 39.3152Z" fill="url(#paint10_linear_5858_18351)"/>
<defs>
<linearGradient id="paint0_linear_5858_18351" x1="15.0317" y1="50.1823" x2="67.0072" y2="47.4935" gradientUnits="userSpaceOnUse">
<stop stop-color="#5F42E2"/>
<stop offset="1" stop-color="#9B42C0"/>
</linearGradient>
<linearGradient id="paint1_linear_5858_18351" x1="30.3673" y1="7.17641" x2="33.5216" y2="7.13088" gradientUnits="userSpaceOnUse">
<stop stop-color="#5F42E2"/>
<stop offset="1" stop-color="#9B42C0"/>
</linearGradient>
<linearGradient id="paint2_linear_5858_18351" x1="12.4551" y1="15.6407" x2="23.1369" y2="15.0404" gradientUnits="userSpaceOnUse">
<stop stop-color="#5F42E2"/>
<stop offset="1" stop-color="#9B42C0"/>
</linearGradient>
<linearGradient id="paint3_linear_5858_18351" x1="43.5895" y1="15.5354" x2="54.7629" y2="14.9046" gradientUnits="userSpaceOnUse">
<stop stop-color="#5F42E2"/>
<stop offset="1" stop-color="#9B42C0"/>
</linearGradient>
<linearGradient id="paint4_linear_5858_18351" x1="20.7965" y1="8.63" x2="26.7699" y2="8.40572" gradientUnits="userSpaceOnUse">
<stop stop-color="#5F42E2"/>
<stop offset="1" stop-color="#9B42C0"/>
</linearGradient>
<linearGradient id="paint5_linear_5858_18351" x1="38.057" y1="8.89019" x2="44.2282" y2="8.66215" gradientUnits="userSpaceOnUse">
<stop stop-color="#5F42E2"/>
<stop offset="1" stop-color="#9B42C0"/>
</linearGradient>
<linearGradient id="paint6_linear_5858_18351" x1="1.3242" y1="21.3618" x2="17.3585" y2="20.5678" gradientUnits="userSpaceOnUse">
<stop stop-color="#5F42E2"/>
<stop offset="1" stop-color="#9B42C0"/>
</linearGradient>
<linearGradient id="paint7_linear_5858_18351" x1="51.9626" y1="20.3828" x2="68.9283" y2="19.5426" gradientUnits="userSpaceOnUse">
<stop stop-color="#5F42E2"/>
<stop offset="1" stop-color="#9B42C0"/>
</linearGradient>
<linearGradient id="paint8_linear_5858_18351" x1="48.8819" y1="42.6268" x2="54.2995" y2="42.374" gradientUnits="userSpaceOnUse">
<stop stop-color="#5F42E2"/>
<stop offset="1" stop-color="#9B42C0"/>
</linearGradient>
<linearGradient id="paint9_linear_5858_18351" x1="52.5895" y1="34.0108" x2="61.8223" y2="33.7188" gradientUnits="userSpaceOnUse">
<stop stop-color="#5F42E2"/>
<stop offset="1" stop-color="#9B42C0"/>
</linearGradient>
<linearGradient id="paint10_linear_5858_18351" x1="4.48977" y1="35.3621" x2="13.7089" y2="35.0669" gradientUnits="userSpaceOnUse">
<stop stop-color="#5F42E2"/>
<stop offset="1" stop-color="#9B42C0"/>
</linearGradient>
</defs>
</svg>
