<svg width="64" height="45" viewBox="0 0 64 45" fill="none" xmlns="http://www.w3.org/2000/svg">
<path d="M52.6201 44.4549C58.7239 44.4549 63.6909 39.4694 63.6909 33.3394C63.6909 27.2112 58.7239 22.2263 52.6201 22.2263C46.5163 22.2257 41.5492 27.2106 41.5492 33.3389C41.5492 39.4683 46.5163 44.4549 52.6201 44.4549ZM47.6425 31.2157L47.6531 31.2051L51.5243 35.0929V27.3348H53.7377V35.0929L57.5996 31.2156V34.3558L52.6326 39.3446L47.6426 34.3347L47.6425 31.2157ZM52.129 14.8262C52.1222 14.8262 52.1129 14.8268 52.1067 14.8268C51.8182 10.7887 48.4654 7.59976 44.3686 7.59976C43.013 7.59976 41.7388 7.94985 40.6305 8.56266C37.9814 3.47472 32.6787 0 26.5631 0C17.9661 0 10.9709 6.86524 10.7085 15.4329C4.71594 15.9109 0 20.9413 0 27.0801C0 33.534 5.21192 38.7667 11.6415 38.7667H40.0338C39.3184 37.0997 38.9199 35.2651 38.9199 33.3399C38.9199 25.7546 45.0667 19.5845 52.6208 19.5845C57.356 19.5845 61.5385 22.0109 64 25.6883C63.4424 19.5982 58.3436 14.8261 52.1297 14.8261L52.129 14.8262ZM19.644 8.73229C19.5539 8.80717 19.4638 8.88269 19.3792 8.96505C19.0461 9.28831 18.7365 9.62904 18.4941 10.0272C17.5649 11.5524 17.3883 13.1867 17.5916 14.944C17.7874 16.6333 15.1544 16.6146 14.9617 14.944C14.6 11.8225 15.5945 8.29973 18.3052 6.46188C19.7112 5.50646 21.0214 7.77935 19.644 8.73229ZM19.6167 8.75163C19.4768 8.86771 19.5576 8.79532 19.6167 8.75163V8.75163Z" fill="url(#paint0_linear_5858_18440)"/>
<defs>
<linearGradient id="paint0_linear_5858_18440" x1="6.67298" y1="31.3567" x2="87.0932" y2="24.535" gradientUnits="userSpaceOnUse">
<stop stop-color="#5F42E2"/>
<stop offset="1" stop-color="#9B42C0"/>
</linearGradient>
</defs>
</svg>
