<svg width="64" height="58" viewBox="0 0 64 58" fill="none" xmlns="http://www.w3.org/2000/svg">
<path d="M42.9252 24.1102C47.3611 24.1069 51.6382 25.7613 54.9145 28.7491V28.6345V1.63008C55.0193 1.00783 54.7085 0.38938 54.1463 0.101928C53.5873 -0.121145 52.9489 0.0296066 52.5489 0.47903C51.8748 1.00407 51.2011 1.5291 50.5269 2.03447L50.5274 2.034C41.9296 8.49404 31.8975 12.785 21.2851 14.5432C21.0012 14.5577 20.7351 14.6836 20.5438 14.893C20.4107 15.1255 20.3539 15.3941 20.3821 15.6604V39.3382V40.4019L20.8874 40.4761C22.3072 40.6377 23.7137 40.8485 25.1062 41.1092V41.1087C25.3145 36.5285 27.2833 32.2051 30.6028 29.0384C33.9218 25.8717 38.3361 24.1065 42.9253 24.1092L42.9252 24.1102Z" fill="url(#paint0_linear_5858_18614)"/>
<path d="M17.173 42.2693C16.9845 41.5958 16.8092 40.9229 16.6272 40.209L17.7593 40.1484V15.1445C15.9733 15.2793 14.2884 15.4338 12.6035 15.508C10.9187 15.5822 9.23378 15.5888 7.53531 15.6226V15.6221C5.5167 15.624 3.58258 16.4341 2.1662 17.8716C0.750182 19.3091 -0.0301575 21.2538 0.000892387 23.2703V32.5341C-0.00662939 34.1938 0.535877 35.8092 1.54424 37.1284C2.55263 38.4476 3.9695 39.3957 5.57447 39.8255C6.05586 39.9076 6.43524 40.2815 6.52456 40.7614C7.74682 45.2496 8.99591 49.7382 10.2718 54.2264C10.6014 55.5202 11.4405 56.6261 12.5984 57.2925C13.7563 57.9594 15.1346 58.1303 16.4204 57.7668C17.7067 57.4038 18.7907 56.5365 19.4277 55.3629C20.0642 54.1888 20.1992 52.8081 19.8015 51.5335C18.9454 48.4299 18.0625 45.3529 17.173 42.2693Z" fill="url(#paint1_linear_5858_18614)"/>
<path d="M63.9863 27.16C63.6831 23.201 60.5357 18.9463 57.5161 18.4414V31.6911C58.4817 33.0638 59.2466 34.5666 59.7872 36.1549C62.5928 34.0374 64.1654 30.6683 63.9863 27.1603V27.16Z" fill="url(#paint2_linear_5858_18614)"/>
<path d="M42.925 26.9375C38.9432 26.9356 35.1241 28.5145 32.3076 31.3266C29.4916 34.1387 27.9092 37.9534 27.9092 41.9306C27.9092 45.9083 29.4915 49.7229 32.3076 52.5351C35.1239 55.3472 38.9432 56.9259 42.925 56.9241C46.9069 56.9223 50.7247 55.3401 53.5383 52.5257C56.352 49.7108 57.9306 45.8952 57.9273 41.9175C57.9254 37.944 56.344 34.1335 53.5309 31.3248C50.7172 28.5155 46.9028 26.9376 42.9252 26.9376L42.925 26.9375ZM48.5391 51.2754L42.9179 45.6606L37.3039 51.2688L33.5637 47.5325L39.1778 41.9177L33.5637 36.3096L37.3039 32.5733L42.9179 38.1806L48.5386 32.5789L52.2788 36.3086L46.6648 41.9168L52.2788 47.5315L48.5391 51.2754Z" fill="url(#paint3_linear_5858_18614)"/>
<defs>
<linearGradient id="paint0_linear_5858_18614" x1="23.9784" y1="28.9966" x2="67.6102" y2="26.8354" gradientUnits="userSpaceOnUse">
<stop stop-color="#5F42E2"/>
<stop offset="1" stop-color="#9B42C0"/>
</linearGradient>
<linearGradient id="paint1_linear_5858_18614" x1="2.088" y1="45.3403" x2="27.4136" y2="44.6423" gradientUnits="userSpaceOnUse">
<stop stop-color="#5F42E2"/>
<stop offset="1" stop-color="#9B42C0"/>
</linearGradient>
<linearGradient id="paint2_linear_5858_18614" x1="58.1922" y1="30.9357" x2="66.3945" y2="30.7588" gradientUnits="userSpaceOnUse">
<stop stop-color="#5F42E2"/>
<stop offset="1" stop-color="#9B42C0"/>
</linearGradient>
<linearGradient id="paint3_linear_5858_18614" x1="31.039" y1="48.0888" x2="68.8985" y2="45.8557" gradientUnits="userSpaceOnUse">
<stop stop-color="#5F42E2"/>
<stop offset="1" stop-color="#9B42C0"/>
</linearGradient>
</defs>
</svg>
