<svg width="64" height="61" viewBox="0 0 64 61" fill="none" xmlns="http://www.w3.org/2000/svg">
<path d="M57.1955 24.0848C56.1863 23.0759 54.6383 23.0759 53.6291 24.0848C52.6199 25.0937 52.6199 26.6412 53.6291 27.6502C60.6942 34.7809 60.6942 46.3517 53.5615 53.4825C53.0902 53.9536 52.8213 54.6261 52.8213 55.299C52.8213 55.9719 53.0902 56.5772 53.5615 57.1154C54.5707 58.1243 56.1187 58.1243 57.1279 57.1154C66.2794 47.966 66.2794 33.1667 57.1955 24.085V24.0848Z" fill="url(#paint0_linear_5858_18702)"/>
<path d="M50.3316 30.9442C49.3224 29.9353 47.7744 29.9353 46.7652 30.9442C45.756 31.953 45.756 33.5006 46.7652 34.5096C50.1297 37.8731 50.1297 43.322 46.7652 46.6185C46.2939 47.0896 46.025 47.762 46.025 48.4349C46.025 49.1078 46.2939 49.7132 46.7652 50.2514C47.7743 51.2602 49.3223 51.2602 50.3316 50.2514C55.6473 44.869 55.6473 36.2589 50.3316 30.9444V30.9442Z" fill="url(#paint1_linear_5858_18702)"/>
<path d="M36.8063 21.2596L23.9538 30.2739V31.1486C23.9538 37.7411 18.3015 42.9883 10.8994 43.4593V46.8229C10.8994 48.5047 12.3128 49.9176 13.995 49.9176H22.6753L36.8063 59.8065C38.8921 61.2865 41.7183 59.8065 41.7183 57.2501V23.8161C41.7183 21.3267 38.8921 19.8472 36.8063 21.2596Z" fill="url(#paint2_linear_5858_18702)"/>
<path d="M19.3109 31.2149V7.73709C20.2529 7.87177 21.195 8.07355 22.0699 8.27532C23.8194 8.74645 25.4345 9.41888 26.3094 10.3606C26.7806 10.8318 27.0496 11.3024 27.1843 11.9078C27.319 12.5131 27.2514 13.186 27.0496 13.9931C26.6459 15.5402 25.7039 17.1548 24.5599 18.7019C24.0215 19.442 24.1563 20.5184 24.8289 21.1237C25.5691 21.7966 26.713 21.662 27.386 20.9219C28.7994 19.3073 30.1451 17.4912 30.9524 15.1366C31.3561 13.993 31.6255 12.6477 31.4237 11.2348C31.2219 9.82189 30.6164 8.40942 29.6743 7.40011C27.8573 5.31481 25.6366 4.30537 23.4835 3.56538C22.0702 3.09426 20.6573 2.75827 19.177 2.48893C19.0422 1.07599 17.8983 0 16.4856 0C15.0052 0 13.7942 1.21065 13.7942 2.69063V24.2176C12.5156 23.7464 11.1028 23.4775 9.6223 23.4775C4.23894 23.4775 0 26.8411 0 31.2135C0 35.586 4.23942 38.9495 9.6223 38.9495C15.0042 38.9509 19.3108 35.5198 19.3108 31.2144L19.3109 31.2149Z" fill="url(#paint3_linear_5858_18702)"/>
<defs>
<linearGradient id="paint0_linear_5858_18702" x1="53.9868" y1="47.6939" x2="68.1296" y2="47.4243" gradientUnits="userSpaceOnUse">
<stop stop-color="#5F42E2"/>
<stop offset="1" stop-color="#9B42C0"/>
</linearGradient>
<linearGradient id="paint1_linear_5858_18702" x1="46.8748" y1="44.8734" x2="57.3862" y2="44.6262" gradientUnits="userSpaceOnUse">
<stop stop-color="#5F42E2"/>
<stop offset="1" stop-color="#9B42C0"/>
</linearGradient>
<linearGradient id="paint2_linear_5858_18702" x1="14.1128" y1="48.7025" x2="53.0359" y2="46.9214" gradientUnits="userSpaceOnUse">
<stop stop-color="#5F42E2"/>
<stop offset="1" stop-color="#9B42C0"/>
</linearGradient>
<linearGradient id="paint3_linear_5858_18702" x1="3.28356" y1="27.4733" x2="43.0502" y2="25.5789" gradientUnits="userSpaceOnUse">
<stop stop-color="#5F42E2"/>
<stop offset="1" stop-color="#9B42C0"/>
</linearGradient>
</defs>
</svg>
