<svg width="57" height="57" viewBox="0 0 57 57" fill="none" xmlns="http://www.w3.org/2000/svg">
<g filter="url(#filter0_d_128_2855)">
<circle cx="28.5" cy="24.5" r="17.5" fill="url(#paint0_linear_128_2855)"/>
</g>
<path d="M28.4998 24.9073C28.4054 24.9073 28.3168 24.8924 28.2342 24.8627C28.1516 24.8334 28.0748 24.7833 28.004 24.7125L24.7457 21.4542C24.6158 21.3243 24.548 21.1619 24.5424 20.9668C24.5362 20.7723 24.604 20.6042 24.7457 20.4625C24.8755 20.3326 25.0408 20.2677 25.2415 20.2677C25.4422 20.2677 25.6075 20.3326 25.7373 20.4625L28.4998 23.2073L31.2623 20.4625C31.3922 20.3326 31.5544 20.2646 31.749 20.2585C31.944 20.2528 32.1123 20.3208 32.254 20.4625C32.3839 20.5924 32.4488 20.7576 32.4488 20.9583C32.4488 21.159 32.3839 21.3243 32.254 21.4542L28.9957 24.7125C28.9248 24.7833 28.8481 24.8334 28.7655 24.8627C28.6828 24.8924 28.5943 24.9073 28.4998 24.9073ZM28.4998 29.1573C28.4054 29.1573 28.3168 29.1424 28.2342 29.1127C28.1516 29.0834 28.0748 29.0333 28.004 28.9625L24.7457 25.7042C24.6158 25.5743 24.548 25.4119 24.5424 25.2168C24.5362 25.0223 24.604 24.8542 24.7457 24.7125C24.8755 24.5826 25.0408 24.5177 25.2415 24.5177C25.4422 24.5177 25.6075 24.5826 25.7373 24.7125L28.4998 27.4573L31.2623 24.7125C31.3922 24.5826 31.5544 24.5146 31.749 24.5085C31.944 24.5028 32.1123 24.5708 32.254 24.7125C32.3839 24.8424 32.4488 25.0076 32.4488 25.2083C32.4488 25.409 32.3839 25.5743 32.254 25.7042L28.9957 28.9625C28.9248 29.0333 28.8481 29.0834 28.7655 29.1127C28.6828 29.1424 28.5943 29.1573 28.4998 29.1573Z" fill="white"/>
<defs>
<filter id="filter0_d_128_2855" x="0" y="0" width="57" height="57" filterUnits="userSpaceOnUse" color-interpolation-filters="sRGB">
<feFlood flood-opacity="0" result="BackgroundImageFix"/>
<feColorMatrix in="SourceAlpha" type="matrix" values="0 0 0 0 0 0 0 0 0 0 0 0 0 0 0 0 0 0 127 0" result="hardAlpha"/>
<feOffset dy="4"/>
<feGaussianBlur stdDeviation="5.5"/>
<feComposite in2="hardAlpha" operator="out"/>
<feColorMatrix type="matrix" values="0 0 0 0 0 0 0 0 0 0 0 0 0 0 0 0 0 0 0.86 0"/>
<feBlend mode="normal" in2="BackgroundImageFix" result="effect1_dropShadow_128_2855"/>
<feBlend mode="normal" in="SourceGraphic" in2="effect1_dropShadow_128_2855" result="shape"/>
</filter>
<linearGradient id="paint0_linear_128_2855" x1="14.6493" y1="31.6875" x2="58.7923" y2="29.0866" gradientUnits="userSpaceOnUse">
<stop stop-color="#5F42E2"/>
<stop offset="1" stop-color="#9B42C0"/>
</linearGradient>
</defs>
</svg>
