<svg width="14" height="14" viewBox="0 0 14 14" fill="none" xmlns="http://www.w3.org/2000/svg">
<path d="M6.994 1.16666C3.774 1.16666 1.1665 3.77999 1.1665 6.99999C1.1665 10.22 3.774 12.8333 6.994 12.8333C10.2198 12.8333 12.8332 10.22 12.8332 6.99999C12.8332 3.77999 10.2198 1.16666 6.994 1.16666ZM6.99984 11.6667C4.4215 11.6667 2.33317 9.57832 2.33317 6.99999C2.33317 4.42166 4.4215 2.33332 6.99984 2.33332C9.57817 2.33332 11.6665 4.42166 11.6665 6.99999C11.6665 9.57832 9.57817 11.6667 6.99984 11.6667Z" fill="#979797"/>
<path d="M7.2915 4.08334H6.4165V7.58334L9.479 9.42084L9.9165 8.70334L7.2915 7.14584V4.08334Z" fill="#979797"/>
</svg>
