<svg width="154" height="45" viewBox="0 0 154 45" fill="none" xmlns="http://www.w3.org/2000/svg">
<path d="M153.092 39.8161C153.092 42.1862 151.132 44.106 148.708 44.106H5.24486C2.82196 44.106 0.855286 42.1862 0.855286 39.8161V5.606C0.855286 3.23706 2.82196 1.31055 5.24486 1.31055H148.707C151.132 1.31055 153.091 3.23706 153.091 5.606L153.092 39.8161Z" fill="black"/>
<path d="M148.246 1.36445C150.886 1.36445 153.034 3.45888 153.034 6.0328V39.3881C153.034 41.962 150.886 44.0564 148.246 44.0564H5.70175C3.06184 44.0564 0.913706 41.962 0.913706 39.3881V6.0328C0.913706 3.45888 3.06184 1.36445 5.70175 1.36445H148.246ZM148.246 0.473585H5.70175C2.56722 0.473585 0 2.97662 0 6.0328V39.3881C0 42.4442 2.56722 44.9473 5.70175 44.9473H148.246C151.38 44.9473 153.947 42.4442 153.947 39.3881V6.0328C153.947 2.97662 151.38 0.473585 148.246 0.473585Z" fill="#A6A6A6"/>
<path d="M34.3565 22.4691C34.3234 18.8857 37.3659 17.1423 37.505 17.0611C35.782 14.6117 33.1112 14.2771 32.1727 14.2504C29.9297 14.0202 27.7539 15.559 26.6112 15.559C25.4458 15.559 23.6862 14.2726 21.7898 14.3104C19.3495 14.3471 17.0665 15.7247 15.8144 17.8639C13.2304 22.2256 15.1576 28.6354 17.6333 32.1611C18.8717 33.8877 20.3188 35.8157 22.2129 35.7479C24.066 35.6734 24.7582 34.596 26.9944 34.596C29.2101 34.596 29.8601 35.7479 31.7919 35.7045C33.7806 35.6734 35.0327 33.97 36.2278 32.2278C37.659 30.2487 38.2337 28.2996 38.2565 28.1996C38.2098 28.184 34.3941 26.7642 34.3565 22.4691Z" fill="white"/>
<path d="M30.7074 11.9311C31.7041 10.7158 32.386 9.06254 32.1967 7.38477C30.7541 7.44703 28.9501 8.35763 27.9112 9.54619C26.9921 10.5935 26.1711 12.3102 26.3832 13.9246C28.0036 14.0425 29.6674 13.1274 30.7074 11.9311Z" fill="white"/>
<path d="M55.9342 11.6027C55.9342 12.9113 55.5317 13.8964 54.7277 14.558C53.9831 15.1684 52.9248 15.4741 51.5541 15.4741C50.8745 15.4741 50.2929 15.4452 49.806 15.3874V8.23715C50.4411 8.13708 51.1254 8.08594 51.8643 8.08594C53.17 8.08594 54.1541 8.36279 54.8178 8.91648C55.5613 9.54245 55.9342 10.4375 55.9342 11.6027ZM54.6741 11.6349C54.6741 10.7866 54.4438 10.1362 53.9831 9.68254C53.5224 9.23002 52.8496 9.00321 51.9635 9.00321C51.5872 9.00321 51.2668 9.02767 51.0011 9.07881V14.5146C51.1482 14.5368 51.4173 14.5469 51.8084 14.5469C52.723 14.5469 53.4289 14.2989 53.9261 13.803C54.4233 13.3071 54.6741 12.5845 54.6741 11.6349Z" fill="white"/>
<path d="M62.6155 12.7465C62.6155 13.5526 62.3795 14.213 61.9074 14.7311C61.4125 15.2637 60.7568 15.5294 59.938 15.5294C59.1489 15.5294 58.5205 15.2748 58.0518 14.7634C57.5843 14.253 57.3505 13.6093 57.3505 12.8332C57.3505 12.0216 57.5911 11.3556 58.0746 10.8386C58.5582 10.3216 59.2082 10.0625 60.0269 10.0625C60.8161 10.0625 61.4501 10.3171 61.9302 10.8274C62.3863 11.3233 62.6155 11.9637 62.6155 12.7465ZM61.376 12.7843C61.376 12.3006 61.2688 11.8859 61.0555 11.5401C60.8047 11.1221 60.4477 10.9131 59.9836 10.9131C59.5035 10.9131 59.1386 11.1221 58.8877 11.5401C58.6733 11.8859 58.5673 12.3073 58.5673 12.8054C58.5673 13.2891 58.6745 13.7038 58.8877 14.0496C59.1466 14.4676 59.5069 14.6766 59.9722 14.6766C60.4283 14.6766 60.7864 14.4643 61.0441 14.0384C61.2654 13.686 61.376 13.2679 61.376 12.7843Z" fill="white"/>
<path d="M71.5741 10.1699L69.8921 15.4111H68.7974L68.1006 13.1352C67.9239 12.5671 67.7802 12.0022 67.6684 11.4419H67.6467C67.543 12.0178 67.3993 12.5815 67.2146 13.1352L66.4745 15.4111H65.3672L63.7855 10.1699H65.0137L65.6215 12.6616C65.7686 13.2508 65.8895 13.8123 65.9864 14.3438H66.0081C66.097 13.9057 66.2441 13.3476 66.4517 12.6727L67.2146 10.171H68.1884L68.9194 12.6193C69.0961 13.2164 69.2398 13.7912 69.3504 14.3449H69.3835C69.4645 13.8056 69.5865 13.2308 69.7484 12.6193L70.4007 10.171H71.5741V10.1699Z" fill="white"/>
<path d="M77.7697 15.4099H76.5746V12.4079C76.5746 11.4829 76.2142 11.0203 75.4912 11.0203C75.1366 11.0203 74.8504 11.1471 74.628 11.4017C74.4079 11.6563 74.2962 11.9565 74.2962 12.3001V15.4088H73.1011V11.6663C73.1011 11.206 73.0862 10.7068 73.0577 10.1664H74.108L74.1639 10.9859H74.1969C74.3361 10.7313 74.5436 10.5211 74.8162 10.3532C75.14 10.1575 75.5026 10.0586 75.8995 10.0586C76.4012 10.0586 76.8186 10.2165 77.1504 10.5334C77.5633 10.9214 77.7697 11.5007 77.7697 12.27V15.4099Z" fill="white"/>
<path d="M81.0653 15.4098H79.8713V7.76367H81.0653V15.4098Z" fill="white"/>
<path d="M88.1012 12.7465C88.1012 13.5526 87.8652 14.213 87.3931 14.7311C86.8982 15.2637 86.2413 15.5294 85.4237 15.5294C84.6334 15.5294 84.0051 15.2748 83.5376 14.7634C83.07 14.253 82.8362 13.6093 82.8362 12.8332C82.8362 12.0216 83.0769 11.3556 83.5604 10.8386C84.0439 10.3216 84.6939 10.0625 85.5115 10.0625C86.3018 10.0625 86.9347 10.3171 87.4159 10.8274C87.872 11.3233 88.1012 11.9637 88.1012 12.7465ZM86.8605 12.7843C86.8605 12.3006 86.7533 11.8859 86.5401 11.5401C86.2904 11.1221 85.9323 10.9131 85.4693 10.9131C84.9881 10.9131 84.6232 11.1221 84.3734 11.5401C84.159 11.8859 84.053 12.3073 84.053 12.8054C84.053 13.2891 84.1602 13.7038 84.3734 14.0496C84.6323 14.4676 84.9927 14.6766 85.4579 14.6766C85.9141 14.6766 86.271 14.4643 86.5287 14.0384C86.7511 13.686 86.8605 13.2679 86.8605 12.7843Z" fill="white"/>
<path d="M93.8851 15.4105H92.812L92.7231 14.8067H92.69C92.3228 15.2882 91.7994 15.5294 91.1197 15.5294C90.6123 15.5294 90.2018 15.3704 89.8927 15.0547C89.6122 14.7678 89.4719 14.4109 89.4719 13.9873C89.4719 13.3469 89.7456 12.8588 90.2964 12.5208C90.846 12.1828 91.6192 12.0171 92.6147 12.0249V11.9271C92.6147 11.2366 92.243 10.8919 91.4983 10.8919C90.9681 10.8919 90.5005 11.022 90.0968 11.28L89.8539 10.515C90.3534 10.2137 90.9703 10.0625 91.6979 10.0625C93.1028 10.0625 93.8075 10.7852 93.8075 12.2306V14.1607C93.8075 14.6844 93.8338 15.1014 93.8851 15.4105ZM92.6444 13.6093V12.801C91.3261 12.7787 90.667 13.1312 90.667 13.8572C90.667 14.1307 90.7423 14.3353 90.8962 14.4721C91.0502 14.6088 91.2463 14.6766 91.4801 14.6766C91.7424 14.6766 91.9875 14.5955 92.211 14.4343C92.4357 14.2719 92.5737 14.0662 92.625 13.8139C92.6375 13.7572 92.6444 13.6882 92.6444 13.6093Z" fill="white"/>
<path d="M100.676 15.4098H99.6154L99.5595 14.5681H99.5264C99.1877 15.2086 98.6107 15.5288 97.7999 15.5288C97.1522 15.5288 96.6128 15.2808 96.1852 14.785C95.7576 14.2891 95.5443 13.6453 95.5443 12.8548C95.5443 12.0065 95.7758 11.3193 96.2411 10.7946C96.6915 10.3053 97.2434 10.0607 97.9003 10.0607C98.6221 10.0607 99.1273 10.2976 99.4147 10.7723H99.4375V7.76367H100.634V13.9978C100.634 14.5081 100.647 14.9784 100.676 15.4098ZM99.4375 13.1995V12.3256C99.4375 12.1743 99.4261 12.052 99.4044 11.9587C99.3371 11.6785 99.1923 11.4428 98.9722 11.2526C98.7498 11.0625 98.4818 10.9669 98.1728 10.9669C97.7269 10.9669 97.378 11.1392 97.1214 11.485C96.8671 11.8308 96.7383 12.2722 96.7383 12.8114C96.7383 13.3296 96.8603 13.7498 97.1054 14.0734C97.3643 14.418 97.7133 14.5904 98.15 14.5904C98.5423 14.5904 98.8559 14.447 99.0942 14.159C99.3246 13.8933 99.4375 13.573 99.4375 13.1995Z" fill="white"/>
<path d="M110.897 12.7465C110.897 13.5526 110.661 14.213 110.189 14.7311C109.694 15.2637 109.039 15.5294 108.219 15.5294C107.431 15.5294 106.803 15.2748 106.333 14.7634C105.866 14.253 105.632 13.6093 105.632 12.8332C105.632 12.0216 105.873 11.3556 106.356 10.8386C106.84 10.3216 107.49 10.0625 108.309 10.0625C109.097 10.0625 109.733 10.3171 110.212 10.8274C110.668 11.3233 110.897 11.9637 110.897 12.7465ZM109.658 12.7843C109.658 12.3006 109.551 11.8859 109.338 11.5401C109.086 11.1221 108.73 10.9131 108.265 10.9131C107.786 10.9131 107.421 11.1221 107.169 11.5401C106.955 11.8859 106.849 12.3073 106.849 12.8054C106.849 13.2891 106.956 13.7038 107.169 14.0496C107.428 14.4676 107.788 14.6766 108.254 14.6766C108.71 14.6766 109.069 14.4643 109.327 14.0384C109.547 13.686 109.658 13.2679 109.658 12.7843Z" fill="white"/>
<path d="M117.323 15.4099H116.129V12.4079C116.129 11.4829 115.768 11.0203 115.044 11.0203C114.69 11.0203 114.403 11.1471 114.182 11.4017C113.961 11.6563 113.85 11.9565 113.85 12.3001V15.4088H112.654V11.6663C112.654 11.206 112.64 10.7068 112.612 10.1664H113.661L113.717 10.9859H113.75C113.89 10.7313 114.098 10.5211 114.369 10.3532C114.694 10.1575 115.056 10.0586 115.454 10.0586C115.954 10.0586 116.372 10.2165 116.704 10.5334C117.117 10.9214 117.323 11.5007 117.323 12.27V15.4099Z" fill="white"/>
<path d="M125.366 11.0414H124.05V13.5875C124.05 14.2346 124.283 14.5581 124.746 14.5581C124.961 14.5581 125.139 14.5403 125.279 14.5037L125.31 15.3876C125.074 15.4743 124.764 15.5177 124.381 15.5177C123.909 15.5177 123.542 15.3776 123.276 15.0974C123.01 14.8172 122.877 14.3458 122.877 13.6842V11.0414H122.092V10.1686H122.877V9.20795L124.049 8.86328V10.1675H125.364V11.0414H125.366Z" fill="white"/>
<path d="M131.692 15.4098H130.496V12.4301C130.496 11.4906 130.136 11.0203 129.414 11.0203C128.86 11.0203 128.481 11.2927 128.274 11.8375C128.238 11.952 128.218 12.0921 128.218 12.2566V15.4087H127.024V7.76367H128.218V10.9224H128.24C128.617 10.3476 129.156 10.0607 129.855 10.0607C130.35 10.0607 130.759 10.2186 131.084 10.5355C131.489 10.9302 131.692 11.5173 131.692 12.2933V15.4098Z" fill="white"/>
<path d="M138.219 12.5421C138.219 12.7512 138.203 12.9268 138.174 13.0703H134.59C134.606 13.5884 134.777 13.9831 135.109 14.2566C135.412 14.5012 135.803 14.6235 136.282 14.6235C136.812 14.6235 137.296 14.5412 137.732 14.3756L137.919 15.185C137.409 15.4007 136.809 15.5085 136.115 15.5085C135.282 15.5085 134.626 15.2695 134.152 14.7914C133.675 14.3133 133.439 13.6718 133.439 12.8668C133.439 12.0763 133.659 11.4181 134.103 10.8933C134.566 10.3329 135.192 10.0527 135.982 10.0527C136.755 10.0527 137.343 10.3329 137.74 10.8933C138.06 11.338 138.219 11.8884 138.219 12.5421ZM137.078 12.2408C137.087 11.8951 137.009 11.5971 136.847 11.3458C136.639 11.0223 136.323 10.8599 135.896 10.8599C135.506 10.8599 135.187 11.0178 134.945 11.3347C134.746 11.5871 134.629 11.8884 134.59 12.2408H137.078Z" fill="white"/>
<path d="M61.1741 35.4995H58.5843L57.1658 31.1533H52.2349L50.8836 35.4995H48.3622L53.2475 20.7031H56.2649L61.1741 35.4995ZM56.7381 29.3299L55.4552 25.4663C55.3195 25.0716 55.0652 24.1421 54.69 22.6789H54.6444C54.495 23.3082 54.2544 24.2377 53.9237 25.4663L52.6636 29.3299H56.7381Z" fill="white"/>
<path d="M73.7374 30.0338C73.7374 31.8483 73.2345 33.2826 72.2287 34.3355C71.3278 35.2728 70.2091 35.7409 68.8738 35.7409C67.4324 35.7409 66.3969 35.2361 65.7663 34.2265H65.7207V39.8469H63.2895V28.3427C63.2895 27.2019 63.2587 26.0312 63.1994 24.8304H65.3376L65.4733 26.5215H65.5189C66.3297 25.2473 67.5601 24.6113 69.2113 24.6113C70.5022 24.6113 71.5798 25.1083 72.4419 26.1034C73.3063 27.0996 73.7374 28.4094 73.7374 30.0338ZM71.2605 30.1205C71.2605 29.082 71.0211 28.2259 70.5398 27.5522C70.0141 26.8495 69.3083 26.4981 68.4233 26.4981C67.8235 26.4981 67.2784 26.6938 66.7915 27.0796C66.3034 27.4688 65.9841 27.9769 65.8347 28.6062C65.7595 28.8997 65.7219 29.1399 65.7219 29.3289V31.1078C65.7219 31.8839 65.9659 32.5388 66.454 33.0736C66.942 33.6084 67.5761 33.8752 68.3561 33.8752C69.2718 33.8752 69.9845 33.5305 70.4942 32.8434C71.0051 32.1552 71.2605 31.2479 71.2605 30.1205Z" fill="white"/>
<path d="M86.3233 30.0338C86.3233 31.8483 85.8204 33.2826 84.8135 34.3355C83.9138 35.2728 82.7951 35.7409 81.4597 35.7409C80.0183 35.7409 78.9829 35.2361 78.3534 34.2265H78.3078V39.8469H75.8766V28.3427C75.8766 27.2019 75.8458 26.0312 75.7865 24.8304H77.9247L78.0604 26.5215H78.106C78.9156 25.2473 80.1461 24.6113 81.7984 24.6113C83.0882 24.6113 84.1658 25.1083 85.0302 26.1034C85.8912 27.0996 86.3233 28.4094 86.3233 30.0338ZM83.8465 30.1205C83.8465 29.082 83.6059 28.2259 83.1247 27.5522C82.599 26.8495 81.8954 26.4981 81.0093 26.4981C80.4083 26.4981 79.8644 26.6938 79.3763 27.0796C78.8883 27.4688 78.5701 27.9769 78.4207 28.6062C78.3466 28.8997 78.3078 29.1399 78.3078 29.3289V31.1078C78.3078 31.8839 78.5518 32.5388 79.0376 33.0736C79.5257 33.6072 80.1597 33.8752 80.942 33.8752C81.8577 33.8752 82.5705 33.5305 83.0802 32.8434C83.5911 32.1552 83.8465 31.2479 83.8465 30.1205Z" fill="white"/>
<path d="M100.395 31.3501C100.395 32.6087 99.9472 33.6328 99.0474 34.4233C98.0588 35.2872 96.6823 35.7186 94.9137 35.7186C93.2807 35.7186 91.9716 35.4117 90.9806 34.7969L91.5439 32.8211C92.6113 33.4504 93.7824 33.7662 95.0585 33.7662C95.9742 33.7662 96.6869 33.5638 97.1989 33.1613C97.7087 32.7588 97.963 32.2185 97.963 31.5447C97.963 30.9443 97.7531 30.4384 97.3323 30.0282C96.9138 29.6179 96.2148 29.2365 95.2387 28.8841C92.5816 27.9179 91.2543 26.5025 91.2543 24.6413C91.2543 23.4249 91.7195 22.4276 92.6512 21.6515C93.5795 20.8744 94.8179 20.4863 96.3665 20.4863C97.7474 20.4863 98.8946 20.7209 99.8103 21.189L99.2025 23.1214C98.3473 22.6678 97.3802 22.4409 96.298 22.4409C95.4428 22.4409 94.7745 22.6466 94.2956 23.0558C93.8908 23.4216 93.6878 23.8674 93.6878 24.3956C93.6878 24.9804 93.9193 25.464 94.3845 25.8443C94.7894 26.1956 95.5249 26.5759 96.5923 26.9862C97.898 27.4987 98.857 28.098 99.4739 28.7851C100.089 29.47 100.395 30.3272 100.395 31.3501Z" fill="white"/>
<path d="M108.434 26.6092H105.754V31.7893C105.754 33.1068 106.226 33.7651 107.172 33.7651C107.607 33.7651 107.967 33.7284 108.252 33.655L108.32 35.4551C107.841 35.6296 107.21 35.7174 106.429 35.7174C105.469 35.7174 104.718 35.4317 104.177 34.8613C103.637 34.2898 103.366 33.3314 103.366 31.985V26.607H101.769V24.8281H103.366V22.8746L105.754 22.1719V24.8281H108.434V26.6092Z" fill="white"/>
<path d="M120.525 30.076C120.525 31.716 120.044 33.0624 119.083 34.1154C118.076 35.1994 116.74 35.7398 115.074 35.7398C113.468 35.7398 112.19 35.2205 111.237 34.1821C110.283 33.1436 109.807 31.8327 109.807 30.2528C109.807 28.5995 110.297 27.2453 111.281 26.1924C112.263 25.1383 113.588 24.6113 115.254 24.6113C116.86 24.6113 118.152 25.1306 119.127 26.1701C120.06 27.1786 120.525 28.4805 120.525 30.076ZM118.002 30.1527C118.002 29.1688 117.787 28.3249 117.35 27.6211C116.84 26.7694 116.112 26.3447 115.167 26.3447C114.19 26.3447 113.448 26.7705 112.938 27.6211C112.501 28.326 112.286 29.1832 112.286 30.1972C112.286 31.1812 112.501 32.0251 112.938 32.7278C113.464 33.5794 114.198 34.0042 115.146 34.0042C116.074 34.0042 116.803 33.5706 117.328 32.7055C117.777 31.9884 118.002 31.1356 118.002 30.1527Z" fill="white"/>
<path d="M128.427 26.9151C128.187 26.8717 127.93 26.8495 127.661 26.8495C126.806 26.8495 126.144 27.1641 125.679 27.7945C125.274 28.3505 125.071 29.0531 125.071 29.9015V35.4996H122.641L122.664 28.1903C122.664 26.9607 122.633 25.841 122.573 24.8315H124.69L124.779 26.8728H124.847C125.103 26.1712 125.508 25.6064 126.062 25.1828C126.604 24.8015 127.189 24.6113 127.82 24.6113C128.044 24.6113 128.247 24.6269 128.427 24.6547V26.9151Z" fill="white"/>
<path d="M139.301 29.6587C139.301 30.0835 139.272 30.4415 139.212 30.7339H131.918C131.947 31.7879 132.299 32.594 132.976 33.1499C133.591 33.6469 134.386 33.896 135.362 33.896C136.442 33.896 137.427 33.7281 138.313 33.3912L138.694 35.0367C137.659 35.477 136.436 35.696 135.025 35.696C133.329 35.696 131.997 35.209 131.027 34.2362C130.06 33.2633 129.576 31.9569 129.576 30.3181C129.576 28.7092 130.026 27.3694 130.928 26.301C131.872 25.1602 133.148 24.5898 134.754 24.5898C136.331 24.5898 137.525 25.1602 138.336 26.301C138.978 27.2071 139.301 28.3279 139.301 29.6587ZM136.982 29.0439C136.998 28.3412 136.84 27.7341 136.51 27.2216C136.089 26.5623 135.443 26.2331 134.573 26.2331C133.778 26.2331 133.131 26.5545 132.638 27.1993C132.233 27.7119 131.992 28.3267 131.918 29.0428H136.982V29.0439Z" fill="white"/>
</svg>
