<svg width="154" height="45" viewBox="0 0 154 45" fill="none" xmlns="http://www.w3.org/2000/svg">
<path d="M148.298 44.4746H5.75449C2.61995 44.4746 0.0527344 41.9716 0.0527344 38.9154V5.56014C0.0527344 2.50396 2.61995 0.000924158 5.75449 0.000924158H148.298C151.433 0.000924158 154 2.50396 154 5.56014V38.9154C154 41.9716 151.433 44.4746 148.298 44.4746Z" fill="black"/>
<path d="M148.298 0.891784C150.938 0.891784 153.086 2.98622 153.086 5.56014V38.9154C153.086 41.4893 150.938 43.5837 148.298 43.5837H5.75449C3.11458 43.5837 0.96644 41.4893 0.96644 38.9154V5.56014C0.96644 2.98622 3.11458 0.891784 5.75449 0.891784H148.298ZM148.298 0.000924158H5.75449C2.61995 0.000924158 0.0527344 2.50396 0.0527344 5.56014V38.9154C0.0527344 41.9716 2.61995 44.4746 5.75449 44.4746H148.298C151.433 44.4746 154 41.9716 154 38.9154V5.56014C154 2.50396 151.433 0.000924158 148.298 0.000924158Z" fill="#A6A6A6"/>
<path d="M11.9523 8.38138C11.6173 8.72327 11.4235 9.25556 11.4235 9.94491V34.5333C11.4235 35.2226 11.6173 35.7549 11.9523 36.0968L12.035 36.1719L26.1668 22.3989V22.0737L12.035 8.30077L11.9523 8.38138Z" fill="url(#paint0_linear_842_1397)"/>
<path d="M30.8721 26.9922L26.1667 22.3989V22.0737L30.8778 17.4804L30.9833 17.5401L36.5625 20.6352C38.1547 21.5136 38.1547 22.959 36.5625 23.8429L30.9833 26.9324L30.8721 26.9922Z" fill="url(#paint1_linear_842_1397)"/>
<path d="M30.9833 26.9321L26.1667 22.236L11.9523 36.0965C12.4811 36.6385 13.3435 36.7038 14.3242 36.1618L30.9833 26.9321Z" fill="url(#paint2_linear_842_1397)"/>
<path d="M30.9833 17.5402L14.3242 8.31051C13.3435 7.77405 12.4811 7.83936 11.9523 8.38139L26.1667 22.2363L30.9833 17.5402Z" fill="url(#paint3_linear_842_1397)"/>
<path d="M54.1253 11.3914C54.1253 12.3198 53.8402 13.0633 53.2786 13.6179C52.6328 14.2752 51.7918 14.606 50.7612 14.606C49.7763 14.606 48.9352 14.2697 48.2453 13.6067C47.554 12.9341 47.209 12.1085 47.209 11.1204C47.209 10.1322 47.554 9.3067 48.2453 8.63959C48.9352 7.9711 49.7763 7.63477 50.7612 7.63477C51.2516 7.63477 51.7191 7.73344 52.1653 7.9169C52.61 8.10174 52.9721 8.3519 53.2344 8.66044L52.6385 9.24694C52.181 8.7202 51.5581 8.46031 50.7612 8.46031C50.0428 8.46031 49.4199 8.70491 48.8911 9.19829C48.3679 9.69306 48.1056 10.3338 48.1056 11.1204C48.1056 11.907 48.3679 12.5533 48.8911 13.048C49.4199 13.5359 50.0428 13.786 50.7612 13.786C51.5238 13.786 52.1653 13.5359 52.6713 13.0425C53.0049 12.7159 53.1945 12.2656 53.2444 11.6902H50.7612V10.8869H54.074C54.1139 11.0606 54.1253 11.2288 54.1253 11.3914Z" fill="white" stroke="white" stroke-width="0.136842" stroke-miterlimit="10"/>
<path d="M59.3809 8.6057H56.2692V10.7182H59.0744V11.5215H56.2692V13.634H59.3809V14.4526H55.3882V7.78711H59.3809V8.6057Z" fill="white" stroke="white" stroke-width="0.136842" stroke-miterlimit="10"/>
<path d="M63.0898 14.4526H62.2089V8.6057H60.3002V7.78711H64.9999V8.6057H63.0898V14.4526Z" fill="white" stroke="white" stroke-width="0.136842" stroke-miterlimit="10"/>
<path d="M68.4011 14.4526V7.78711H69.2806V14.4526H68.4011Z" fill="white" stroke="white" stroke-width="0.136842" stroke-miterlimit="10"/>
<path d="M73.1791 14.4526H72.3053V8.6057H70.3895V7.78711H75.0949V8.6057H73.1791V14.4526Z" fill="white" stroke="white" stroke-width="0.136842" stroke-miterlimit="10"/>
<path d="M83.9925 13.5956C83.3183 14.2697 82.483 14.606 81.4866 14.606C80.4845 14.606 79.6492 14.2697 78.9749 13.5956C78.3021 12.923 77.9672 12.0974 77.9672 11.1204C77.9672 10.1434 78.3021 9.31782 78.9749 8.64515C79.6492 7.9711 80.4845 7.63477 81.4866 7.63477C82.4772 7.63477 83.3126 7.9711 83.9868 8.65071C84.6653 9.32893 85.0003 10.1489 85.0003 11.1204C85.0003 12.0974 84.6653 12.923 83.9925 13.5956ZM79.6264 13.0369C80.1338 13.5359 80.751 13.786 81.4866 13.786C82.2164 13.786 82.8393 13.5359 83.3411 13.0369C83.8471 12.538 84.1037 11.8973 84.1037 11.1204C84.1037 10.3435 83.8471 9.70279 83.3411 9.20385C82.8393 8.70491 82.2164 8.45475 81.4866 8.45475C80.751 8.45475 80.1338 8.70491 79.6264 9.20385C79.1203 9.70279 78.8638 10.3435 78.8638 11.1204C78.8638 11.8973 79.1203 12.538 79.6264 13.0369Z" fill="white" stroke="white" stroke-width="0.136842" stroke-miterlimit="10"/>
<path d="M86.2361 14.4526V7.78711H87.3052L90.6293 12.9711H90.6678L90.6293 11.6897V7.78711H91.5088V14.4526H90.5909L87.1099 9.01291H87.0714L87.1099 10.2999V14.4526H86.2361Z" fill="white" stroke="white" stroke-width="0.136842" stroke-miterlimit="10"/>
<path d="M77.7505 24.1852C75.0721 24.1852 72.8841 26.1726 72.8841 28.9147C72.8841 31.6346 75.0721 33.6428 77.7505 33.6428C80.4346 33.6428 82.6227 31.6346 82.6227 28.9147C82.6227 26.1726 80.4346 24.1852 77.7505 24.1852ZM77.7505 31.7805C76.2809 31.7805 75.0165 30.5978 75.0165 28.9147C75.0165 27.2094 76.2809 26.0476 77.7505 26.0476C79.2201 26.0476 80.4902 27.2094 80.4902 28.9147C80.4902 30.5978 79.2201 31.7805 77.7505 31.7805ZM67.1324 24.1852C64.4483 24.1852 62.266 26.1726 62.266 28.9147C62.266 31.6346 64.4483 33.6428 67.1324 33.6428C69.8151 33.6428 71.9989 31.6346 71.9989 28.9147C71.9989 26.1726 69.8151 24.1852 67.1324 24.1852ZM67.1324 31.7805C65.6614 31.7805 64.3927 30.5978 64.3927 28.9147C64.3927 27.2094 65.6614 26.0476 67.1324 26.0476C68.6021 26.0476 69.8664 27.2094 69.8664 28.9147C69.8664 30.5978 68.6021 31.7805 67.1324 31.7805ZM54.4973 25.6348V27.6444H59.4194C59.2754 28.7674 58.8905 29.5929 58.3004 30.1683C57.582 30.8632 56.463 31.6346 54.4973 31.6346C51.4683 31.6346 49.0964 29.2511 49.0964 26.2977C49.0964 23.3444 51.4683 20.9609 54.4973 20.9609C56.1352 20.9609 57.3268 21.5849 58.2063 22.3938L59.6589 20.9776C58.4287 19.8324 56.7923 18.9526 54.4973 18.9526C50.3436 18.9526 46.8527 22.2478 46.8527 26.2977C46.8527 30.3476 50.3436 33.6428 54.4973 33.6428C56.7424 33.6428 58.4287 32.9257 59.7544 31.5804C61.1128 30.2559 61.5362 28.3935 61.5362 26.8898C61.5362 26.4228 61.4962 25.9934 61.425 25.6348H54.4973ZM106.164 27.1928C105.763 26.1351 104.527 24.1852 102.01 24.1852C99.5155 24.1852 97.4387 26.1018 97.4387 28.9147C97.4387 31.5637 99.4942 33.6428 102.25 33.6428C104.477 33.6428 105.763 32.3183 106.292 31.547L104.639 30.4727C104.087 31.2593 103.336 31.7805 102.25 31.7805C101.17 31.7805 100.396 31.2982 99.9004 30.3476L106.388 27.7306L106.164 27.1928ZM99.5498 28.7674C99.4942 26.944 101.002 26.01 102.083 26.01C102.929 26.01 103.648 26.4228 103.887 27.0135L99.5498 28.7674ZM94.277 33.3551H96.4095V19.4571H94.277V33.3551ZM90.7847 25.2387H90.7135C90.2345 24.6855 89.3208 24.1852 88.1634 24.1852C85.7344 24.1852 83.5136 26.2644 83.5136 28.93C83.5136 31.5804 85.7344 33.6428 88.1634 33.6428C89.3208 33.6428 90.2345 33.1383 90.7135 32.5685H90.7847V33.2467C90.7847 35.0549 89.794 36.0263 88.1961 36.0263C86.8933 36.0263 86.0851 35.1091 85.7515 34.3377L83.897 35.0924C84.4315 36.346 85.847 37.8887 88.1961 37.8887C90.6963 37.8887 92.806 36.4544 92.806 32.9646V24.4729H90.7847V25.2387ZM88.3458 31.7805C86.8762 31.7805 85.646 30.5811 85.646 28.93C85.646 27.2636 86.8762 26.0476 88.3458 26.0476C89.7941 26.0476 90.9358 27.2636 90.9358 28.93C90.9358 30.5811 89.7941 31.7805 88.3458 31.7805ZM116.148 19.4571H111.047V33.3551H113.174V28.0892H116.148C118.509 28.0892 120.826 26.4228 120.826 23.7724C120.826 21.1235 118.504 19.4571 116.148 19.4571ZM116.203 26.156H113.174V21.3903H116.203C117.791 21.3903 118.698 22.6759 118.698 23.7724C118.698 24.8482 117.791 26.156 116.203 26.156ZM129.35 24.1588C127.813 24.1588 126.215 24.8204 125.558 26.2866L127.446 27.0579C127.852 26.2866 128.599 26.0364 129.388 26.0364C130.492 26.0364 131.611 26.6827 131.628 27.8237V27.9697C131.243 27.7528 130.419 27.4318 129.406 27.4318C127.373 27.4318 125.302 28.5228 125.302 30.5589C125.302 32.4212 126.967 33.6206 128.838 33.6206C130.269 33.6206 131.059 32.991 131.555 32.2586H131.628V33.3329H133.682V28.0016C133.682 25.5375 131.795 24.1588 129.35 24.1588ZM129.093 31.7749C128.398 31.7749 127.428 31.4386 127.428 30.5978C127.428 29.5221 128.637 29.1093 129.684 29.1093C130.62 29.1093 131.059 29.3108 131.628 29.5763C131.461 30.8632 130.325 31.7749 129.093 31.7749ZM141.165 24.4632L138.721 30.488H138.648L136.121 24.4632H133.827L137.625 32.8826L135.458 37.5676H137.68L143.532 24.4632H141.165ZM121.995 33.3551H124.127V19.4571H121.995V33.3551Z" fill="white"/>
<defs>
<linearGradient id="paint0_linear_842_1397" x1="24.912" y1="34.7894" x2="6.25863" y2="15.6577" gradientUnits="userSpaceOnUse">
<stop stop-color="#00A0FF"/>
<stop offset="0.0066" stop-color="#00A1FF"/>
<stop offset="0.2601" stop-color="#00BEFF"/>
<stop offset="0.5122" stop-color="#00D2FF"/>
<stop offset="0.7604" stop-color="#00DFFF"/>
<stop offset="1" stop-color="#00E3FF"/>
</linearGradient>
<linearGradient id="paint1_linear_842_1397" x1="38.6358" y1="22.2347" x2="11.0428" y2="22.2347" gradientUnits="userSpaceOnUse">
<stop stop-color="#FFE000"/>
<stop offset="0.4087" stop-color="#FFBD00"/>
<stop offset="0.7754" stop-color="#FFA500"/>
<stop offset="1" stop-color="#FF9C00"/>
</linearGradient>
<linearGradient id="paint2_linear_842_1397" x1="28.3642" y1="19.6831" x2="3.06867" y2="-6.26107" gradientUnits="userSpaceOnUse">
<stop stop-color="#FF3A44"/>
<stop offset="1" stop-color="#C31162"/>
</linearGradient>
<linearGradient id="paint3_linear_842_1397" x1="8.37419" y1="44.2773" x2="19.6698" y2="32.6922" gradientUnits="userSpaceOnUse">
<stop stop-color="#32A071"/>
<stop offset="0.0685" stop-color="#2DA771"/>
<stop offset="0.4762" stop-color="#15CF74"/>
<stop offset="0.8009" stop-color="#06E775"/>
<stop offset="1" stop-color="#00F076"/>
</linearGradient>
</defs>
</svg>
