<svg width="99" height="58" viewBox="0 0 99 58" fill="none" xmlns="http://www.w3.org/2000/svg">
<g clip-path="url(#clip0_840_1059)">
<path d="M9.76847 55.8202C14.6151 55.8202 18.9524 51.8035 18.9524 46.9003V38.8855C18.9524 34.0013 14.6151 29.9656 9.76847 29.9656C4.71448 29.9656 0.395935 34.0767 0.395935 39.093C0.395935 43.751 3.79042 48.2768 8.5427 48.2768C9.76847 48.2768 11.3337 48.126 11.3714 46.542V40.4318C11.032 40.8655 10.4285 41.1298 9.76847 41.1298C8.61813 41.1298 7.71293 40.2624 7.71293 39.0363C7.78836 37.9804 8.5427 37.0752 9.76847 37.0752C10.9754 37.0752 11.8429 37.9804 11.8429 39.1684V46.5797C11.8429 47.8054 10.9754 48.7105 9.76847 48.7105V55.8202ZM37.7352 41.1861H29.5131C28.3438 41.2238 27.3632 40.281 27.3632 39.1117C27.3632 37.9804 28.3061 37.0375 29.4376 37.0375C31.7006 37.0375 31.9458 39.9981 29.5131 39.9604V40.7524H30.7011L36.9809 40.7338C37.905 39.6398 38.1313 38.2255 38.037 36.8489C37.7352 31.9457 33.643 29.9656 29.4376 29.9656C24.3836 29.9656 20.2914 34.0578 20.2914 39.1117C20.2914 44.166 24.3836 48.2582 29.4376 48.2582H29.5131H37.7352V41.1861ZM46.8437 48.2582V38.9609C46.8437 37.8106 47.8055 36.83 48.9935 36.83C50.1061 36.83 51.1624 37.8483 51.1624 38.9609V48.2582H58.0269V38.9986C58.0269 33.9447 54.0097 29.8902 48.9935 29.8902C46.9945 29.8902 45.0145 30.5502 43.4305 31.776C42.45 30.9462 41.2239 30.3616 39.9228 30.0788V48.2582H46.8437ZM68.5875 41.3937C67.3991 41.3937 66.494 40.4132 66.494 39.2815V36.6037H68.4931V30.1353H66.3055C66.3055 24.1573 63.0431 21.3285 59.5164 20.5742V39.2252C59.5164 44.2414 63.5709 48.3903 68.5875 48.3903V41.3937ZM77.6014 48.2582V30.0976H70.5298V48.2582H77.6014ZM70.1525 25.4208C70.1525 27.6272 71.9063 29.381 74.1128 29.381C76.319 29.381 78.0919 27.6272 78.0919 25.4208C78.0919 23.2144 76.319 21.4417 74.1128 21.4417C71.9063 21.4417 70.1525 23.2144 70.1525 25.4208Z" fill="white"/>
<path d="M73.9073 11.3517V14.9922C73.9073 15.3261 74.0707 15.6466 74.3711 15.7922C75.6775 16.4255 76.9379 16.1535 79.8999 18.523C82.0798 20.267 82.3562 22.011 82.724 23.755C82.8185 24.2034 83.2175 24.5155 83.676 24.5155H87.0953C87.5602 24.5155 87.9718 24.194 88.0243 23.7319C88.5822 18.8416 83.9318 14.4308 83.3953 14.0284C81.5966 12.6794 77.3681 10.5204 74.721 10.4689C74.2451 10.4596 73.9073 10.8756 73.9073 11.3517Z" fill="white"/>
<path d="M98.4551 24.4507C98.7121 24.4507 98.928 24.255 98.9471 23.9986C99.1767 20.9182 98.6474 18.3386 97.5637 15.3776C96.4275 12.2728 94.6063 9.45078 92.2303 7.11172C89.8539 4.77261 86.9806 2.97385 83.8138 1.84301C80.7909 0.763416 77.5711 0.31786 74.3639 0.533215C74.1053 0.550571 73.9073 0.767207 73.9073 1.02627V4.88475C73.9073 5.19333 74.1845 5.42716 74.4914 5.3962C77.2444 5.11866 79.668 6.13558 81.913 6.93729C84.3153 7.7952 86.4952 9.15991 88.2981 10.9345C90.101 12.7091 91.4825 14.8501 92.3445 17.2056C93.1362 19.3688 93.4853 21.8888 93.4374 23.9208C93.4305 24.2084 93.6582 24.4507 93.9457 24.4507H98.4551Z" fill="white"/>
</g>
<defs>
<clipPath id="clip0_840_1059">
<rect width="99" height="57.1154" fill="white" transform="translate(0 0.480469)"/>
</clipPath>
</defs>
</svg>
